<svg width="500" height="373" viewBox="0 0 500 373" fill="none" xmlns="http://www.w3.org/2000/svg">
<path d="M500 327.4H0V327.65H500V327.4Z" fill="#EBEBEB"/>
<path d="M315.67 334.21H290.21V334.46H315.67V334.21Z" fill="#EBEBEB"/>
<path d="M455.44 339.62H395.11V339.87H455.44V339.62Z" fill="#EBEBEB"/>
<path d="M284.79 334.33H222.46V334.58H284.79V334.33Z" fill="#EBEBEB"/>
<path d="M182.04 341.81H169V342.06H182.04V341.81Z" fill="#EBEBEB"/>
<path d="M254.09 341.81H194.71V342.06H254.09V341.81Z" fill="#EBEBEB"/>
<path d="M90.91 337.59H52.46V337.84H90.91V337.59Z" fill="#EBEBEB"/>
<path d="M237 282.8H43.91C42.3973 282.797 40.9475 282.195 39.8789 281.124C38.8102 280.054 38.21 278.603 38.21 277.09V5.66C38.2232 4.15603 38.8292 2.71798 39.8964 1.65822C40.9637 0.598458 42.406 0.00257639 43.91 0H237C238.514 0 239.967 0.601588 241.038 1.67242C242.108 2.74325 242.71 4.19561 242.71 5.71V277.09C242.71 278.604 242.108 280.057 241.038 281.128C239.967 282.198 238.514 282.8 237 282.8V282.8ZM43.91 0.200001C42.4636 0.20265 41.0774 0.779065 40.0557 1.80273C39.0339 2.82639 38.46 4.21365 38.46 5.66V277.09C38.46 278.536 39.0339 279.924 40.0557 280.947C41.0774 281.971 42.4636 282.547 43.91 282.55H237C238.447 282.547 239.835 281.971 240.858 280.948C241.881 279.924 242.457 278.537 242.46 277.09V5.66C242.457 4.21273 241.881 2.82549 240.858 1.80212C239.835 0.77874 238.447 0.202644 237 0.200001H43.91Z" fill="#EBEBEB"/>
<path d="M453.31 282.8H260.21C258.696 282.797 257.246 282.195 256.175 281.125C255.105 280.054 254.503 278.604 254.5 277.09V5.66C254.516 4.15511 255.124 2.71708 256.193 1.65759C257.262 0.598109 258.705 0.00254829 260.21 0H453.31C454.812 0.0052045 456.252 0.602249 457.317 1.66173C458.382 2.72121 458.987 4.15775 459 5.66V277.09C459 278.601 458.401 280.05 457.335 281.121C456.268 282.191 454.821 282.795 453.31 282.8V282.8ZM260.21 0.200001C258.763 0.202644 257.375 0.77874 256.352 1.80212C255.329 2.82549 254.753 4.21273 254.75 5.66V277.09C254.753 278.537 255.329 279.924 256.352 280.948C257.375 281.971 258.763 282.547 260.21 282.55H453.31C454.757 282.547 456.145 281.971 457.168 280.948C458.191 279.924 458.767 278.537 458.77 277.09V5.66C458.767 4.21273 458.191 2.82549 457.168 1.80212C456.145 0.77874 454.757 0.202644 453.31 0.200001H260.21Z" fill="#EBEBEB"/>
<path d="M195.96 240.67H129.56L125.53 194.17H191.93L195.96 240.67Z" fill="#E6E6E6"/>
<path d="M199.4 240.67H133L128.97 194.17H195.37L199.4 240.67Z" fill="#F0F0F0"/>
<path d="M142.08 230.68L139.86 204.15H186.29L188.51 230.68H142.08Z" fill="white"/>
<path d="M210.89 240.67H203.1V327.4H210.89V240.67Z" fill="#E6E6E6"/>
<path d="M213.35 240.67H207.94V327.4H213.35V240.67Z" fill="#F0F0F0"/>
<path d="M137.94 250.24H213.35V240.67H137.94V250.24Z" fill="#F0F0F0"/>
<path d="M140.6 250.24H132.81V327.4H140.6V250.24Z" fill="#E6E6E6"/>
<path d="M143.06 250.24H137.65V327.4H143.06V250.24Z" fill="#F0F0F0"/>
<path d="M85.15 250.24H77.36V327.4H85.15V250.24Z" fill="#E6E6E6"/>
<path d="M87.61 250.24H82.2V327.4H87.61V250.24Z" fill="#F0F0F0"/>
<path d="M161.59 250.24H153.8V327.4H161.59V250.24Z" fill="#E6E6E6"/>
<path d="M164.04 250.24H158.63V327.4H164.04V250.24Z" fill="#F0F0F0"/>
<path d="M137.94 240.67H77.36V250.24H137.94V240.67Z" fill="#E6E6E6"/>
<path d="M363.84 24.41H129.51V154.87H363.84V24.41Z" fill="#E0E0E0"/>
<path d="M376.71 24.41H130.69V154.87H376.71V24.41Z" fill="#F5F5F5"/>
<path d="M372.69 150.85V28.43L134.71 28.43V150.85H372.69Z" fill="white"/>
<path d="M231.07 150.85L276 28.43H201.85L156.92 150.85H231.07Z" fill="#F5F5F5"/>
<path d="M302.44 150.85L347.37 28.43H291.43L246.5 150.85H302.44Z" fill="#F5F5F5"/>
<path d="M438.11 202.8H418.19V327.4H438.11V202.8Z" fill="#E6E6E6"/>
<path d="M432.87 327.4H438.11V317.81H427.38L432.87 327.4Z" fill="#FAFAFA"/>
<path d="M254.45 202.8H234.53V327.4H254.45V202.8Z" fill="#E6E6E6"/>
<path d="M438.11 202.8H249.88V324.81H438.11V202.8Z" fill="#FAFAFA"/>
<path d="M434.55 242.17H253.45V207.71H434.55V242.17ZM254.45 241.17H433.55V208.71H254.45V241.17Z" fill="#E6E6E6"/>
<path d="M402.67 224.44H288.84C283.56 224.44 278.47 220.18 274.84 212.74L274.5 212.03H417L416.66 212.74C413 220.18 408 224.44 402.67 224.44ZM276.14 213C279.52 219.63 284.14 223.41 288.84 223.41H402.67C407.39 223.41 411.99 219.63 415.37 213H276.14Z" fill="#E6E6E6"/>
<path d="M255.12 327.4H249.88V317.81H260.61L255.12 327.4Z" fill="#FAFAFA"/>
<path d="M434.55 281H253.45V246.58H434.55V281ZM254.45 280H433.55V247.58H254.45V280Z" fill="#E6E6E6"/>
<path d="M402.67 263.31H288.84C283.56 263.31 278.47 259.04 274.84 251.61L274.5 250.89H417L416.66 251.61C413 259 408 263.31 402.67 263.31ZM276.14 251.89C279.52 258.52 284.14 262.31 288.84 262.31H402.67C407.39 262.31 411.99 258.52 415.37 251.89H276.14Z" fill="#E6E6E6"/>
<path d="M434.55 319.9H253.45V285.44H434.55V319.9ZM254.45 318.9H433.55V286.44H254.45V318.9Z" fill="#E6E6E6"/>
<path d="M402.67 302.17H288.84C283.56 302.17 278.47 297.91 274.84 290.48L274.5 289.76H417L416.66 290.48C413 297.91 408 302.17 402.67 302.17ZM276.14 290.76C279.52 297.39 284.14 301.17 288.84 301.17H402.67C407.39 301.17 411.99 297.39 415.37 290.76H276.14Z" fill="#E6E6E6"/>
<path d="M120.98 219.28V221.7H119.44L118.16 240.67H99.32L98.05 221.7H96.5V219.28H120.98Z" fill="#E6E6E6"/>
<path d="M114.78 172.21C113.24 160.91 97.99 157.69 78.64 157.27C60.23 156.88 54.33 150.37 54.33 150.37C54.33 150.37 54.39 176.74 80.92 186.3C106.11 195.36 116.33 183.53 114.78 172.21Z" fill="#E6E6E6"/>
<path d="M105.38 197.82C105.7 193.18 113.12 184.64 130.97 188.52C143.87 191.33 148.67 184.64 148.67 184.64C148.67 184.64 147.47 203.52 128.07 209.19C109.64 214.58 104.81 206 105.38 197.82Z" fill="#E6E6E6"/>
<path d="M109.45 226.4C109.55 226.401 109.65 226.38 109.742 226.339C109.833 226.297 109.914 226.236 109.98 226.16C111.27 224.63 110.21 220.97 108.75 215.9C106.87 209.4 104.53 201.3 106.51 195.43C107.607 192.329 108.89 189.297 110.35 186.35C113.15 180.43 115.57 175.35 113.55 169.97C113.518 169.884 113.47 169.806 113.408 169.739C113.346 169.672 113.272 169.618 113.189 169.58C113.106 169.543 113.016 169.522 112.925 169.519C112.834 169.516 112.743 169.531 112.657 169.563C112.572 169.596 112.494 169.645 112.428 169.707C112.362 169.77 112.309 169.845 112.272 169.929C112.235 170.012 112.215 170.102 112.213 170.193C112.211 170.284 112.227 170.375 112.26 170.46C114.07 175.25 111.88 179.89 109.1 185.77C107.621 188.765 106.319 191.843 105.2 194.99C103.09 201.27 105.49 209.6 107.42 216.28C108.56 220.28 109.74 224.28 108.93 225.28C108.866 225.349 108.816 225.431 108.785 225.52C108.754 225.609 108.742 225.704 108.75 225.798C108.757 225.892 108.784 225.983 108.829 226.066C108.874 226.149 108.936 226.222 109.01 226.28C109.138 226.371 109.294 226.414 109.45 226.4V226.4Z" fill="#E6E6E6"/>
<path d="M250 372.56C357.082 372.56 443.89 367.492 443.89 361.24C443.89 354.988 357.082 349.92 250 349.92C142.917 349.92 56.11 354.988 56.11 361.24C56.11 367.492 142.917 372.56 250 372.56Z" fill="#F5F5F5"/>
<path d="M249.96 306.05H107.96L100.19 77.68H242.19L249.96 306.05Z" fill="#002DB2"/>
<path d="M257.05 298.96H115.05L107.27 70.59H249.27L257.05 298.96Z" fill="#002DB2"/>
<path opacity="0.3" d="M257.05 298.96H115.05L107.27 70.59H249.27L257.05 298.96Z" fill="white"/>
<path d="M209.473 164.564C224.677 149.097 224.03 123.807 208.028 108.076C192.026 92.3456 166.728 92.1314 151.524 107.598C136.32 123.064 136.967 148.355 152.969 164.085C168.971 179.816 194.268 180.03 209.473 164.564Z" fill="#002DB2"/>
<path d="M213.47 136.09C213.675 141.532 212.487 146.935 210.02 151.79C207.357 157.022 203.29 161.408 198.273 164.456C193.257 167.505 187.49 169.096 181.62 169.05C175.612 169.018 169.718 167.406 164.53 164.376C159.342 161.347 155.041 157.006 152.06 151.79C149.28 147.01 147.728 141.616 147.54 136.09C147.356 131.805 148.044 127.527 149.564 123.517C151.084 119.506 153.403 115.847 156.381 112.76C159.359 109.674 162.934 107.225 166.887 105.562C170.841 103.9 175.091 103.059 179.38 103.09C188.215 103.153 196.687 106.616 203.035 112.761C209.384 118.907 213.121 127.261 213.47 136.09V136.09Z" fill="white"/>
<path opacity="0.6" d="M210 151.79C207.337 157.022 203.27 161.408 198.253 164.456C193.237 167.505 187.47 169.096 181.6 169.05C175.592 169.018 169.698 167.406 164.51 164.376C159.322 161.347 155.021 157.006 152.04 151.79C160.497 146.024 170.504 142.959 180.74 143C191.141 143.022 201.309 146.077 210 151.79Z" fill="#002DB2"/>
<path opacity="0.6" d="M190.772 135.268C196.363 129.58 196.125 120.281 190.241 114.497C184.357 108.712 175.054 108.634 169.464 114.321C163.873 120.008 164.111 129.307 169.995 135.092C175.879 140.876 185.181 140.955 190.772 135.268Z" fill="#002DB2"/>
<path d="M228.52 216.26H137.94L137.33 198.26H227.91L228.52 216.26Z" fill="white"/>
<path d="M229.62 248.43H139.03L138.42 230.43H229.01L229.62 248.43Z" fill="white"/>
<path d="M194.66 232.91L172.83 235.91C172.622 235.934 172.421 236 172.239 236.106C172.058 236.211 171.9 236.352 171.776 236.521C171.652 236.69 171.565 236.883 171.519 237.088C171.473 237.292 171.47 237.504 171.51 237.71L174.38 252.34C174.474 252.769 174.725 253.148 175.084 253.402C175.443 253.655 175.884 253.765 176.32 253.71L198.15 250.71C198.358 250.684 198.558 250.615 198.738 250.508C198.918 250.401 199.075 250.259 199.198 250.089C199.32 249.919 199.407 249.726 199.452 249.522C199.497 249.317 199.5 249.106 199.46 248.9L196.6 234.27C196.506 233.841 196.254 233.464 195.895 233.212C195.536 232.96 195.095 232.852 194.66 232.91V232.91ZM188.39 247.73L184.39 248.26L184 243.54C183.588 243.362 183.225 243.087 182.941 242.739C182.657 242.391 182.461 241.98 182.37 241.54C182.297 241.199 182.295 240.847 182.367 240.506C182.438 240.165 182.58 239.843 182.783 239.56C182.987 239.277 183.248 239.04 183.548 238.865C183.849 238.689 184.184 238.578 184.53 238.54C185.24 238.449 185.959 238.627 186.544 239.04C187.129 239.453 187.538 240.07 187.69 240.77C187.777 241.193 187.75 241.631 187.613 242.04C187.476 242.449 187.234 242.815 186.91 243.1L188.39 247.73Z" fill="#002DB2"/>
<path d="M192.5 232.12C192.114 232.169 191.724 232.072 191.405 231.848C191.087 231.625 190.864 231.29 190.78 230.91L190.5 229.48C190.1 227.529 189.007 225.788 187.421 224.582C185.836 223.376 183.867 222.785 181.88 222.92C180.877 222.977 179.898 223.249 179.01 223.719C178.122 224.188 177.345 224.842 176.732 225.638C176.119 226.434 175.685 227.353 175.458 228.331C175.232 229.31 175.219 230.326 175.42 231.31L175.74 232.96C175.777 233.143 175.776 233.331 175.736 233.514C175.696 233.696 175.619 233.868 175.509 234.019C175.398 234.169 175.258 234.295 175.096 234.388C174.935 234.482 174.756 234.54 174.57 234.56V234.56C174.183 234.614 173.791 234.519 173.471 234.294C173.152 234.07 172.93 233.732 172.85 233.35L172.58 231.96C172.305 230.661 172.296 229.32 172.553 228.017C172.81 226.714 173.328 225.477 174.075 224.38C174.822 223.282 175.784 222.347 176.902 221.63C178.019 220.914 179.271 220.431 180.58 220.21C183.419 219.733 186.332 220.368 188.716 221.982C191.099 223.597 192.769 226.067 193.38 228.88L193.7 230.52C193.737 230.705 193.735 230.896 193.693 231.08C193.652 231.264 193.572 231.438 193.458 231.589C193.345 231.74 193.201 231.865 193.036 231.957C192.871 232.048 192.688 232.104 192.5 232.12V232.12Z" fill="#002DB2"/>
<path d="M214.67 273.64H155.7L155.31 261.92H214.27L214.67 273.64Z" fill="#002DB2"/>
<path d="M186.22 207.26C186.238 207.687 186.168 208.114 186.016 208.514C185.864 208.914 185.632 209.279 185.335 209.586C185.037 209.894 184.681 210.138 184.286 210.304C183.892 210.469 183.468 210.553 183.04 210.55C182.158 210.543 181.313 210.198 180.678 209.586C180.044 208.973 179.668 208.141 179.63 207.26C179.612 206.833 179.682 206.406 179.834 206.006C179.986 205.606 180.218 205.241 180.515 204.934C180.813 204.626 181.169 204.382 181.564 204.216C181.958 204.051 182.382 203.967 182.81 203.97C183.692 203.974 184.539 204.319 185.174 204.932C185.809 205.544 186.184 206.378 186.22 207.26V207.26Z" fill="#263238"/>
<path d="M172 207.26C172.019 207.688 171.951 208.115 171.799 208.516C171.647 208.916 171.416 209.281 171.118 209.589C170.82 209.897 170.463 210.141 170.068 210.306C169.673 210.472 169.248 210.554 168.82 210.55C167.939 210.543 167.095 210.197 166.462 209.585C165.829 208.973 165.456 208.14 165.42 207.26C165.402 206.833 165.472 206.406 165.624 206.006C165.776 205.606 166.008 205.241 166.305 204.934C166.603 204.626 166.959 204.382 167.354 204.216C167.748 204.051 168.172 203.967 168.6 203.97C169.481 203.975 170.327 204.319 170.961 204.932C171.594 205.545 171.966 206.379 172 207.26V207.26Z" fill="#263238"/>
<path d="M157.87 207.26C157.888 207.687 157.818 208.114 157.666 208.514C157.514 208.914 157.282 209.279 156.985 209.586C156.687 209.894 156.331 210.138 155.936 210.304C155.542 210.469 155.118 210.553 154.69 210.55C153.808 210.545 152.963 210.201 152.329 209.588C151.696 208.975 151.323 208.141 151.29 207.26C151.272 206.833 151.342 206.406 151.494 206.006C151.646 205.606 151.878 205.241 152.175 204.934C152.473 204.626 152.829 204.382 153.224 204.216C153.618 204.051 154.042 203.967 154.47 203.97C155.351 203.975 156.197 204.319 156.831 204.932C157.464 205.545 157.836 206.379 157.87 207.26V207.26Z" fill="#263238"/>
<path d="M200.39 207.26C200.408 207.687 200.338 208.114 200.186 208.514C200.034 208.914 199.802 209.279 199.505 209.586C199.207 209.894 198.851 210.138 198.456 210.304C198.062 210.469 197.638 210.553 197.21 210.55C196.328 210.545 195.483 210.201 194.849 209.588C194.216 208.975 193.843 208.141 193.81 207.26C193.795 206.834 193.867 206.409 194.021 206.011C194.175 205.614 194.408 205.251 194.707 204.947C195.005 204.642 195.362 204.401 195.756 204.238C196.15 204.075 196.574 203.994 197 204C197.875 204.007 198.714 204.348 199.344 204.955C199.975 205.561 200.349 206.386 200.39 207.26V207.26Z" fill="#263238"/>
<path d="M214.56 207.26C214.579 207.688 214.511 208.115 214.359 208.516C214.207 208.916 213.976 209.281 213.678 209.589C213.38 209.897 213.023 210.141 212.628 210.306C212.233 210.472 211.808 210.554 211.38 210.55C210.499 210.543 209.655 210.197 209.022 209.585C208.389 208.973 208.016 208.14 207.98 207.26C207.962 206.833 208.032 206.406 208.184 206.006C208.336 205.606 208.568 205.241 208.865 204.934C209.163 204.626 209.519 204.382 209.914 204.216C210.308 204.051 210.732 203.967 211.16 203.97C212.041 203.975 212.887 204.319 213.521 204.932C214.154 205.545 214.526 206.379 214.56 207.26V207.26Z" fill="#263238"/>
<path d="M333.91 119.28C335.24 121.42 336.35 123.46 337.49 125.59C338.63 127.72 339.66 129.86 340.67 132.05C342.731 136.484 344.436 141.076 345.77 145.78C345.95 146.37 346.08 147 346.23 147.61L346.45 148.54L346.56 149L346.69 149.76C346.916 151.484 346.81 153.235 346.38 154.92C345.69 157.536 344.64 160.043 343.26 162.37C340.792 166.599 337.809 170.505 334.38 174L330.17 170.82C332.283 166.935 334.163 162.928 335.8 158.82C336.529 157.01 337.043 155.12 337.33 153.19C337.422 152.601 337.395 151.999 337.25 151.42L336.85 150.2C336.69 149.7 336.54 149.2 336.35 148.69C334.829 144.565 333.069 140.531 331.08 136.61C329.08 132.61 326.93 128.61 324.78 124.79L333.91 119.28Z" fill="#FF8B7B"/>
<path d="M331.24 169.43L326.64 171.86L331.92 178.04C331.92 178.04 335.22 175.81 335.37 172.41L331.24 169.43Z" fill="#FF8B7B"/>
<path d="M320.47 175.67L326.12 180.16L331.92 178.04L326.64 171.86L320.47 175.67Z" fill="#FF8B7B"/>
<path d="M301.15 86.56C301.04 87.12 300.65 87.51 300.29 87.44C299.93 87.37 299.72 86.85 299.83 86.3C299.94 85.75 300.33 85.3 300.7 85.42C301.07 85.54 301.26 86 301.15 86.56Z" fill="#263238"/>
<path d="M300.7 87.52C299.693 89.0863 298.475 90.5064 297.08 91.74C297.409 92.0814 297.809 92.3475 298.251 92.5201C298.692 92.6927 299.166 92.7677 299.64 92.74L300.7 87.52Z" fill="#FF5652"/>
<path d="M298.9 107.14V100.58L307.58 101.58C307.58 101.58 307.44 107.22 302.58 108.88L298.9 107.14Z" fill="#FF8B7B"/>
<path d="M301.4 95.86L307.51 97.62L307.62 101.63L298.94 100.58L301.4 95.86Z" fill="#FF8B7B"/>
<path opacity="0.2" d="M307.51 97.62L301.4 95.86L300.21 98.14C300.275 99.9365 300.836 101.68 301.832 103.177C302.827 104.674 304.218 105.866 305.85 106.62C306.9 105.154 307.513 103.42 307.62 101.62L307.51 97.62Z" fill="black"/>
<path d="M303.81 83.89C303.874 83.8883 303.936 83.8685 303.99 83.8328C304.043 83.7972 304.085 83.7473 304.111 83.6887C304.137 83.6302 304.147 83.5654 304.137 83.5019C304.128 83.4385 304.101 83.3789 304.06 83.33C303.709 82.9333 303.268 82.6265 302.774 82.4351C302.279 82.2438 301.747 82.1734 301.22 82.23C301.134 82.2447 301.057 82.2929 301.006 82.3642C300.956 82.4354 300.936 82.5238 300.95 82.61C300.965 82.6968 301.013 82.7745 301.083 82.8267C301.154 82.8789 301.243 82.9016 301.33 82.89C301.747 82.849 302.168 82.9085 302.558 83.0633C302.948 83.2181 303.295 83.4638 303.57 83.78C303.601 83.8134 303.638 83.8404 303.679 83.8592C303.72 83.8781 303.765 83.8886 303.81 83.89Z" fill="#263238"/>
<path d="M316.59 96.68C315.59 101.83 314.97 108.96 318.59 112.39C318.59 112.39 317.19 117.61 307.59 117.61C297.08 117.61 302.54 113.03 302.54 113.03C306.91 111.67 306.87 106.7 305.87 102.7L316.59 96.68Z" fill="#FF8B7B"/>
<path d="M320.54 115.83C321.48 114.51 321.44 110.32 320.44 109.58C318.83 108.39 311.92 108.11 302.63 110.25C303.63 114.31 301.48 116.43 301.48 116.43L320.54 115.83Z" fill="#002DB2"/>
<path d="M351.8 353.24C351.515 353.34 351.212 353.383 350.91 353.366C350.608 353.349 350.312 353.272 350.04 353.14C349.937 353.044 349.866 352.918 349.837 352.78C349.809 352.643 349.824 352.499 349.88 352.37C349.911 352.262 349.966 352.162 350.041 352.077C350.115 351.993 350.207 351.925 350.31 351.88C351.26 351.42 353.44 352.31 353.54 352.35C353.57 352.362 353.595 352.383 353.613 352.41C353.631 352.436 353.64 352.468 353.64 352.5C353.64 352.532 353.631 352.564 353.616 352.592C353.6 352.62 353.577 352.643 353.55 352.66C352.986 352.908 352.4 353.102 351.8 353.24V353.24ZM350.65 352.11C350.584 352.126 350.52 352.149 350.46 352.18C350.398 352.203 350.341 352.24 350.296 352.289C350.251 352.337 350.218 352.396 350.2 352.46C350.11 352.76 350.2 352.86 350.26 352.89C350.64 353.21 352.04 352.89 353.03 352.52C352.277 352.208 351.464 352.068 350.65 352.11V352.11Z" fill="#002DB2"/>
<path d="M353.51 352.67H353.43C352.63 352.44 350.93 351.23 350.91 350.44C350.909 350.314 350.951 350.192 351.03 350.094C351.108 349.996 351.217 349.927 351.34 349.9C351.459 349.856 351.585 349.838 351.712 349.848C351.838 349.859 351.96 349.897 352.07 349.96C353.01 350.44 353.61 352.38 353.63 352.47C353.644 352.494 353.651 352.522 353.651 352.55C353.651 352.578 353.644 352.606 353.63 352.63C353.615 352.646 353.596 352.657 353.575 352.664C353.554 352.671 353.532 352.673 353.51 352.67V352.67ZM351.51 350.18H351.43C351.23 350.25 351.23 350.35 351.23 350.4C351.23 350.87 352.37 351.82 353.23 352.2C353.02 351.64 352.56 350.53 351.95 350.2C351.815 350.138 351.661 350.131 351.52 350.18H351.51Z" fill="#002DB2"/>
<path d="M299.86 354.42C298.96 354.42 298.09 354.29 297.8 353.89C297.724 353.783 297.683 353.656 297.683 353.525C297.683 353.394 297.724 353.267 297.8 353.16C297.857 353.062 297.934 352.977 298.025 352.91C298.116 352.843 298.22 352.795 298.33 352.77C299.5 352.45 301.96 353.85 302.06 353.91C302.091 353.925 302.115 353.95 302.13 353.981C302.144 354.012 302.148 354.047 302.14 354.08C302.136 354.114 302.122 354.146 302.098 354.172C302.075 354.197 302.044 354.214 302.01 354.22C301.301 354.35 300.581 354.417 299.86 354.42ZM298.75 353.05C298.644 353.033 298.536 353.033 298.43 353.05C298.362 353.064 298.298 353.092 298.241 353.131C298.185 353.171 298.137 353.221 298.1 353.28C297.98 353.49 298.03 353.59 298.1 353.65C298.43 354.11 300.2 354.12 301.51 353.93C300.655 353.463 299.718 353.164 298.75 353.05V353.05Z" fill="#002DB2"/>
<path d="M302 354.22H301.93C301.08 353.84 299.4 352.32 299.53 351.52C299.53 351.33 299.69 351.1 300.15 351.06C300.314 351.041 300.481 351.056 300.639 351.104C300.798 351.152 300.944 351.232 301.07 351.34C301.711 352.106 302.095 353.054 302.17 354.05C302.17 354.079 302.163 354.107 302.151 354.133C302.139 354.158 302.122 354.181 302.1 354.2C302.069 354.216 302.034 354.223 302 354.22ZM300.28 351.37H300.18C299.88 351.37 299.86 351.51 299.86 351.55C299.78 352.03 300.92 353.23 301.79 353.75C301.714 352.947 301.388 352.189 300.86 351.58C300.696 351.44 300.486 351.365 300.27 351.37H300.28Z" fill="#002DB2"/>
<path d="M309.72 354.06H302.69L301.99 337.77H309.02L309.72 354.06Z" fill="#FF8B7B"/>
<path d="M361.35 350.8L354.48 352.29L347.57 337.12L354.45 335.63L361.35 350.8Z" fill="#FF8B7B"/>
<path d="M353.81 351.6L361.54 349.93C361.675 349.901 361.816 349.919 361.939 349.981C362.063 350.043 362.162 350.145 362.22 350.27L364.9 356.09C364.971 356.231 365.008 356.387 365.008 356.545C365.007 356.703 364.969 356.858 364.897 356.999C364.825 357.139 364.721 357.261 364.592 357.353C364.464 357.445 364.316 357.506 364.16 357.53C361.46 358.06 360.11 358.19 356.72 358.92C354.63 359.38 349.91 360.53 347.02 361.15C344.13 361.77 343.14 359 344.27 358.49C349.32 356.18 351.42 354.15 352.79 352.26C353.038 351.923 353.401 351.688 353.81 351.6V351.6Z" fill="#263238"/>
<path d="M302.74 353.24H310.42C310.559 353.241 310.694 353.289 310.803 353.376C310.912 353.463 310.989 353.584 311.02 353.72L312.41 359.97C312.451 360.121 312.456 360.28 312.424 360.433C312.392 360.586 312.325 360.73 312.228 360.852C312.131 360.975 312.006 361.073 311.864 361.138C311.722 361.204 311.566 361.235 311.41 361.23C308.64 361.18 304.64 361.02 301.16 361.02C297.08 361.02 293.57 361.24 288.79 361.24C285.9 361.24 285.1 358.32 286.31 358.05C291.81 356.85 296.31 356.72 301.06 353.79C301.559 353.456 302.14 353.266 302.74 353.24V353.24Z" fill="#263238"/>
<path d="M331.17 114C337.76 115.51 343.17 132.34 343.17 132.34L330 142.41C326.582 138.755 324.17 134.276 323 129.41C320.67 120.59 324.43 112.44 331.17 114Z" fill="#002DB2"/>
<path opacity="0.4" d="M331.17 114C337.76 115.51 343.17 132.34 343.17 132.34L330 142.41C326.582 138.755 324.17 134.276 323 129.41C320.67 120.59 324.43 112.44 331.17 114Z" fill="black"/>
<path d="M296.5 134.07C294.86 135.84 293.22 137.42 291.5 139.07C290.65 139.87 289.79 140.67 288.91 141.44L287.58 142.61L287.25 142.9L286.68 143.36C286.093 143.829 285.444 144.212 284.75 144.5C283.978 144.828 283.149 144.998 282.31 145C281.594 145.003 280.882 144.878 280.21 144.63C279.464 144.346 278.784 143.914 278.21 143.36C277.477 142.644 276.94 141.752 276.65 140.77C276.498 140.286 276.401 139.786 276.36 139.28C276.308 138.688 276.308 138.092 276.36 137.5C276.41 137.02 276.47 136.6 276.55 136.21C276.824 134.846 277.212 133.508 277.71 132.21C278.16 130.976 278.677 129.767 279.26 128.59C279.9 127.32 280.51 126.39 281.12 125.33C283.598 121.271 286.425 117.437 289.57 113.87C292.683 110.324 296.114 107.071 299.82 104.15L303.5 107.94C300.92 111.4 298.38 115.11 296.03 118.76C293.691 122.389 291.555 126.145 289.63 130.01C289.2 130.95 288.63 132.01 288.36 132.77C288.002 133.653 287.692 134.554 287.43 135.47C287.178 136.295 286.987 137.137 286.86 137.99C286.853 138.123 286.853 138.257 286.86 138.39C286.86 138.47 286.86 138.51 286.86 138.3C286.844 138.076 286.8 137.854 286.73 137.64C286.514 136.931 286.118 136.29 285.58 135.78C285.102 135.341 284.541 135.001 283.93 134.78C283.393 134.577 282.824 134.472 282.25 134.47C281.698 134.463 281.15 134.569 280.64 134.78C280.467 134.851 280.3 134.934 280.14 135.03L280.52 134.68L281.73 133.58L284.12 131.34C285.7 129.85 287.29 128.26 288.79 126.78L296.5 134.07Z" fill="#FF8B7B"/>
<path opacity="0.2" d="M325.52 126.36C329.1 129.9 330.27 136.36 330.52 141.96L329.94 142.41C326.522 138.755 324.11 134.276 322.94 129.41C322.81 128.89 322.69 128.41 322.6 127.84L325.52 126.36Z" fill="black"/>
<path d="M289.51 121C288.07 128.6 287.17 144.21 291.34 175.11H329C329.26 169.34 325.63 141.16 331.2 113.95C327.038 113.151 322.83 112.62 318.6 112.36C313.271 112.054 307.929 112.054 302.6 112.36C300.84 112.52 299.1 112.78 297.6 113.05C295.605 113.4 293.763 114.347 292.319 115.767C290.874 117.187 289.895 119.011 289.51 121Z" fill="#002DB2"/>
<path opacity="0.4" d="M289.51 121C288.07 128.6 287.17 144.21 291.34 175.11H329C329.26 169.34 325.63 141.16 331.2 113.95C327.038 113.151 322.83 112.62 318.6 112.36C313.271 112.054 307.929 112.054 302.6 112.36C300.84 112.52 299.1 112.78 297.6 113.05C295.605 113.4 293.763 114.347 292.319 115.767C290.874 117.187 289.895 119.011 289.51 121Z" fill="black"/>
<path opacity="0.2" d="M295.27 132.27L288.47 130.64C288.26 134.76 288.24 139.86 288.54 146.17C291.67 142.61 295.67 137.05 295.27 132.27Z" fill="black"/>
<path opacity="0.2" d="M301.99 337.77L302.35 346.17H309.39L309.03 337.77H301.99Z" fill="black"/>
<path opacity="0.2" d="M354.45 335.63L347.57 337.12L351.13 344.94L358.01 343.45L354.45 335.63Z" fill="black"/>
<path d="M319.93 89.16C318.13 95.9 317.41 99.94 313.25 102.74C307 107 299.2 102.12 299 95C298.78 88.57 301.77 78.62 309 77.26C310.589 76.9618 312.227 77.0731 313.761 77.5834C315.295 78.0937 316.674 78.9862 317.767 80.1768C318.861 81.3674 319.633 82.8168 320.012 84.3884C320.39 85.9601 320.362 87.6022 319.93 89.16V89.16Z" fill="#FF8B7B"/>
<path d="M304.15 89.41C303.81 88.51 302.26 81.54 303.72 79.73C305.18 77.92 321.83 79.23 324.29 81.65C328.38 85.65 325.54 89.25 321.07 93.88C317.71 97.36 317.58 101.28 315.88 101.88C312.88 102.88 308.3 101.94 307.38 98.77C306.46 95.6 304.15 89.41 304.15 89.41Z" fill="#263238"/>
<path d="M322.27 73.72C316.39 71.22 305.36 73.99 299.4 72.55C299.324 74.7662 300.053 76.9349 301.452 78.6555C302.851 80.376 304.825 81.5321 307.01 81.91C311.954 82.8522 316.977 83.3177 322.01 83.3C328.55 83 327.27 75.85 322.27 73.72Z" fill="#263238"/>
<path d="M323.19 81.86C325.338 82.0713 327.501 81.6581 329.42 80.67C330.52 83.33 324.47 84.06 323.19 81.86Z" fill="#263238"/>
<path d="M307.35 89.69C307.215 91.4242 306.512 93.0656 305.35 94.36C303.81 96.05 302.21 94.99 301.94 92.94C301.7 91.08 302.2 87.94 304.08 87.04C305.96 86.14 307.48 87.6 307.35 89.69Z" fill="#FF8B7B"/>
<path d="M304.69 175.14C304.69 175.14 312.69 228.89 317.06 249.03C321.85 271.08 347.59 344.03 347.59 344.03L360.18 341.3C360.18 341.3 342.18 281.84 338.18 251.01C335.08 227.33 328.99 175.12 328.99 175.12L304.69 175.14Z" fill="#002DB2"/>
<path d="M344.57 339.84C344.52 339.84 346.92 344.4 346.92 344.4L361.08 341.33L359.89 337.07L344.57 339.84Z" fill="#263238"/>
<path opacity="0.3" d="M309.74 194.29C318.97 196.1 317.99 230.52 316.88 248.23C314.22 235.71 310.32 211.63 307.66 194.54C308.304 194.222 309.038 194.134 309.74 194.29V194.29Z" fill="black"/>
<path d="M291.34 175.14C291.34 175.14 290.34 227.73 291.14 249.14C291.94 271.45 299.73 344.5 299.73 344.5H311.65C311.65 344.5 312.08 272.75 312.65 250.84C313.23 226.96 316.11 175.1 316.11 175.1L291.34 175.14Z" fill="#002DB2"/>
<path d="M297.44 339.8C297.38 339.8 298.11 344.74 298.11 344.74H312.6L313 340.33L297.44 339.8Z" fill="#263238"/>
<path d="M304.25 123.34C307.62 132.43 287.81 143.14 287.81 143.14L279.23 132.14C279.23 132.14 285 120.72 292 115.58C300.65 109.24 301.68 116.42 304.25 123.34Z" fill="#002DB2"/>
<path opacity="0.4" d="M304.25 123.34C307.62 132.43 287.81 143.14 287.81 143.14L279.23 132.14C279.23 132.14 285 120.72 292 115.58C300.65 109.24 301.68 116.42 304.25 123.34Z" fill="black"/>
<path d="M381.87 54.33C401.802 54.33 417.96 44.0326 417.96 31.33C417.96 18.6275 401.802 8.33 381.87 8.33C361.938 8.33 345.78 18.6275 345.78 31.33C345.78 44.0326 361.938 54.33 381.87 54.33Z" fill="#002DB2"/>
<path d="M368.85 42.91C366.473 42.9023 364.174 42.057 362.358 40.5226C360.542 38.9882 359.324 36.8628 358.92 34.52C358.522 31.9823 359.095 29.3878 360.523 27.2531C361.952 25.1183 364.132 23.5999 366.63 23V23C368.68 22.5277 370.826 22.7097 372.767 23.5205C374.707 24.3313 376.345 25.73 377.45 27.52L400.62 22.74C401.51 22.545 402.442 22.6931 403.228 23.1547C404.014 23.6162 404.597 24.3574 404.86 25.23C404.981 25.6888 405.008 26.1675 404.938 26.6368C404.868 27.1062 404.703 27.5563 404.453 27.9597C404.203 28.3631 403.873 28.7113 403.484 28.983C403.095 29.2547 402.655 29.4443 402.19 29.54L401.59 29.66C401.501 29.676 401.417 29.7123 401.344 29.766C401.271 29.8198 401.212 29.8896 401.17 29.97C401.133 30.0517 401.114 30.1403 401.114 30.23C401.114 30.3197 401.133 30.4083 401.17 30.49L401.58 31.55C401.717 31.8936 401.731 32.2743 401.617 32.6266C401.504 32.9789 401.272 33.2807 400.96 33.48C400.714 33.6319 400.506 33.8378 400.352 34.0822C400.198 34.3265 400.101 34.6028 400.07 34.89C400.041 35.2197 399.908 35.5316 399.69 35.7812C399.473 36.0308 399.182 36.2054 398.86 36.28L398.39 36.38C398.064 36.4402 397.728 36.3951 397.429 36.2513C397.131 36.1075 396.886 35.8723 396.73 35.58C396.522 35.2312 396.211 34.9559 395.84 34.7924C395.468 34.6289 395.055 34.5854 394.658 34.668C394.26 34.7505 393.898 34.955 393.623 35.253C393.347 35.5509 393.171 35.9274 393.12 36.33C393.092 36.6576 392.961 36.9678 392.745 37.2158C392.529 37.4639 392.241 37.637 391.92 37.71L391.45 37.81C391.124 37.8686 390.788 37.8228 390.49 37.6792C390.192 37.5355 389.947 37.3013 389.79 37.01C389.64 36.762 389.438 36.5495 389.198 36.3872C388.958 36.2249 388.686 36.1167 388.4 36.07C388.015 36.0237 387.661 35.8387 387.403 35.5496C387.145 35.2605 387.002 34.8873 387 34.5V33.36C386.996 33.2708 386.973 33.1836 386.932 33.1042C386.891 33.0248 386.833 32.9552 386.763 32.9002C386.693 32.8451 386.612 32.8059 386.525 32.7851C386.438 32.7644 386.348 32.7626 386.26 32.78L378.87 34.3C378.569 36.3474 377.644 38.2521 376.221 39.7551C374.799 41.2581 372.948 42.2864 370.92 42.7C370.239 42.8393 369.545 42.9096 368.85 42.91V42.91ZM366.85 23.91C364.582 24.4398 362.599 25.8093 361.3 27.7427C360.001 29.6762 359.483 32.0299 359.85 34.33C360.243 36.4699 361.389 38.3983 363.081 39.7665C364.773 41.1347 366.898 41.8523 369.073 41.7895C371.248 41.7267 373.328 40.8876 374.938 39.424C376.548 37.9604 377.581 35.969 377.85 33.81V33.45L386 31.8C386.234 31.7434 386.477 31.7397 386.713 31.7889C386.948 31.8382 387.17 31.9392 387.361 32.0848C387.553 32.2303 387.709 32.4167 387.82 32.6304C387.93 32.844 387.992 33.0796 388 33.32V34.46C388.002 34.5957 388.051 34.7265 388.139 34.8304C388.226 34.9342 388.347 35.0047 388.48 35.03C388.917 35.0926 389.334 35.2539 389.7 35.5017C390.065 35.7494 390.37 36.0772 390.59 36.46C390.643 36.5679 390.728 36.6567 390.834 36.714C390.94 36.7713 391.061 36.7944 391.18 36.78L391.64 36.68C391.757 36.65 391.86 36.5832 391.936 36.4895C392.012 36.3959 392.055 36.2803 392.06 36.16C392.123 35.5375 392.382 34.9511 392.8 34.4857C393.219 34.0202 393.774 33.6998 394.386 33.5706C394.998 33.4415 395.636 33.5104 396.206 33.7673C396.777 34.0243 397.251 34.456 397.56 35C397.611 35.1071 397.695 35.1955 397.799 35.2529C397.903 35.3103 398.022 35.3337 398.14 35.32L398.62 35.22C398.735 35.1882 398.836 35.1206 398.91 35.0271C398.984 34.9336 399.026 34.819 399.03 34.7C399.079 34.2609 399.229 33.839 399.466 33.4664C399.703 33.0938 400.023 32.7803 400.4 32.55C400.51 32.4705 400.591 32.3565 400.629 32.2261C400.667 32.0957 400.66 31.9563 400.61 31.83L400.2 30.77C400.115 30.5515 400.079 30.3171 400.094 30.0832C400.11 29.8493 400.176 29.6215 400.288 29.4158C400.4 29.2101 400.556 29.0314 400.745 28.8922C400.934 28.7531 401.15 28.6567 401.38 28.61L401.99 28.48C402.32 28.4096 402.633 28.2734 402.909 28.0794C403.185 27.8854 403.419 27.6377 403.598 27.3511C403.776 27.0645 403.895 26.7449 403.947 26.4114C403.999 26.0778 403.983 25.7373 403.9 25.41C403.705 24.7807 403.279 24.2485 402.708 23.9202C402.136 23.5919 401.462 23.4918 400.82 23.64L377 28.59L376.82 28.28C375.863 26.5763 374.377 25.2303 372.588 24.4456C370.798 23.6608 368.802 23.4798 366.9 23.93L366.85 23.91ZM368.85 39.19C367.608 39.2038 366.388 38.8564 365.34 38.19C364.1 37.3759 363.181 36.1569 362.739 34.7408C362.297 33.3248 362.36 31.7993 362.917 30.4245C363.474 29.0496 364.491 27.9106 365.794 27.2014C367.097 26.4923 368.605 26.257 370.062 26.5357C371.519 26.8144 372.834 27.5898 373.784 28.7297C374.733 29.8696 375.257 31.3034 375.268 32.7868C375.278 34.2701 374.774 35.7112 373.84 36.8642C372.907 38.0173 371.603 38.811 370.15 39.11V39.11C369.724 39.187 369.292 39.2205 368.86 39.21L368.85 39.19ZM368.85 27.38C368.477 27.3821 368.106 27.4189 367.74 27.49C367.043 27.6384 366.383 27.9226 365.796 28.3262C365.209 28.7299 364.707 29.2453 364.32 29.8428C363.932 30.4404 363.666 31.1084 363.536 31.8088C363.407 32.5093 363.417 33.2283 363.565 33.925C363.713 34.6217 363.998 35.2823 364.401 35.8691C364.805 36.456 365.32 36.9575 365.918 37.3452C366.515 37.7329 367.183 37.9991 367.884 38.1286C368.584 38.2581 369.303 38.2484 370 38.1V38.1C371.046 37.8823 372.004 37.3598 372.753 36.5985C373.502 35.8371 374.01 34.871 374.211 33.8218C374.412 32.7726 374.298 31.6874 373.883 30.703C373.468 29.7186 372.771 28.8789 371.88 28.29C370.995 27.7012 369.953 27.3912 368.89 27.4L368.85 27.38Z" fill="white"/>
<path opacity="0.6" d="M352.5 67.82C359.05 67.82 364.36 64.4353 364.36 60.26C364.36 56.0847 359.05 52.7 352.5 52.7C345.95 52.7 340.64 56.0847 340.64 60.26C340.64 64.4353 345.95 67.82 352.5 67.82Z" fill="#002DB2"/>
<path opacity="0.3" d="M333.63 70.92C336.32 70.92 338.5 69.5321 338.5 67.82C338.5 66.1079 336.32 64.72 333.63 64.72C330.94 64.72 328.76 66.1079 328.76 67.82C328.76 69.5321 330.94 70.92 333.63 70.92Z" fill="#002DB2"/>
</svg>
