<svg width="500" height="486" viewBox="0 0 500 486" fill="none" xmlns="http://www.w3.org/2000/svg">
<path d="M250.053 484.163C387.896 484.163 499.64 419.648 499.64 340.064C499.64 260.48 387.896 195.964 250.053 195.964C112.21 195.964 0.466125 260.48 0.466125 340.064C0.466125 419.648 112.21 484.163 250.053 484.163Z" fill="#F0F0F0"/>
<path d="M393.39 390.064C377.023 380.614 377.023 365.297 393.39 355.847C409.756 346.398 436.292 346.398 452.659 355.847C469.025 365.297 469.025 380.614 452.659 390.064C436.292 399.513 409.756 399.513 393.39 390.064Z" fill="#E0E0E0"/>
<path d="M60.5085 391.377L17.4576 366.525C15.0318 365.127 15.0318 362.85 17.4576 361.451L267.871 216.875C269.232 216.185 270.736 215.826 272.262 215.826C273.787 215.826 275.292 216.185 276.653 216.875L319.714 241.727C322.14 243.125 322.14 245.403 319.714 246.801L69.3008 391.377C67.938 392.067 66.4321 392.426 64.9047 392.426C63.3773 392.426 61.8713 392.067 60.5085 391.377V391.377Z" fill="#E0E0E0"/>
<path d="M215.254 347.076L252.267 325.678C256.08 323.475 257.987 320.593 257.987 317.701C257.987 314.809 257.987 312.553 257.987 312.553L219.597 290.9C218.525 290.207 217.632 289.27 216.991 288.165C216.351 287.06 215.98 285.82 215.911 284.544V238.898L151.292 276.25V321.875C151.367 323.149 151.739 324.388 152.379 325.492C153.02 326.595 153.91 327.534 154.979 328.231L187.648 347.045C195.254 351.483 207.627 351.483 215.254 347.076Z" fill="#407BFF"/>
<g opacity="0.6">
<path opacity="0.6" d="M215.254 347.076L252.267 325.678C256.08 323.475 257.987 320.593 257.987 317.701C257.987 314.809 257.987 312.553 257.987 312.553L219.597 290.9C218.525 290.207 217.632 289.27 216.991 288.165C216.351 287.06 215.98 285.82 215.911 284.544V238.898L151.292 276.25V321.875C151.367 323.149 151.739 324.388 152.379 325.492C153.02 326.595 153.91 327.534 154.979 328.231L187.648 347.045C195.254 351.483 207.627 351.483 215.254 347.076Z" fill="black"/>
</g>
<path opacity="0.3" d="M166.79 329.958V335.085L154.947 328.252C153.878 327.556 152.989 326.617 152.35 325.513C151.712 324.409 151.342 323.17 151.271 321.896V276.25L163.581 269.142C163.835 272.267 164.11 275.498 164.375 278.676L155.72 283.655V319.301C155.789 320.576 156.159 321.817 156.8 322.922C157.44 324.027 158.334 324.964 159.407 325.657L166.79 329.958Z" fill="black"/>
<path d="M155.72 319.311C155.793 320.586 156.165 321.825 156.805 322.929C157.446 324.033 158.337 324.971 159.407 325.667L187.606 341.917C195.233 346.314 207.606 346.324 215.244 341.917L252.32 320.519C259.958 316.112 259.958 308.972 252.32 304.566L224.1 288.316C223.032 287.618 222.143 286.679 221.505 285.575C220.867 284.471 220.496 283.233 220.424 281.96V246.303L155.805 283.655L155.72 319.311Z" fill="#407BFF"/>
<path opacity="0.3" d="M155.72 319.311C155.793 320.586 156.165 321.825 156.805 322.929C157.446 324.033 158.337 324.971 159.407 325.667L187.606 341.917C195.233 346.314 207.606 346.324 215.244 341.917L252.32 320.519C259.958 316.112 259.958 308.972 252.32 304.566L224.1 288.316C223.032 287.618 222.143 286.679 221.505 285.575C220.867 284.471 220.496 283.233 220.424 281.96V246.303L155.805 283.655L155.72 319.311Z" fill="black"/>
<path opacity="0.5" d="M231.568 292.669L224.057 288.337C222.99 287.639 222.101 286.7 221.463 285.597C220.824 284.493 220.454 283.254 220.381 281.981V246.303L155.763 283.655V319.311C155.835 320.586 156.207 321.825 156.848 322.929C157.488 324.033 158.379 324.971 159.449 325.667L166.864 329.905L231.568 292.669Z" fill="black"/>
<path d="M257.998 312.564V317.712C257.998 320.604 256.08 323.475 252.278 325.689L215.201 347.076C211.144 349.242 206.612 350.367 202.013 350.35V345.222C206.612 345.24 211.144 344.115 215.201 341.949L252.278 320.54C256.08 318.347 257.998 315.455 257.998 312.564Z" fill="#407BFF"/>
<path opacity="0.5" d="M257.998 312.564V317.712C257.998 320.604 256.08 323.475 252.278 325.689L215.201 347.076C211.144 349.242 206.612 350.367 202.013 350.35V345.222C206.612 345.24 211.144 344.115 215.201 341.949L252.278 320.54C256.08 318.347 257.998 315.455 257.998 312.564Z" fill="black"/>
<path d="M51.9068 363.623C53.3037 364.298 54.8396 364.635 56.3907 364.607C57.9419 364.58 59.4648 364.188 60.8369 363.464L310.837 219.131C312.177 218.257 313.293 217.079 314.094 215.693C314.894 214.308 315.357 212.753 315.445 211.155V8.9089C315.397 7.35421 314.983 5.83283 314.235 4.46873C313.488 3.10464 312.429 1.93643 311.144 1.05932C309.749 0.383852 308.214 0.0471565 306.664 0.0766076C305.114 0.106059 303.593 0.500824 302.225 1.22881L52.2246 145.604C50.8887 146.484 49.7798 147.667 48.9882 149.057C48.1966 150.447 47.7447 152.004 47.6695 153.602V355.816C47.7167 357.358 48.1247 358.867 48.8605 360.223C49.5964 361.579 50.6397 362.743 51.9068 363.623Z" fill="#407BFF"/>
<path d="M60.8687 363.453L310.869 219.121C312.211 218.248 313.328 217.071 314.129 215.685C314.93 214.298 315.391 212.743 315.477 211.144V8.9089C315.477 5.97458 313.411 4.77755 310.869 6.25L60.8687 150.583C59.5276 151.456 58.4114 152.634 57.6108 154.02C56.8101 155.406 56.3475 156.961 56.2606 158.559V360.794C56.2606 363.729 58.3263 364.926 60.8687 363.453Z" fill="#407BFF"/>
<path opacity="0.5" d="M60.8687 363.453L310.869 219.121C312.211 218.248 313.328 217.071 314.129 215.685C314.93 214.298 315.391 212.743 315.477 211.144V8.9089C315.477 5.97458 313.411 4.77755 310.869 6.25L60.8687 150.583C59.5276 151.456 58.4114 152.634 57.6108 154.02C56.8101 155.406 56.3475 156.961 56.2606 158.559V360.794C56.2606 363.729 58.3263 364.926 60.8687 363.453Z" fill="black"/>
<path d="M60.1907 368.708C58.8797 369.28 57.4603 369.561 56.0301 369.532C54.6 369.503 53.1932 369.164 51.9068 368.538C50.6368 367.656 49.5918 366.488 48.8558 365.129C48.1198 363.769 47.7135 362.255 47.6695 360.71V342.299L56.303 347.299V365.71C56.25 368.39 57.9555 369.608 60.1907 368.708Z" fill="#407BFF"/>
<path opacity="0.5" d="M60.1907 368.708C58.8797 369.28 57.4603 369.561 56.0301 369.532C54.6 369.503 53.1932 369.164 51.9068 368.538C50.6368 367.656 49.5918 366.488 48.8558 365.129C48.1198 363.769 47.7135 362.255 47.6695 360.71V342.299L56.303 347.299V365.71C56.25 368.39 57.9555 369.608 60.1907 368.708Z" fill="black"/>
<path d="M56.25 347.299V365.71C56.25 368.644 58.3686 369.831 60.858 368.369L310.858 224.036C312.193 223.166 313.305 221.995 314.106 220.617C314.906 219.239 315.372 217.692 315.466 216.102V197.606L56.25 347.299Z" fill="#407BFF"/>
<path opacity="0.3" d="M56.2606 347.256V365.71C56.2606 368.644 58.3793 369.831 60.8687 368.369L310.869 224.036C312.202 223.165 313.312 221.993 314.11 220.615C314.909 219.237 315.373 217.691 315.466 216.102V197.606L56.2606 347.256Z" fill="black"/>
<path d="M64.8941 324.153V161.43C64.9434 160.471 65.2186 159.538 65.6973 158.706C66.1759 157.874 66.8444 157.167 67.6483 156.642L304.025 20.1271C305.551 19.2479 306.79 19.9576 306.79 21.7161V184.523C306.739 185.483 306.462 186.416 305.981 187.249C305.501 188.081 304.831 188.787 304.025 189.311L67.6589 325.794C66.1335 326.674 64.8941 325.953 64.8941 324.153Z" fill="#407BFF"/>
<path d="M64.8941 324.153V161.43C64.9434 160.471 65.2186 159.538 65.6973 158.706C66.1759 157.874 66.8444 157.167 67.6483 156.642L304.025 20.1271C305.551 19.2479 306.79 19.9576 306.79 21.7161V184.523C306.739 185.483 306.462 186.416 305.981 187.249C305.501 188.081 304.831 188.787 304.025 189.311L67.6589 325.794C66.1335 326.674 64.8941 325.953 64.8941 324.153Z" fill="#263238"/>
<path d="M185.858 278.316C184.6 279.134 183.552 280.238 182.801 281.538C182.05 282.837 181.617 284.296 181.536 285.794C181.536 288.549 183.475 289.672 185.858 288.294C187.118 287.475 188.166 286.37 188.917 285.068C189.668 283.766 190.101 282.306 190.18 280.805C190.18 278.051 188.242 276.939 185.858 278.316Z" fill="#407BFF"/>
<path opacity="0.7" d="M57.6165 154.004C56.7955 155.384 56.3263 156.945 56.25 158.549V347.299L47.6695 342.299V153.602C47.7251 151.992 48.1919 150.424 49.0254 149.047L57.6165 154.004Z" fill="black"/>
<path opacity="0.3" d="M315.424 8.14619C315.095 5.7733 313.178 4.96822 310.858 6.25L60.858 150.583C59.5026 151.43 58.3838 152.607 57.6059 154.004L48.9619 149.015C49.7449 147.618 50.867 146.442 52.2246 145.593L302.225 1.27119C303.595 0.543097 305.118 0.148313 306.669 0.118864C308.221 0.089416 309.758 0.426133 311.155 1.1017C312.329 1.90186 313.318 2.94487 314.054 4.1602C314.791 5.37552 315.258 6.73482 315.424 8.14619Z" fill="black"/>
<path d="M328.909 33.0403C328.537 32.8539 328.122 32.7722 327.708 32.8039C327.294 32.8357 326.896 32.9796 326.557 33.2203L90.6674 169.492C89.7366 170.107 88.9639 170.933 88.4118 171.903C87.8596 172.873 87.5437 173.959 87.4894 175.074V336.801C87.4563 337.347 87.5648 337.892 87.8042 338.384C88.0436 338.876 88.4058 339.297 88.8559 339.608C89.375 339.894 92.1504 341.504 92.9767 341.949C93.269 342.098 93.5956 342.167 93.9232 342.148C94.2507 342.129 94.5675 342.024 94.8411 341.843L330.678 205.572C331.609 204.956 332.381 204.13 332.934 203.16C333.486 202.19 333.802 201.104 333.856 199.989V37.4259C333.903 37.0151 333.835 36.5992 333.659 36.225C333.483 35.8507 333.207 35.5329 332.86 35.3072C332.33 34.9576 329.502 33.3898 328.909 33.0403Z" fill="#407BFF"/>
<path d="M94.7881 171.78L330.689 35.5614C332.468 34.5021 333.867 35.3708 333.867 37.4258V199.989C333.812 201.104 333.496 202.19 332.944 203.16C332.392 204.13 331.619 204.956 330.689 205.572L94.7881 341.843C93.0085 342.903 91.6102 341.197 91.6102 339.142V177.362C91.6661 176.248 91.9828 175.162 92.5347 174.193C93.0867 173.223 93.8585 172.397 94.7881 171.78V171.78Z" fill="#FAFAFA"/>
<path d="M332.129 36.1758C332.754 36.1758 332.85 36.9597 332.85 37.4259V199.989C332.792 200.923 332.519 201.83 332.05 202.639C331.581 203.448 330.93 204.137 330.148 204.65L94.2797 340.922C94.1213 341.024 93.9385 341.083 93.75 341.091C93.1568 341.091 92.6907 340.18 92.6907 339.142V177.362C92.7418 176.429 93.0073 175.52 93.4666 174.707C93.9259 173.893 94.5666 173.196 95.339 172.67L331.218 36.4725C331.491 36.2964 331.805 36.1942 332.129 36.1758V36.1758ZM332.129 35.1165C331.619 35.1383 331.122 35.2915 330.689 35.5614L94.7881 171.78C93.8585 172.397 93.0867 173.223 92.5347 174.193C91.9828 175.162 91.6661 176.248 91.6102 177.362V339.142C91.6102 340.773 92.5212 342.15 93.7288 342.15C94.1028 342.143 94.4683 342.037 94.7881 341.843L330.678 205.572C331.609 204.956 332.381 204.13 332.934 203.16C333.486 202.19 333.802 201.104 333.856 199.989V37.4259C333.856 35.964 333.136 35.1165 332.076 35.1165H332.129Z" fill="#E0E0E0"/>
<path d="M88.7923 339.608C89.1419 339.788 91.6525 341.218 92.7542 341.854C92.3586 341.526 92.0453 341.11 91.8393 340.639C91.6333 340.168 91.5403 339.655 91.5678 339.142V187.924L87.4364 185.508V336.801C87.4022 337.346 87.509 337.89 87.7465 338.382C87.984 338.874 88.3442 339.296 88.7923 339.608V339.608Z" fill="#F0F0F0"/>
<path d="M333.909 37.3941C333.909 35.3602 332.458 34.5339 330.731 35.5614L94.7881 171.78C93.8585 172.397 93.0867 173.223 92.5347 174.193C91.9828 175.162 91.6661 176.248 91.6102 177.362V187.955L333.909 47.9873V37.3941Z" fill="#407BFF"/>
<g opacity="0.4">
<path opacity="0.4" d="M330.688 35.5614L94.7881 171.769C93.8413 172.366 93.0614 173.193 92.5211 174.174L88.4216 171.79C88.9609 170.844 89.7342 170.053 90.6673 169.492L326.557 33.2203C326.895 32.9779 327.292 32.8321 327.707 32.7985C328.121 32.7649 328.536 32.8448 328.909 33.0297C329.481 33.3898 332.161 34.9047 332.849 35.2754C332.493 35.1433 332.11 35.1003 331.733 35.1502C331.357 35.2001 330.998 35.3412 330.688 35.5614V35.5614Z" fill="white"/>
</g>
<path opacity="0.15" d="M87.4364 185.519V175.021C87.4799 173.877 87.8194 172.764 88.4216 171.79L92.5317 174.163C91.9381 175.12 91.6058 176.216 91.5678 177.341V187.934L87.4364 185.519Z" fill="black"/>
<path d="M284.163 159.343L142.881 240.911C142.194 241.357 141.622 241.959 141.212 242.667C140.801 243.376 140.564 244.172 140.519 244.989V285.498C140.564 286.316 140.801 287.111 141.212 287.82C141.622 288.529 142.194 289.13 142.881 289.576L147.002 291.949C147.734 292.32 148.544 292.513 149.364 292.513C150.185 292.513 150.994 292.32 151.727 291.949L292.987 210.381C293.675 209.933 294.247 209.33 294.657 208.619C295.067 207.909 295.305 207.112 295.35 206.292V165.773C295.305 164.956 295.067 164.16 294.657 163.451C294.246 162.742 293.674 162.141 292.987 161.695L288.856 159.322C288.127 158.958 287.322 158.77 286.507 158.773C285.692 158.777 284.889 158.972 284.163 159.343Z" fill="#407BFF"/>
<path opacity="0.5" d="M295.35 165.413C295.18 164.195 294.195 163.75 293.008 164.439L151.727 246.006C151.03 246.439 150.457 247.045 150.063 247.765L141.218 242.659C141.615 241.95 142.183 241.353 142.871 240.922L284.163 159.354C284.893 158.983 285.701 158.789 286.52 158.789C287.339 158.789 288.147 158.983 288.877 159.354L293.008 161.727C293.638 162.139 294.173 162.682 294.577 163.317C294.98 163.953 295.244 164.668 295.35 165.413Z" fill="white"/>
<path d="M151.324 292.15C150.632 292.423 149.891 292.547 149.148 292.514C148.405 292.481 147.678 292.292 147.013 291.96L142.881 289.587C142.195 289.14 141.624 288.538 141.214 287.829C140.804 287.121 140.566 286.326 140.519 285.508V245C140.551 244.173 140.791 243.368 141.218 242.659L150.064 247.765C149.634 248.465 149.393 249.264 149.364 250.085V290.604C149.364 291.949 150.212 292.574 151.324 292.15Z" fill="#263238"/>
<path d="M151.727 246.006L293.008 164.439C294.311 163.686 295.371 164.29 295.371 165.794V206.314C295.326 207.133 295.089 207.93 294.678 208.64C294.268 209.351 293.696 209.954 293.008 210.403L151.748 291.97C150.445 292.722 149.386 292.108 149.386 290.604V250.095C149.428 249.278 149.662 248.482 150.069 247.772C150.475 247.062 151.043 246.457 151.727 246.006V246.006Z" fill="#407BFF"/>
<path d="M246.705 180.975L142.892 240.922C142.204 241.353 141.636 241.95 141.239 242.659L150.085 247.765C150.478 247.045 151.051 246.439 151.748 246.006L255.561 186.07L246.705 180.975Z" fill="#455A64"/>
<path d="M255.54 186.07L151.727 246.006C151.039 246.454 150.467 247.058 150.057 247.769C149.647 248.479 149.409 249.276 149.364 250.095V290.593C149.364 292.097 150.424 292.712 151.727 291.96L255.54 232.023V186.07Z" fill="#37474F"/>
<path d="M175.667 241.07L229.237 210.148C231.451 208.867 233.252 209.778 233.252 212.182C233.153 213.533 232.737 214.841 232.038 216C231.338 217.16 230.375 218.138 229.227 218.856L175.667 249.788C173.453 251.07 171.642 250.159 171.642 247.754C171.742 246.403 172.158 245.093 172.858 243.932C173.557 242.771 174.519 241.79 175.667 241.07V241.07Z" fill="#407BFF"/>
<path d="M186.642 251.314C186.652 251.302 186.664 251.293 186.678 251.287C186.692 251.281 186.706 251.278 186.721 251.278C186.736 251.278 186.751 251.281 186.765 251.287C186.779 251.293 186.791 251.302 186.801 251.314C186.848 251.386 186.871 251.471 186.864 251.557V257.585C186.865 258.167 186.815 258.748 186.716 259.322C186.629 259.846 186.479 260.358 186.271 260.847C186.081 261.296 185.832 261.716 185.53 262.098C185.232 262.451 184.873 262.749 184.47 262.977C184.155 263.182 183.787 263.292 183.411 263.295C183.267 263.283 183.127 263.242 183 263.175C182.872 263.108 182.76 263.015 182.669 262.903C182.437 262.591 182.284 262.227 182.225 261.843C182.123 261.331 182.077 260.809 182.087 260.286V254.248C182.087 254.142 182.108 254.038 182.15 253.941C182.176 253.853 182.233 253.778 182.309 253.729L182.977 253.337C182.998 253.317 183.027 253.306 183.056 253.306C183.086 253.306 183.114 253.317 183.136 253.337C183.185 253.408 183.207 253.494 183.199 253.581V259.534C183.191 259.861 183.223 260.189 183.294 260.509C183.324 260.713 183.412 260.904 183.549 261.059C183.596 261.116 183.657 261.161 183.725 261.19C183.793 261.22 183.867 261.233 183.941 261.229C184.122 261.217 184.297 261.159 184.449 261.059C184.638 260.947 184.809 260.808 184.958 260.646C185.123 260.456 185.259 260.242 185.36 260.011C185.48 259.739 185.568 259.455 185.625 259.163C185.687 258.814 185.715 258.459 185.71 258.104V252.14C185.713 252.033 185.738 251.929 185.784 251.833C185.81 251.745 185.866 251.67 185.943 251.621L186.642 251.314Z" fill="#FAFAFA"/>
<path d="M190.795 257.013C190.8 256.935 190.782 256.857 190.742 256.79C190.716 256.763 190.685 256.742 190.65 256.729C190.615 256.716 190.577 256.711 190.54 256.716C190.41 256.698 190.278 256.698 190.148 256.716L189.534 256.833C189.336 256.882 189.128 256.882 188.93 256.833C188.775 256.783 188.64 256.682 188.549 256.547C188.445 256.375 188.377 256.184 188.347 255.985C188.244 255.418 188.244 254.836 188.347 254.269C188.427 253.944 188.541 253.628 188.686 253.326C188.832 253.025 189.009 252.741 189.216 252.479C189.417 252.229 189.661 252.017 189.936 251.854C190.159 251.718 190.408 251.631 190.667 251.6C190.855 251.58 191.044 251.621 191.208 251.716C191.363 251.811 191.485 251.952 191.557 252.119C191.643 252.316 191.689 252.528 191.695 252.744C191.706 252.85 191.684 252.957 191.631 253.051C191.605 253.138 191.549 253.213 191.472 253.263L190.837 253.633C190.808 253.65 190.775 253.659 190.742 253.659C190.708 253.659 190.675 253.65 190.646 253.633L190.508 253.528C190.454 253.484 190.387 253.459 190.318 253.453C190.182 253.469 190.051 253.516 189.936 253.591C189.77 253.691 189.623 253.821 189.502 253.972C189.374 254.139 189.307 254.345 189.311 254.555C189.297 254.636 189.297 254.718 189.311 254.799C189.332 254.829 189.358 254.854 189.39 254.872C189.421 254.89 189.456 254.901 189.492 254.905C189.607 254.924 189.725 254.924 189.841 254.905L190.434 254.799C190.932 254.703 191.271 254.799 191.494 255.074C191.727 255.467 191.835 255.922 191.801 256.377C191.798 256.692 191.755 257.005 191.674 257.309C191.59 257.64 191.469 257.959 191.314 258.263C191.158 258.576 190.962 258.868 190.731 259.131C190.511 259.389 190.25 259.607 189.958 259.778C189.725 259.926 189.46 260.017 189.184 260.042C188.985 260.049 188.789 259.994 188.623 259.883C188.459 259.772 188.334 259.613 188.263 259.428C188.177 259.227 188.134 259.011 188.136 258.792C188.126 258.683 188.148 258.572 188.199 258.475C188.225 258.387 188.281 258.312 188.358 258.263L188.994 257.892C189.078 257.892 189.142 257.839 189.184 257.892L189.322 258.04C189.35 258.072 189.384 258.097 189.423 258.116C189.461 258.134 189.502 258.144 189.544 258.146C189.694 258.147 189.839 258.099 189.958 258.008C190.149 257.9 190.321 257.76 190.466 257.595C190.538 257.508 190.599 257.412 190.646 257.309C190.721 257.225 190.772 257.123 190.795 257.013V257.013Z" fill="#FAFAFA"/>
<path d="M192.956 254.142C192.954 253.592 193 253.042 193.093 252.5C193.182 251.99 193.32 251.49 193.506 251.006C193.662 250.573 193.876 250.164 194.142 249.788C194.364 249.465 194.653 249.194 194.989 248.994C195.235 248.829 195.535 248.764 195.826 248.814C196.085 248.873 196.312 249.029 196.462 249.248C196.661 249.535 196.802 249.859 196.875 250.201C196.977 250.646 197.026 251.101 197.023 251.557V252.214C197.027 252.325 197.001 252.434 196.949 252.532C196.923 252.619 196.867 252.694 196.79 252.744L194.036 254.343C194.029 254.53 194.055 254.716 194.11 254.894C194.151 255.014 194.225 255.12 194.322 255.201C194.409 255.27 194.519 255.304 194.629 255.297C194.757 255.281 194.88 255.238 194.989 255.169C195.15 255.083 195.293 254.968 195.413 254.831C195.522 254.708 195.614 254.573 195.689 254.428C195.734 254.344 195.783 254.263 195.837 254.184C195.882 254.13 195.936 254.084 195.996 254.047L196.653 253.665C196.675 253.647 196.703 253.637 196.732 253.637C196.761 253.637 196.789 253.647 196.811 253.665C196.839 253.699 196.859 253.738 196.87 253.78C196.881 253.822 196.883 253.866 196.875 253.909C196.863 254.115 196.821 254.319 196.748 254.513C196.657 254.807 196.536 255.09 196.388 255.36C196.222 255.67 196.023 255.962 195.795 256.229C195.567 256.502 195.294 256.735 194.989 256.917C194.739 257.081 194.439 257.153 194.142 257.119C193.881 257.056 193.654 256.897 193.506 256.674C193.298 256.352 193.157 255.992 193.093 255.614C192.997 255.13 192.951 254.636 192.956 254.142V254.142ZM194.989 250.763C194.827 250.85 194.685 250.973 194.576 251.123C194.459 251.271 194.362 251.435 194.29 251.61C194.216 251.785 194.156 251.966 194.11 252.15C194.073 252.318 194.048 252.488 194.036 252.659L195.9 251.6C195.89 251.453 195.868 251.308 195.837 251.165C195.821 251.037 195.769 250.916 195.689 250.816C195.657 250.77 195.616 250.731 195.569 250.702C195.521 250.673 195.468 250.654 195.413 250.646C195.263 250.633 195.112 250.675 194.989 250.763V250.763Z" fill="#FAFAFA"/>
<path d="M200.35 247.807C200.029 247.99 199.776 248.273 199.629 248.612C199.464 249.059 199.389 249.534 199.407 250.011V253.835C199.408 253.944 199.387 254.052 199.343 254.153C199.317 254.24 199.261 254.315 199.184 254.364L198.559 254.725C198.549 254.736 198.537 254.745 198.523 254.751C198.51 254.757 198.495 254.76 198.48 254.76C198.465 254.76 198.45 254.757 198.436 254.751C198.423 254.745 198.41 254.736 198.4 254.725C198.353 254.653 198.331 254.567 198.337 254.481V247.627C198.337 247.518 198.359 247.41 198.4 247.309C198.43 247.224 198.486 247.15 198.559 247.097L199.184 246.737C199.206 246.717 199.234 246.706 199.264 246.706C199.293 246.706 199.322 246.717 199.343 246.737C199.392 246.805 199.415 246.887 199.407 246.97V247.309C199.533 247.025 199.689 246.755 199.873 246.504C200.04 246.272 200.258 246.08 200.508 245.943L200.89 245.72C200.91 245.701 200.936 245.69 200.964 245.69C200.992 245.69 201.018 245.701 201.038 245.72C201.089 245.791 201.115 245.877 201.112 245.964V246.928C201.11 247.038 201.085 247.146 201.038 247.246C201.011 247.33 200.96 247.404 200.89 247.458L200.35 247.807Z" fill="#FAFAFA"/>
<path d="M208.252 247.299C208.262 247.287 208.274 247.278 208.288 247.272C208.302 247.266 208.317 247.263 208.332 247.263C208.347 247.263 208.361 247.266 208.375 247.272C208.389 247.278 208.401 247.287 208.411 247.299C208.458 247.371 208.481 247.456 208.475 247.542V248.602C208.474 248.711 208.452 248.819 208.411 248.92C208.375 248.998 208.32 249.067 208.252 249.121L204.629 251.239C204.608 251.26 204.579 251.271 204.55 251.271C204.52 251.271 204.492 251.26 204.47 251.239C204.423 251.171 204.401 251.089 204.407 251.006V241.472C204.407 241.363 204.429 241.256 204.47 241.155C204.5 241.072 204.556 241.001 204.629 240.953L205.297 240.561C205.318 240.541 205.347 240.53 205.376 240.53C205.406 240.53 205.434 240.541 205.456 240.561C205.503 240.629 205.525 240.712 205.519 240.794V248.856L208.252 247.299Z" fill="#FAFAFA"/>
<path d="M211.504 239.46C211.743 239.295 212.031 239.216 212.32 239.237C212.568 239.257 212.799 239.371 212.966 239.555C213.164 239.782 213.308 240.05 213.39 240.339C213.503 240.714 213.567 241.102 213.581 241.494C213.581 241.578 213.581 241.695 213.581 241.833V242.648C213.581 242.775 213.581 242.892 213.581 242.987C213.56 243.448 213.496 243.905 213.39 244.354C213.292 244.791 213.15 245.217 212.966 245.625C212.798 246.005 212.581 246.361 212.32 246.684C212.097 246.977 211.82 247.225 211.504 247.415C211.259 247.575 210.97 247.652 210.678 247.638C210.433 247.617 210.206 247.503 210.042 247.32C209.839 247.101 209.694 246.836 209.619 246.547C209.505 246.172 209.441 245.783 209.428 245.392C209.428 245.307 209.428 245.201 209.428 245.064V244.248C209.428 244.11 209.428 243.994 209.428 243.909C209.44 243.445 209.501 242.983 209.608 242.532C209.711 242.092 209.857 241.662 210.042 241.25C210.211 240.873 210.424 240.517 210.678 240.191C210.903 239.895 211.183 239.647 211.504 239.46V239.46ZM212.5 242.193C212.5 241.958 212.46 241.726 212.384 241.504C212.344 241.369 212.262 241.25 212.15 241.165C212.06 241.105 211.951 241.078 211.843 241.091C211.722 241.114 211.607 241.161 211.504 241.229C211.38 241.297 211.266 241.383 211.165 241.483C211.044 241.609 210.94 241.752 210.858 241.907C210.752 242.099 210.673 242.306 210.625 242.521C210.556 242.792 210.513 243.069 210.498 243.347C210.498 243.432 210.498 243.528 210.498 243.644V244.396C210.498 244.513 210.498 244.608 210.498 244.672C210.508 244.906 210.551 245.138 210.625 245.36C210.664 245.496 210.746 245.615 210.858 245.699C210.902 245.73 210.952 245.752 211.005 245.763C211.058 245.774 211.112 245.774 211.165 245.763C211.285 245.742 211.4 245.699 211.504 245.636C211.627 245.565 211.741 245.479 211.843 245.381C211.961 245.252 212.065 245.11 212.15 244.958C212.252 244.763 212.331 244.557 212.384 244.343C212.453 244.073 212.492 243.796 212.5 243.517C212.506 243.418 212.506 243.319 212.5 243.22V242.479C212.506 242.384 212.506 242.288 212.5 242.193Z" fill="#FAFAFA"/>
<path d="M216.822 245.657C216.958 245.574 217.079 245.47 217.182 245.35C217.31 245.2 217.42 245.037 217.511 244.862C217.616 244.649 217.698 244.426 217.754 244.195C217.819 243.935 217.851 243.668 217.85 243.4V242.86C217.85 242.966 217.744 243.093 217.669 243.241C217.597 243.396 217.512 243.545 217.415 243.686C217.305 243.835 217.184 243.977 217.055 244.11C216.922 244.249 216.769 244.367 216.6 244.46C216.491 244.534 216.368 244.585 216.239 244.611C216.109 244.636 215.976 244.635 215.847 244.608C215.612 244.534 215.41 244.381 215.275 244.174C215.103 243.9 214.977 243.599 214.905 243.284C214.814 242.884 214.765 242.476 214.756 242.066C214.756 241.928 214.756 241.758 214.756 241.557C214.756 241.356 214.756 241.186 214.756 241.038C214.77 240.572 214.819 240.108 214.905 239.65C214.992 239.2 215.116 238.757 215.275 238.326C215.425 237.953 215.617 237.597 215.847 237.267C216.043 236.975 216.299 236.729 216.6 236.547C216.74 236.462 216.894 236.401 217.055 236.367C217.174 236.344 217.296 236.344 217.415 236.367C217.509 236.393 217.596 236.44 217.669 236.504C217.737 236.556 217.798 236.617 217.85 236.684V236.345C217.85 236.236 217.872 236.128 217.913 236.028C217.943 235.945 217.999 235.874 218.072 235.826L218.697 235.455C218.719 235.435 218.747 235.424 218.776 235.424C218.806 235.424 218.834 235.435 218.856 235.455C218.907 235.526 218.933 235.612 218.93 235.699V242.585C218.959 243.616 218.767 244.642 218.369 245.593C218.056 246.342 217.515 246.972 216.822 247.394C216.586 247.541 216.316 247.625 216.038 247.638C215.818 247.651 215.6 247.595 215.413 247.479C215.234 247.345 215.089 247.171 214.989 246.97C214.886 246.729 214.829 246.47 214.82 246.208C214.81 246.098 214.832 245.987 214.883 245.89C214.909 245.802 214.966 245.727 215.042 245.678L215.604 245.36C215.617 245.346 215.632 245.335 215.65 245.328C215.667 245.32 215.686 245.316 215.704 245.316C215.723 245.316 215.742 245.32 215.759 245.328C215.777 245.335 215.792 245.346 215.805 245.36C215.857 245.415 215.903 245.475 215.943 245.54C216.007 245.654 216.114 245.738 216.239 245.773C216.367 245.869 216.557 245.763 216.822 245.657ZM215.826 240.519C215.826 240.802 215.826 241.077 215.826 241.345C215.796 241.768 215.916 242.189 216.165 242.532C216.259 242.613 216.38 242.658 216.504 242.658C216.629 242.658 216.749 242.613 216.843 242.532C217.151 242.332 217.391 242.044 217.532 241.705C217.725 241.264 217.833 240.789 217.85 240.307C217.85 240.148 217.85 239.958 217.85 239.735C217.85 239.513 217.85 239.322 217.85 239.184C217.871 238.805 217.759 238.43 217.532 238.125C217.438 238.039 217.315 237.991 217.187 237.991C217.06 237.991 216.937 238.039 216.843 238.125C216.542 238.324 216.306 238.608 216.165 238.941C215.948 239.439 215.832 239.976 215.826 240.519V240.519Z" fill="#FAFAFA"/>
<path d="M221.398 231.112C221.419 231.095 221.445 231.086 221.472 231.086C221.499 231.086 221.526 231.095 221.547 231.112C221.602 231.181 221.629 231.268 221.621 231.356V232.511C221.621 232.621 221.596 232.73 221.547 232.828C221.517 232.908 221.465 232.978 221.398 233.03L220.688 233.443C220.679 233.454 220.666 233.463 220.653 233.469C220.639 233.475 220.624 233.479 220.609 233.479C220.594 233.479 220.579 233.475 220.565 233.469C220.552 233.463 220.54 233.454 220.53 233.443C220.502 233.411 220.481 233.374 220.468 233.334C220.456 233.294 220.451 233.252 220.455 233.21V232.055C220.455 231.945 220.48 231.836 220.53 231.737C220.559 231.655 220.615 231.584 220.688 231.536L221.398 231.112ZM221.578 241.059C221.579 241.165 221.557 241.27 221.515 241.367C221.481 241.45 221.426 241.523 221.356 241.578L220.72 241.939C220.711 241.95 220.7 241.959 220.687 241.965C220.674 241.971 220.66 241.974 220.646 241.974C220.632 241.974 220.618 241.971 220.605 241.965C220.592 241.959 220.581 241.95 220.572 241.939C220.517 241.87 220.49 241.783 220.498 241.695V234.841C220.497 234.731 220.523 234.622 220.572 234.523C220.602 234.441 220.653 234.368 220.72 234.311L221.356 233.951C221.377 233.931 221.406 233.92 221.435 233.92C221.465 233.92 221.493 233.931 221.515 233.951C221.562 234.019 221.585 234.102 221.578 234.184V241.059Z" fill="#FAFAFA"/>
<path d="M227.15 237.828C227.15 237.937 227.128 238.045 227.087 238.146C227.057 238.229 227.001 238.299 226.928 238.347L226.292 238.718C226.273 238.738 226.246 238.748 226.218 238.748C226.191 238.748 226.164 238.738 226.144 238.718C226.089 238.65 226.062 238.562 226.07 238.475V234.746C226.103 234.306 226.022 233.864 225.837 233.464C225.689 233.199 225.456 233.157 225.127 233.347C224.8 233.568 224.557 233.893 224.439 234.269C224.262 234.769 224.176 235.296 224.184 235.826V239.566C224.184 239.675 224.162 239.783 224.121 239.883C224.095 239.971 224.038 240.046 223.962 240.095L223.337 240.456C223.327 240.467 223.315 240.476 223.301 240.482C223.287 240.488 223.272 240.491 223.257 240.491C223.242 240.491 223.228 240.488 223.214 240.482C223.2 240.476 223.188 240.467 223.178 240.456C223.129 240.388 223.106 240.305 223.114 240.222V233.369C223.113 233.259 223.135 233.151 223.178 233.051C223.204 232.964 223.26 232.888 223.337 232.839L223.962 232.479C223.972 232.468 223.984 232.459 223.998 232.452C224.011 232.446 224.026 232.443 224.041 232.443C224.056 232.443 224.071 232.446 224.085 232.452C224.099 232.459 224.111 232.468 224.121 232.479C224.168 232.551 224.191 232.636 224.184 232.722V233.051C224.324 232.728 224.494 232.419 224.693 232.129C224.867 231.862 225.103 231.64 225.381 231.483C225.622 231.307 225.922 231.231 226.218 231.271C226.335 231.301 226.445 231.355 226.54 231.429C226.635 231.504 226.713 231.598 226.769 231.705C226.923 231.992 227.023 232.305 227.066 232.627C227.122 233.048 227.151 233.473 227.15 233.898V237.828Z" fill="#FAFAFA"/>
<path d="M280.583 206.992L270.297 212.924L271.896 198.496C270.657 197.839 269.873 196.239 269.873 193.941C269.873 189.841 272.373 185.085 275.445 183.347C278.517 181.61 281.006 183.453 281.006 187.585C280.943 190.015 280.249 192.388 278.994 194.47L280.583 206.992Z" fill="#455A64"/>
<path d="M280.593 206.992L271.536 201.769L270.297 212.934L280.593 206.992Z" fill="#37474F"/>
<path d="M275.424 183.316C273.184 184.829 271.513 187.047 270.678 189.619L278.972 194.407C280.228 192.324 280.922 189.952 280.985 187.521C281.006 183.422 278.517 181.547 275.424 183.316Z" fill="#37474F"/>
<path d="M225.424 135.275C221.896 133.242 217.034 133.528 211.653 136.631C200.911 142.839 192.203 157.913 192.203 170.318C192.203 176.547 194.407 180.911 197.945 182.924L204.799 186.907C208.316 188.941 213.178 188.644 218.57 185.54C229.311 179.343 238.019 164.258 238.019 151.854C238.019 145.657 235.837 141.261 232.32 139.28" fill="#407BFF"/>
<path d="M218.559 140.625C207.818 146.833 199.11 161.917 199.11 174.311C199.11 186.706 207.818 191.748 218.559 185.54C229.301 179.333 238.019 164.258 238.008 151.854C237.998 139.449 229.29 134.428 218.559 140.625Z" fill="#407BFF"/>
<path d="M229.29 168.146V169.566C226.717 174.159 223.026 178.028 218.559 180.816C214.375 183.22 210.593 183.485 207.818 181.949V179.025C207.96 175.984 208.828 173.02 210.351 170.383C211.873 167.745 214.005 165.511 216.568 163.867L219.396 162.235C221.896 160.794 224.333 160.604 226.239 161.716C228.146 162.828 229.29 165.169 229.29 168.146Z" fill="#407BFF"/>
<path opacity="0.4" d="M225.424 135.275L232.309 139.28C228.792 137.235 223.93 137.521 218.538 140.625C211.504 144.693 205.339 152.564 201.928 160.996L195.032 157.002C198.453 148.528 204.566 140.699 211.642 136.631C217.044 133.538 221.907 133.242 225.424 135.275Z" fill="white"/>
<path opacity="0.2" d="M204.555 186.748L197.956 182.924C194.417 180.911 192.214 176.568 192.214 170.318L199.11 174.322C199.153 180.36 201.186 184.661 204.555 186.748Z" fill="black"/>
<path opacity="0.1" d="M195.053 157.002L201.949 160.996C200.182 165.217 199.233 169.736 199.153 174.311V174.311L192.256 170.307C192.341 165.736 193.29 161.221 195.053 157.002Z" fill="black"/>
<path d="M216.102 161.568C215.445 161.575 214.797 161.407 214.227 161.08C213.539 160.622 212.988 159.986 212.632 159.24C212.276 158.495 212.128 157.666 212.203 156.843C212.293 154.913 212.844 153.033 213.81 151.359C214.776 149.686 216.128 148.268 217.754 147.225V147.225C218.407 146.703 219.203 146.391 220.036 146.329C220.87 146.267 221.703 146.458 222.426 146.876C223.149 147.295 223.729 147.923 224.09 148.676C224.451 149.43 224.576 150.276 224.449 151.102C224.358 153.031 223.806 154.911 222.84 156.584C221.875 158.257 220.523 159.676 218.898 160.72C218.057 161.245 217.092 161.538 216.102 161.568V161.568Z" fill="white"/>
<path d="M226.239 161.706C224.333 160.593 221.896 160.784 219.396 162.225L216.568 163.856C214.003 165.501 211.871 167.737 210.348 170.377C208.826 173.016 207.958 175.982 207.818 179.025V181.96C210.593 183.496 214.375 183.231 218.559 180.826C223.026 178.039 226.717 174.17 229.29 169.576V168.157C229.29 165.17 228.189 162.828 226.239 161.706Z" fill="white"/>
<path d="M444.015 344.968C444.015 344.968 445.424 332.595 451.578 322.987C457.733 313.379 466.187 307.394 474.078 306.769C481.97 306.144 488.348 313.411 479.905 318.422C471.462 323.432 456.462 328.496 449.555 347.14L444.015 344.968Z" fill="#407BFF"/>
<path opacity="0.1" d="M444.015 344.968C444.015 344.968 445.424 332.595 451.578 322.987C457.733 313.379 466.187 307.394 474.078 306.769C481.97 306.144 488.348 313.411 479.905 318.422C471.462 323.432 456.462 328.496 449.555 347.14L444.015 344.968Z" fill="black"/>
<path d="M446.335 341.748H446.25C446.146 341.706 446.063 341.624 446.02 341.521C445.976 341.417 445.975 341.301 446.017 341.197C454.343 320.699 470.191 312.129 477.415 310.477C477.47 310.464 477.526 310.462 477.581 310.472C477.636 310.481 477.688 310.501 477.735 310.53C477.783 310.56 477.824 310.598 477.856 310.644C477.888 310.689 477.911 310.74 477.924 310.795C477.936 310.849 477.938 310.905 477.929 310.96C477.92 311.015 477.9 311.067 477.87 311.115C477.841 311.162 477.802 311.203 477.757 311.235C477.712 311.267 477.66 311.29 477.606 311.303C470.53 312.934 454.99 321.345 446.801 341.525C446.76 341.61 446.692 341.678 446.607 341.718C446.522 341.759 446.426 341.769 446.335 341.748V341.748Z" fill="white"/>
<path d="M488.475 341.992C487.765 343.602 486.006 344.449 484.375 345.106C482.744 345.763 480.964 346.472 480.074 347.998C478.295 351.07 481.218 355.413 479.312 358.39C478.863 358.989 478.297 359.491 477.649 359.866C477.001 360.241 476.284 360.481 475.54 360.572C474.322 360.794 473.083 360.794 471.854 360.9C471.265 360.893 470.678 360.847 470.095 360.763C468.384 360.381 466.594 360.571 465 361.303C462.553 362.68 461.822 365.763 460.318 368.146C459.399 369.55 458.188 370.738 456.767 371.63C455.347 372.522 453.75 373.097 452.087 373.316C451.028 373.453 448.909 373.655 447.85 373.03C447.767 372.989 447.689 372.939 447.617 372.881V372.881C447.458 372.712 447.267 372.489 447.182 372.373C447.177 372.348 447.177 372.323 447.182 372.299C446.748 370.699 447.458 369.047 447.489 367.394V367.097C447.415 365.18 447.362 363.273 447.32 361.367C447.228 357.835 447.193 354.304 447.214 350.773C447.214 348.485 446.96 345.985 447.934 343.835C448.994 341.462 451.663 341.409 452.67 339.089C453.072 338.157 453.284 337.172 453.676 336.229C454.282 334.858 455.252 333.68 456.481 332.823C457.71 331.965 459.151 331.462 460.646 331.367C465.297 331.133 469.46 334.894 474.11 334.544C475.307 334.449 476.483 334.078 477.67 333.867C481.43 333.157 485.784 334.227 487.903 337.415C488.368 338.072 488.663 338.833 488.763 339.632C488.863 340.43 488.764 341.241 488.475 341.992V341.992Z" fill="#407BFF"/>
<path d="M446.716 364.958C446.616 364.928 446.531 364.861 446.48 364.77C446.428 364.679 446.414 364.571 446.441 364.47C452.86 340.381 478.22 336.928 484.184 337.331C484.237 337.333 484.288 337.346 484.335 337.369C484.383 337.392 484.425 337.424 484.459 337.464C484.494 337.503 484.52 337.549 484.537 337.599C484.553 337.649 484.559 337.702 484.555 337.754C484.544 337.857 484.494 337.952 484.415 338.019C484.336 338.086 484.235 338.12 484.131 338.114C478.316 337.701 453.485 341.102 447.203 364.682C447.174 364.782 447.106 364.867 447.015 364.918C446.925 364.97 446.817 364.984 446.716 364.958V364.958Z" fill="white"/>
<path d="M474.926 352.754C474.846 352.743 474.771 352.706 474.714 352.648C472.369 350.616 469.605 349.127 466.619 348.286C463.632 347.446 460.497 347.275 457.436 347.786C457.333 347.796 457.23 347.766 457.148 347.703C457.066 347.64 457.01 347.549 456.992 347.447C456.976 347.343 457.002 347.238 457.063 347.153C457.125 347.067 457.217 347.01 457.32 346.992C460.512 346.46 463.781 346.642 466.895 347.523C470.008 348.403 472.888 349.962 475.328 352.087C475.366 352.123 475.396 352.167 475.416 352.215C475.436 352.263 475.447 352.315 475.447 352.368C475.447 352.42 475.436 352.472 475.416 352.52C475.396 352.568 475.366 352.612 475.328 352.648C475.281 352.705 475.216 352.746 475.144 352.765C475.072 352.784 474.996 352.78 474.926 352.754Z" fill="white"/>
<path d="M385.72 54.0254L389.089 55.3178V47.9025C389.089 42.0127 393.782 40.6038 398.877 43.5487C403.983 46.4936 408.114 53.6441 408.114 59.5339V60.5932C408.825 60.3762 409.575 60.3226 410.308 60.4364C411.042 60.5501 411.741 60.8282 412.352 61.25C414.287 62.5116 415.896 64.2119 417.05 66.2127C418.205 68.2135 418.87 70.4583 418.994 72.7648V73.2521L423.697 75.964C424.969 76.7946 426.029 77.913 426.789 79.2289C427.549 80.5447 427.988 82.0209 428.072 83.5381C428.072 86.3347 426.112 87.4682 423.697 86.0699L385.72 64.1314C384.447 63.3027 383.388 62.1845 382.629 60.8681C381.871 59.5517 381.434 58.0745 381.356 56.5572C381.356 53.7712 383.295 52.6377 385.72 54.0254Z" fill="#E6E6E6"/>
<path d="M430.837 48.1568L436.949 51.6843C436.916 51.4172 436.898 51.1484 436.896 50.8792V49.1102C436.896 45.9322 439.1 44.6822 441.833 46.2606C443.007 46.9797 444.012 47.9446 444.778 49.089C445.222 45.1271 448.337 43.6547 452.108 45.8263C454.263 47.2285 456.058 49.1188 457.346 51.3439C458.634 53.569 459.38 56.0663 459.523 58.6335V61.2818C459.551 62.3399 459.337 63.3904 458.898 64.3538L463.983 67.2775C464.776 67.8031 465.434 68.5072 465.905 69.3332C466.376 70.1593 466.646 71.0843 466.695 72.0339C466.695 73.7818 465.466 74.4915 463.951 73.6229L430.837 54.5551C430.036 54.0333 429.37 53.3293 428.893 52.5008C428.416 51.6724 428.142 50.7428 428.093 49.7881C428.093 47.9979 429.322 47.2881 430.837 48.1568Z" fill="#E6E6E6"/>
<path d="M407.172 208.93C402.722 216.451 398.443 222.987 395.434 226.123C389.725 228.771 376.314 232.86 371.07 233.538C370.149 233.655 369.216 233.437 368.443 232.924C366.377 231.568 364.778 231.345 362.606 230.593C360.9 230.011 360.18 229.195 359.862 229.534C359.534 229.919 359.369 230.417 359.403 230.921C359.436 231.426 359.666 231.897 360.042 232.235C360.857 233.009 361.76 233.685 362.733 234.248C360.407 234.825 357.981 234.868 355.636 234.375C351.091 233.178 348.951 235.36 352.023 240.297C353.083 242.055 357.447 244.883 366.218 244.121C369.347 243.952 372.464 243.598 375.551 243.061C383.962 241.261 393.316 239.523 399.068 237.765C401.208 236.923 403.122 235.596 404.661 233.888C414.333 222.86 417.542 215 421.78 207.86L421.419 196.208C414.555 195.975 410.89 202.638 407.172 208.93Z" fill="#FFA8A7"/>
<path d="M422.595 195.975C420.605 195.695 418.576 195.964 416.727 196.754C414.879 197.544 413.282 198.824 412.108 200.456C407.405 206.483 399.078 220.953 399.078 220.953C399.078 220.953 401.801 228.21 409.152 229.428L420.964 213.475C420.964 213.475 426.557 202.394 422.595 195.975Z" fill="#455A64"/>
<path d="M448.136 358.623H440.434V372.352H448.136V358.623Z" fill="#FFA8A7"/>
<path d="M421.441 357.892L413.75 358.167L413.358 343.633L421.441 343.358V357.892Z" fill="#FFA8A7"/>
<path d="M449.216 239.778C449.216 247.426 448.093 309.047 448.093 309.047C448.263 311.25 450.212 315.318 449.82 323.782C449.237 335.275 448.464 365.487 448.464 365.487C447.142 366.164 445.683 366.531 444.199 366.56C442.714 366.589 441.242 366.28 439.894 365.657C439.894 365.657 433.644 323.284 432.267 311.939C431.059 301.992 427.966 269.068 427.966 269.068L423.803 307.987C424.685 312.163 425.006 316.438 424.756 320.699C424.396 325.996 421.917 353.411 421.917 353.411C420.587 354.196 419.095 354.668 417.555 354.791C416.015 354.914 414.468 354.685 413.03 354.121C413.03 354.121 408.644 312.807 408.559 307.956C408.453 302.447 411.123 239.714 411.123 239.714L449.216 239.778Z" fill="#37474F"/>
<path d="M440.434 368.39V367.246C439.693 367.574 437.987 374.375 434.926 377.278C432.5 379.587 429.195 382.246 428.347 384.82C427.5 387.394 432.955 388.972 435.233 388.559C437.86 388.072 442.436 386.133 443.58 384.322C444.724 382.511 445.265 379.883 446.197 378.57C447.129 377.256 449.28 375.795 449.777 374.269C449.933 372.842 449.785 371.398 449.343 370.032C448.983 368.612 448.602 367.055 448.136 367.193V368.061C447.05 368.953 445.684 369.433 444.28 369.417C443.157 369.513 440.424 369.28 440.434 368.39Z" fill="#263238"/>
<path d="M413.665 355.689C413.263 355.689 412.934 356.292 412.055 357.288C410.748 358.663 409.219 359.809 407.532 360.678C404.65 362.182 399.057 364.492 396.504 365.689C394.915 366.43 394.989 368.422 396.631 369.555C398.273 370.689 402.225 371.504 406.97 370.403C409.555 369.799 412.924 367.309 415.064 367.447C417.203 367.585 421.176 367.542 422.754 366.388C424.333 365.233 423.697 362.839 423.252 360.773C422.765 358.506 422.193 354.979 421.441 355.138V355.932C420.519 357.394 415.742 357.987 413.708 356.917L413.665 355.689Z" fill="#263238"/>
<path d="M427.966 269.068C423.96 267.756 420.297 265.567 417.246 262.659C417.246 262.659 419.364 266.695 425.466 270.456L424.152 305.212L427.966 269.068Z" fill="#263238"/>
<path d="M444.915 197.097C444.915 197.097 451.271 198.559 450.816 210.042L449.492 228.316V255.752C443.835 262.172 418.771 261.706 410.138 255.244C410.138 255.244 411.112 222.775 411.695 210.275C412.108 201.398 414.153 196.928 422.881 195.953L433.612 196.42L444.915 197.097Z" fill="#407BFF"/>
<path d="M436.822 173.242C436.859 174.779 436.59 176.308 436.033 177.741C435.476 179.175 434.64 180.483 433.575 181.592C432.509 182.701 431.235 183.588 429.825 184.202C428.415 184.816 426.898 185.145 425.36 185.169C419.004 185.169 415.275 179.682 413.898 173.242C411.356 161.451 419.025 161.303 425.36 161.303C428.463 161.367 431.413 162.661 433.563 164.899C435.712 167.138 436.884 170.139 436.822 173.242V173.242Z" fill="#263238"/>
<path d="M442.669 178.061C442.669 178.061 440.911 186.663 440.201 188.083C439.755 188.937 438.996 189.586 438.083 189.894L438.21 183.845L442.669 178.061Z" fill="#263238"/>
<path d="M440.455 165.742C440.455 165.742 441.716 165.424 443.061 167.521C444.205 169.311 444.47 173.337 442.669 178.114L439.354 178.517L440.455 165.742Z" fill="#263238"/>
<path d="M441.674 167.489L445.741 167.564C445.769 167.301 445.742 167.035 445.663 166.783C445.583 166.531 445.452 166.298 445.278 166.099C445.104 165.9 444.89 165.739 444.651 165.627C444.412 165.514 444.152 165.452 443.888 165.445C443.332 165.453 442.798 165.666 442.389 166.043C441.981 166.421 441.726 166.936 441.674 167.489Z" fill="#263238"/>
<path d="M442.172 166.525L445.18 163.633C445.007 163.429 444.793 163.263 444.552 163.145C444.311 163.028 444.049 162.961 443.781 162.95C443.513 162.939 443.246 162.984 442.996 163.082C442.747 163.179 442.52 163.327 442.33 163.517C441.931 163.907 441.694 164.433 441.664 164.99C441.635 165.547 441.816 166.095 442.172 166.525V166.525Z" fill="#263238"/>
<path d="M438.358 178.464C439.025 178.877 439.968 177.553 440.794 176.653C441.621 175.752 444.184 174.926 445.519 177.85C446.854 180.773 444.576 183.665 442.669 184.619C439.248 186.314 438.167 183.845 438.167 183.845L437.881 197.468C433.072 204.883 422.161 204.65 426.091 197.108V192.966C424.474 193.235 422.833 193.32 421.197 193.22C418.527 192.797 416.854 190.604 416.038 187.595C414.746 182.765 414.248 178.867 415.349 169.364C416.557 158.962 428.188 158.845 434.417 163.008C440.646 167.172 438.358 178.464 438.358 178.464Z" fill="#FFA8A7"/>
<path d="M423.866 167.744C426.642 167.468 429.385 166.896 432.171 166.684C432.772 166.612 433.381 166.64 433.972 166.769C436.091 167.352 435.837 169.831 436.176 171.557C436.758 174.544 437.235 179.597 438.358 179.619C438.697 179.619 439.968 177.426 440.794 176.642C441.249 175.967 441.505 175.178 441.536 174.364C441.748 173.136 441.854 171.875 441.949 170.625C442.034 169.566 442.14 168.506 442.14 167.447C442.188 166.25 442.092 165.051 441.854 163.877C441.588 162.878 441.078 161.961 440.371 161.208L440.159 160.975C438.762 159.515 437.068 158.373 435.191 157.627C432.49 156.615 429.657 155.998 426.78 155.794C423.906 155.591 421.046 155.237 418.21 154.735C418.047 154.688 417.874 154.688 417.712 154.735C417.597 154.799 417.5 154.89 417.429 155.002C417.359 155.113 417.318 155.24 417.309 155.371C417.193 156.029 417.266 156.707 417.519 157.325C417.772 157.944 418.195 158.478 418.739 158.867C416.822 159.015 414.619 158.019 412.775 157.511C412.626 157.447 412.466 157.415 412.304 157.415C412.142 157.415 411.982 157.447 411.832 157.511C411.648 157.64 411.516 157.832 411.462 158.051C411.328 158.549 411.309 159.07 411.409 159.576C411.577 161.109 412.147 162.571 413.061 163.814C414.489 165.672 416.506 166.991 418.782 167.553C420.457 167.876 422.172 167.94 423.866 167.744V167.744Z" fill="#263238"/>
<path d="M426.102 192.966C426.102 192.966 432.055 191.716 434.131 190.561C435.368 189.885 436.372 188.851 437.013 187.595C436.7 188.857 436.142 190.045 435.371 191.091C433.856 193.125 426.102 194.608 426.102 194.608V192.966Z" fill="#F28F8F"/>
<path d="M427.532 176.907C427.52 177.234 427.639 177.552 427.861 177.792C428.083 178.032 428.391 178.175 428.718 178.189C428.978 178.21 429.238 178.152 429.464 178.023C429.69 177.895 429.872 177.7 429.986 177.466C430.1 177.232 430.141 176.969 430.103 176.711C430.064 176.454 429.949 176.214 429.773 176.023C429.596 175.832 429.365 175.698 429.111 175.64C428.857 175.583 428.592 175.603 428.35 175.698C428.108 175.794 427.9 175.96 427.754 176.176C427.608 176.392 427.531 176.646 427.532 176.907V176.907Z" fill="#263238"/>
<path d="M429.438 171.769L431.991 173.242C432.177 172.879 432.219 172.459 432.109 172.066C431.999 171.673 431.745 171.337 431.398 171.123C431.229 171.028 431.042 170.969 430.849 170.95C430.655 170.932 430.46 170.954 430.276 171.014C430.092 171.075 429.922 171.174 429.778 171.304C429.634 171.433 429.518 171.592 429.438 171.769V171.769Z" fill="#263238"/>
<path d="M426.631 185.498L423.909 186.557C423.964 186.744 424.056 186.917 424.181 187.067C424.305 187.216 424.459 187.339 424.633 187.426C424.807 187.513 424.997 187.564 425.191 187.575C425.386 187.586 425.58 187.557 425.763 187.489C426.133 187.33 426.429 187.035 426.591 186.665C426.752 186.295 426.766 185.878 426.631 185.498V185.498Z" fill="#F28F8F"/>
<path d="M416.578 172.86L418.909 170.996C418.804 170.833 418.667 170.694 418.505 170.588C418.343 170.482 418.161 170.411 417.97 170.38C417.78 170.349 417.584 170.359 417.397 170.408C417.21 170.458 417.036 170.546 416.886 170.667C416.574 170.931 416.371 171.301 416.314 171.705C416.257 172.11 416.351 172.521 416.578 172.86V172.86Z" fill="#263238"/>
<path d="M417.606 176.557C417.624 176.789 417.71 177.01 417.852 177.194C417.995 177.378 418.187 177.517 418.407 177.593C418.627 177.669 418.864 177.68 419.089 177.623C419.315 177.567 419.519 177.446 419.677 177.275C419.835 177.105 419.94 176.892 419.979 176.663C420.018 176.433 419.99 176.198 419.897 175.984C419.804 175.771 419.651 175.59 419.457 175.462C419.263 175.334 419.035 175.266 418.803 175.265C418.639 175.27 418.478 175.308 418.329 175.376C418.18 175.444 418.046 175.541 417.935 175.661C417.824 175.782 417.737 175.923 417.681 176.076C417.624 176.23 417.599 176.394 417.606 176.557V176.557Z" fill="#263238"/>
<path d="M423.994 175.561L423.856 183.093L419.576 182.119L423.994 175.561Z" fill="#F28F8F"/>
<path d="M322.362 238.644L329.004 234.809L331.631 231.621L325 235.456L322.362 238.644Z" fill="#407BFF"/>
<path opacity="0.4" d="M322.362 238.644L329.004 234.809L331.631 231.621L325 235.456L322.362 238.644Z" fill="black"/>
<path d="M340.424 249.068L347.066 245.233L352.606 240.328L345.974 244.153L340.424 249.068Z" fill="#407BFF"/>
<path opacity="0.4" d="M340.424 249.068L347.066 245.233L352.606 240.328L345.974 244.153L340.424 249.068Z" fill="black"/>
<path d="M396.843 262.299C398.414 264.404 399.364 266.906 399.587 269.523C398.023 267.414 397.074 264.914 396.843 262.299V262.299ZM412.277 262.5C410.042 247.299 401.875 232.267 392.15 226.642C387.479 223.941 383.157 223.845 379.693 225.869L373.443 229.47L373.093 229.682C372.815 229.835 372.546 230.005 372.288 230.191C371.775 230.544 371.293 230.941 370.847 231.377L370.636 231.578C370.445 231.769 370.244 231.992 370.063 232.203C369.883 232.415 369.608 232.744 369.396 233.03C368.946 233.622 368.539 234.245 368.178 234.894C367.987 235.222 367.807 235.572 367.638 235.953L313.051 204.449L306.419 208.273V212.511L306.981 212.828L307.511 213.136V213.983L306.451 214.608V217.066L314.47 234.015L322.394 238.602L325.032 235.424L332.023 239.608L336.038 246.483L340.466 249.036L346.006 244.121L352.807 248.051L355.095 257.489L366.525 264.1C367.09 266.502 367.798 268.868 368.644 271.186C368.718 271.42 368.813 271.663 368.909 271.928C372.701 281.886 378.729 290.413 385.53 294.343C386.345 294.827 387.199 295.241 388.083 295.583C388.55 295.768 389.027 295.928 389.513 296.059C389.936 296.172 390.36 296.268 390.784 296.345C392.122 296.589 393.493 296.589 394.83 296.345L395.381 296.208C395.645 296.155 395.903 296.08 396.155 295.985L396.748 295.752C396.958 295.676 397.16 295.581 397.352 295.466C397.547 295.381 397.738 295.286 397.924 295.18L398.199 295.011C398.249 294.994 398.296 294.969 398.337 294.936C399.852 294.068 403.58 291.907 404.597 291.335C409.64 288.411 412.902 281.017 412.902 270.561C412.894 267.863 412.685 265.168 412.277 262.5V262.5Z" fill="#407BFF"/>
<path d="M394.905 275.127C392.277 273.612 390.159 269.121 390.159 265.095C390.159 261.07 392.277 259.025 394.905 260.53C397.532 262.034 399.64 266.536 399.64 270.572C399.64 274.608 397.521 276.642 394.905 275.127ZM405.636 266.324C403.411 251.133 395.244 236.091 385.508 230.477C380.996 227.871 376.822 227.68 373.432 229.47L373.083 229.682C372.804 229.835 372.535 230.005 372.277 230.191C371.764 230.544 371.282 230.941 370.837 231.377L370.625 231.578C370.434 231.769 370.233 231.992 370.053 232.203C369.873 232.415 369.597 232.744 369.386 233.03C368.936 233.622 368.529 234.245 368.167 234.894C367.977 235.222 367.797 235.572 367.627 235.953C366.639 238.001 365.927 240.17 365.508 242.405L306.409 208.273V212.511L306.97 212.828L307.5 213.136V213.983L306.441 214.608V217.066L314.46 234.015L322.383 238.602L325.021 235.424L332.013 239.608L336.027 246.483L340.455 249.036L345.996 244.121L352.797 248.051L355.085 257.489L366.525 264.1C367.09 266.502 367.798 268.868 368.644 271.186C368.718 271.419 368.813 271.663 368.909 271.928C372.701 281.886 378.729 290.413 385.53 294.343C386.345 294.827 387.199 295.241 388.083 295.583C388.55 295.768 389.027 295.928 389.513 296.059C389.936 296.172 390.36 296.268 390.784 296.345C392.122 296.589 393.493 296.589 394.83 296.345L395.381 296.208C395.645 296.155 395.903 296.08 396.155 295.985L396.748 295.752C396.958 295.676 397.16 295.581 397.352 295.466C397.547 295.381 397.738 295.286 397.924 295.18L398.199 295.011C398.249 294.994 398.296 294.969 398.337 294.936C403.167 291.886 406.271 284.597 406.271 274.396C406.253 271.694 406.041 268.996 405.636 266.324V266.324Z" fill="#407BFF"/>
<path opacity="0.4" d="M399.64 270.561C399.64 274.597 397.521 276.642 394.905 275.127C392.288 273.612 390.159 269.131 390.159 265.095C390.159 261.059 392.277 259.015 394.905 260.53C395.661 260.99 396.32 261.595 396.843 262.309C397.071 264.925 398.021 267.426 399.587 269.534C399.626 269.875 399.643 270.218 399.64 270.561V270.561Z" fill="black"/>
<path opacity="0.4" d="M412.881 270.551C412.881 281.006 409.619 288.4 404.576 291.324C403.517 291.896 399.83 294.057 398.316 294.926C403.146 291.875 406.25 284.587 406.25 274.386C406.239 271.687 406.033 268.993 405.636 266.324C403.411 251.133 395.244 236.091 385.508 230.477C380.996 227.871 376.822 227.68 373.432 229.47L379.682 225.869C383.146 223.845 387.468 223.941 392.14 226.642C401.875 232.267 410.042 247.299 412.267 262.5C412.67 265.165 412.876 267.856 412.881 270.551V270.551Z" fill="white"/>
<path d="M406.25 274.364C406.25 284.566 403.146 291.854 398.316 294.905C399.831 294.036 403.559 291.875 404.576 291.303C409.619 288.379 412.881 280.985 412.881 270.53C412.881 270.148 412.881 269.756 412.881 269.364L406.25 273.199C406.239 273.612 406.25 273.994 406.25 274.364Z" fill="#407BFF"/>
<path opacity="0.1" d="M406.25 274.364C406.25 284.566 403.146 291.854 398.316 294.905C399.831 294.036 403.559 291.875 404.576 291.303C409.619 288.379 412.881 280.985 412.881 270.53C412.881 270.148 412.881 269.756 412.881 269.364L406.25 273.199C406.239 273.612 406.25 273.994 406.25 274.364Z" fill="black"/>
<path opacity="0.15" d="M365.763 246.737V248.888L306.419 214.629L307.511 213.994V213.104L365.763 246.737Z" fill="black"/>
<path opacity="0.15" d="M365.763 247.627V248.888L306.419 214.629L307.511 213.994V213.983L365.763 247.627Z" fill="black"/>
<path opacity="0.15" d="M391.568 291.314C389.319 291.255 387.125 290.601 385.212 289.417C375.54 283.835 367.669 267.225 367.669 252.394C367.669 243.739 370.286 237.278 374.852 234.64C378.03 232.797 381.79 233.03 385.742 235.307C395.403 240.89 403.273 257.553 403.273 272.383C403.273 281.028 400.657 287.5 396.091 290.127C394.714 290.914 393.154 291.323 391.568 291.314ZM379.439 234.481C378.027 234.473 376.638 234.839 375.413 235.54C371.25 237.945 368.761 244.248 368.761 252.383C368.761 266.875 376.388 283.104 385.773 288.485C389.364 290.604 392.765 290.794 395.593 289.163C399.756 286.758 402.246 280.466 402.246 272.33C402.246 257.828 394.619 241.61 385.244 236.218C383.491 235.152 381.489 234.568 379.439 234.523V234.481Z" fill="black"/>
<path opacity="0.4" d="M367.585 235.932C366.597 237.98 365.885 240.149 365.466 242.383L306.366 208.252L312.998 204.428L367.585 235.932Z" fill="white"/>
<path d="M444.396 239.248C447.489 233.39 451.027 220.233 452.786 213.591C455.286 204.163 451.239 198.231 446.642 197.987C443.771 198.432 434.311 232.828 434.311 232.828C433.252 233.665 418.877 240.964 414.258 242.797C413.432 243.109 412.521 243.109 411.695 242.797C409.481 241.992 407.966 242.14 405.794 241.928C404.089 241.758 403.231 241.155 403.008 241.515C402.806 241.962 402.78 242.469 402.936 242.934C403.091 243.399 403.416 243.789 403.845 244.025C404.78 244.57 405.776 245.004 406.811 245.318C404.955 245.881 403.02 246.142 401.08 246.091C396.631 245.996 395.032 247.924 398.485 252.447C400.604 255.265 404.11 256.155 411.939 253.453C414.184 252.67 417.235 251.155 420.085 250.127C425.953 248.008 427.5 247.754 431.97 246.239C438.485 244.036 443.019 241.854 444.396 239.248Z" fill="#FFA8A7"/>
<path d="M444.915 197.097C447.616 197.468 450.212 198.072 451.811 200.275C453.411 202.479 454.693 205.572 453.125 213.994C451.924 219.916 450.317 225.749 448.316 231.451C448.316 231.451 442.023 234.142 435.339 227.32L439.936 209.544C439.936 209.544 440.678 197.987 444.915 197.097Z" fill="#455A64"/>
</svg>
