<svg width="970" height="245" viewBox="0 0 970 245" fill="none" xmlns="http://www.w3.org/2000/svg">
<g clip-path="url(#clip0)">
<path d="M304.4 176.2C293.6 176.2 283.933 173.867 275.4 169.2C267 164.533 260.4 158.133 255.6 150C250.8 141.733 248.4 132.4 248.4 122C248.4 111.6 250.8 102.333 255.6 94.2C260.4 85.9333 267 79.5333 275.4 75C283.933 70.3333 293.6 68 304.4 68C314 68 322.533 69.9333 330 73.8C337.6 77.6667 343.467 83.2667 347.6 90.6L333 100C329.667 94.9333 325.533 91.1333 320.6 88.6C315.667 86.0667 310.2 84.8 304.2 84.8C297.267 84.8 291 86.3333 285.4 89.4C279.933 92.4667 275.6 96.8667 272.4 102.6C269.333 108.2 267.8 114.667 267.8 122C267.8 129.467 269.333 136.067 272.4 141.8C275.6 147.4 279.933 151.733 285.4 154.8C291 157.867 297.267 159.4 304.2 159.4C310.2 159.4 315.667 158.133 320.6 155.6C325.533 153.067 329.667 149.267 333 144.2L347.6 153.4C343.467 160.733 337.6 166.4 330 170.4C322.533 174.267 314 176.2 304.4 176.2ZM471.258 69V175H453.058V159C449.191 164.467 444.058 168.733 437.658 171.8C431.391 174.733 424.524 176.2 417.058 176.2C402.924 176.2 391.791 172.333 383.658 164.6C375.524 156.733 371.458 145.2 371.458 130V69H390.658V127.8C390.658 138.067 393.124 145.867 398.058 151.2C402.991 156.4 410.058 159 419.258 159C429.391 159 437.391 155.933 443.258 149.8C449.124 143.667 452.058 135 452.058 123.8V69H471.258ZM526.209 86.8C529.543 80.6667 534.476 76 541.009 72.8C547.543 69.6 555.476 68 564.809 68V86.6C563.743 86.4667 562.276 86.4 560.409 86.4C550.009 86.4 541.809 89.5333 535.809 95.8C529.943 101.933 527.009 110.733 527.009 122.2V175H507.809V69H526.209V86.8ZM626.878 68C641.545 68 652.745 71.6 660.478 78.8C668.345 86 672.278 96.7333 672.278 111V175H654.078V161C650.878 165.933 646.278 169.733 640.278 172.4C634.411 174.933 627.411 176.2 619.278 176.2C607.411 176.2 597.878 173.333 590.678 167.6C583.611 161.867 580.078 154.333 580.078 145C580.078 135.667 583.478 128.2 590.278 122.6C597.078 116.867 607.878 114 622.678 114H653.078V110.2C653.078 101.933 650.678 95.6 645.878 91.2C641.078 86.8 634.011 84.6 624.678 84.6C618.411 84.6 612.278 85.6667 606.278 87.8C600.278 89.8 595.211 92.5333 591.078 96L583.078 81.6C588.545 77.2 595.078 73.8667 602.678 71.6C610.278 69.2 618.345 68 626.878 68ZM622.478 161.4C629.811 161.4 636.145 159.8 641.478 156.6C646.811 153.267 650.678 148.6 653.078 142.6V127.8H623.478C607.211 127.8 599.078 133.267 599.078 144.2C599.078 149.533 601.145 153.733 605.278 156.8C609.411 159.867 615.145 161.4 622.478 161.4ZM764.009 68C774.276 68 783.476 70.2667 791.609 74.8C799.743 79.3333 806.076 85.6667 810.609 93.8C815.276 101.933 817.609 111.333 817.609 122C817.609 132.667 815.276 142.133 810.609 150.4C806.076 158.533 799.743 164.867 791.609 169.4C783.476 173.933 774.276 176.2 764.009 176.2C756.143 176.2 748.943 174.667 742.409 171.6C735.876 168.533 730.476 164.067 726.209 158.2V175H707.809V26.6H727.009V85C731.276 79.4 736.609 75.2 743.009 72.4C749.409 69.4667 756.409 68 764.009 68ZM762.409 159.4C769.209 159.4 775.276 157.867 780.609 154.8C786.076 151.6 790.343 147.2 793.409 141.6C796.609 135.867 798.209 129.333 798.209 122C798.209 114.667 796.609 108.2 793.409 102.6C790.343 96.8667 786.076 92.4667 780.609 89.4C775.276 86.3333 769.209 84.8 762.409 84.8C755.743 84.8 749.676 86.3333 744.209 89.4C738.743 92.4667 734.476 96.8667 731.409 102.6C728.343 108.2 726.809 114.667 726.809 122C726.809 129.333 728.343 135.867 731.409 141.6C734.476 147.2 738.743 151.6 744.209 154.8C749.676 157.867 755.743 159.4 762.409 159.4ZM844.138 69H863.338V175H844.138V69ZM853.738 48.6C850.004 48.6 846.871 47.4 844.338 45C841.938 42.6 840.738 39.6667 840.738 36.2C840.738 32.7333 841.938 29.8 844.338 27.4C846.871 24.8667 850.004 23.6 853.738 23.6C857.471 23.6 860.538 24.8 862.938 27.2C865.471 29.4667 866.738 32.3333 866.738 35.8C866.738 39.4 865.471 42.4667 862.938 45C860.538 47.4 857.471 48.6 853.738 48.6ZM959.597 168.8C956.797 171.2 953.33 173.067 949.197 174.4C945.064 175.6 940.797 176.2 936.397 176.2C925.73 176.2 917.464 173.333 911.597 167.6C905.73 161.867 902.797 153.667 902.797 143V84.8H884.797V69H902.797V45.8H921.997V69H952.397V84.8H921.997V142.2C921.997 147.933 923.397 152.333 926.197 155.4C929.13 158.467 933.264 160 938.597 160C944.464 160 949.464 158.333 953.597 155L959.597 168.8Z" fill="#03045E"/>
<path d="M74.2212 161.128C72.8492 167.253 69.7132 173.427 62.8532 176.22C55.9932 179.013 50.6032 182.541 46.7812 186.216L55.1112 182.835L53.8372 185.971C66.6311 184.238 76.7501 188.932 74.2212 161.128Z" fill="#90E0EF"/>
<path d="M147.084 53.8177C226.645 94.4191 188.594 75.0009 199.318 80.4737C196.133 36.4227 157.521 22.4577 137.725 18.1457C140.518 21.6247 143.801 26.0837 147.77 31.7677C152.889 39.2186 149.778 46.6387 147.084 53.8177Z" fill="#00B4D8"/>
<path d="M172.564 196.016C186.525 199.898 210.876 200.63 225.386 211.304C209.951 196.751 197.995 142.655 193.291 121.144C188.176 146.189 171.419 152.834 152.719 143.831C134.344 135.011 138.362 109.09 140.763 98.8977L136.794 93.8507C136.451 113.206 140.518 146.967 149.191 171.369C154.973 187.686 161.98 193.076 172.564 196.016Z" fill="#00B4D8"/>
<path d="M41.7338 196.212C25.4663 202.827 7.72777 222.427 4.88577 240.165H30.5128L30.3658 239.038L30.5128 238.205C30.7583 236.931 36.1483 209.981 41.7338 196.212Z" fill="#90E0EF"/>
<path d="M142.282 173.819C131.845 144.419 127.925 102.916 129.885 85.1777L128.023 82.7767C121.065 91.4497 111.02 95.9577 98.8683 95.9577C87.4023 95.9577 77.8174 92.1871 65.9893 87.6277L65.7443 93.6547L58.8843 91.4987C58.9333 97.1827 59.1783 103.504 59.9623 105.954C59.9623 105.954 58.5413 116.93 55.8463 120.801C53.1023 124.672 49.0843 131.434 60.6483 139.323C72.2123 147.261 80.1503 146.232 81.7183 162.255C83.5739 181.984 76.7693 177.047 76.7693 195.183C75.2503 197.976 67.8023 217.135 69.1253 239.724L69.1743 240.165H151.249L165.41 201.357C154.238 196.849 147.525 188.715 142.282 173.819Z" fill="#00B4D8"/>
<path d="M225.729 211.598L221.025 217.233C214.45 212.406 207.233 210.92 204.708 210.079C198.895 219 195.97 236.371 195.104 240.165H240.086C240.086 240.165 241.409 223.309 225.729 211.598Z" fill="#90E0EF"/>
<path d="M118.664 34.4627C125.72 34.4627 131.453 40.1957 131.453 47.2517C131.453 54.3077 125.72 59.9917 118.664 59.9917C111.608 59.9917 105.875 54.3077 105.875 47.2517C105.875 45.8307 106.12 44.4587 106.561 43.1847L88.6763 69.7917L35.7563 77.5827L47.1733 84.7367C52.4295 87.9908 56.2044 82.9349 58.7863 83.7567C59.0313 78.6607 60.5013 78.4157 63.5393 78.9547C84.5818 87.8222 108.801 95.7671 122.682 77.6317C137.872 57.8357 146.692 43.0867 141.743 35.9817C138.019 30.5917 130.522 20.1547 125.328 15.2547L110.334 37.5987C112.588 35.6387 115.479 34.4627 118.664 34.4627Z" fill="#03045E"/>
<path d="M174.818 83.0217C177.17 84.6877 188.048 93.0667 190.939 106.444L193.389 108.404C194.146 106.322 198.09 99.3039 199.465 88.8522L160.51 68.9097L174.818 83.0217Z" fill="#00B4D8"/>
<path d="M155.904 137.216C172.613 145.202 183.001 137.264 186.382 118.057C189.763 98.8492 171.682 86.7947 171.682 86.7947L142.282 57.7867C139.391 62.8827 135.618 68.5177 130.963 74.6917L148.799 97.2317C148.799 97.2317 139.195 129.18 155.904 137.216Z" fill="#0077B6"/>
<path d="M170.016 202.974L156.492 240.165H190.204C191.831 230.067 194.986 217.161 199.71 208.903C187.461 206.027 182.611 206.127 170.016 202.974Z" fill="#90E0EF"/>
<path d="M70.5198 191.316C70.4355 191.343 54.4056 193.107 48.0832 194.294C42.0547 205.048 35.3309 239.153 35.3309 239.153C35.3309 239.153 35.3843 239.528 35.4735 240.17H61.7801C60.193 213.417 69.9489 191.708 70.5198 191.316Z" fill="#90E0EF"/>
<path d="M22.7223 58.5217L28.7983 73.6627L85.8343 65.2347L121.163 12.6577L105.63 5.45468C105.581 5.40568 105.581 5.40568 105.581 5.40568L104.699 5.01368C104.16 4.81768 103.523 4.76868 102.886 4.91568L51.4853 16.1367C50.6523 16.2837 49.9173 16.7737 49.4273 17.4597L22.7223 54.4547C22.1833 55.1897 21.9873 55.9737 22.0363 56.7577L22.0853 56.8067C22.1338 57.4437 22.3303 58.0317 22.7223 58.5217Z" fill="#03045E"/>
<path d="M126.57 47.2433C126.57 42.9093 123.032 39.371 118.668 39.371C114.334 39.371 110.796 42.9093 110.796 47.2433C110.796 51.5774 114.334 55.1157 118.668 55.1157C123.032 55.1157 126.57 51.5774 126.57 47.2433Z" fill="#03045E"/>
<path d="M606.4 199.24C604.107 199.24 602.96 200.48 602.96 202.96V204.8H609.12V207.96H603.04V226H599.2V207.96H595.6V204.8H599.2V202.92C599.2 200.813 599.813 199.147 601.04 197.92C602.267 196.693 603.987 196.08 606.2 196.08C607.053 196.08 607.853 196.187 608.6 196.4C609.347 196.613 609.987 196.92 610.52 197.32L609.36 200.24C608.48 199.573 607.493 199.24 606.4 199.24ZM621.509 226.24C619.402 226.24 617.509 225.773 615.829 224.84C614.149 223.907 612.829 222.627 611.869 221C610.936 219.347 610.469 217.48 610.469 215.4C610.469 213.32 610.936 211.467 611.869 209.84C612.829 208.187 614.149 206.907 615.829 206C617.509 205.067 619.402 204.6 621.509 204.6C623.616 204.6 625.496 205.067 627.149 206C628.829 206.907 630.136 208.187 631.069 209.84C632.029 211.467 632.509 213.32 632.509 215.4C632.509 217.48 632.029 219.347 631.069 221C630.136 222.627 628.829 223.907 627.149 224.84C625.496 225.773 623.616 226.24 621.509 226.24ZM621.509 222.88C622.869 222.88 624.082 222.573 625.149 221.96C626.242 221.32 627.096 220.44 627.709 219.32C628.322 218.173 628.629 216.867 628.629 215.4C628.629 213.933 628.322 212.64 627.709 211.52C627.096 210.373 626.242 209.493 625.149 208.88C624.082 208.267 622.869 207.96 621.509 207.96C620.149 207.96 618.922 208.267 617.829 208.88C616.762 209.493 615.909 210.373 615.269 211.52C614.656 212.64 614.349 213.933 614.349 215.4C614.349 216.867 614.656 218.173 615.269 219.32C615.909 220.44 616.762 221.32 617.829 221.96C618.922 222.573 620.149 222.88 621.509 222.88ZM641.5 208.36C642.166 207.133 643.153 206.2 644.46 205.56C645.766 204.92 647.353 204.6 649.22 204.6V208.32C649.006 208.293 648.713 208.28 648.34 208.28C646.26 208.28 644.62 208.907 643.42 210.16C642.246 211.387 641.66 213.147 641.66 215.44V226H637.82V204.8H641.5V208.36ZM672.688 204.6C675.621 204.6 677.861 205.32 679.408 206.76C680.981 208.2 681.768 210.347 681.768 213.2V226H678.128V223.2C677.488 224.187 676.568 224.947 675.368 225.48C674.195 225.987 672.795 226.24 671.168 226.24C668.795 226.24 666.888 225.667 665.448 224.52C664.035 223.373 663.328 221.867 663.328 220C663.328 218.133 664.008 216.64 665.368 215.52C666.728 214.373 668.888 213.8 671.848 213.8H677.928V213.04C677.928 211.387 677.448 210.12 676.488 209.24C675.528 208.36 674.115 207.92 672.248 207.92C670.995 207.92 669.768 208.133 668.568 208.56C667.368 208.96 666.355 209.507 665.528 210.2L663.928 207.32C665.021 206.44 666.328 205.773 667.848 205.32C669.368 204.84 670.981 204.6 672.688 204.6ZM671.808 223.28C673.275 223.28 674.541 222.96 675.608 222.32C676.675 221.653 677.448 220.72 677.928 219.52V216.56H672.008C668.755 216.56 667.128 217.653 667.128 219.84C667.128 220.907 667.541 221.747 668.368 222.36C669.195 222.973 670.341 223.28 671.808 223.28ZM710.857 204.6C712.91 204.6 714.75 205.053 716.377 205.96C718.003 206.867 719.27 208.133 720.177 209.76C721.11 211.387 721.577 213.267 721.577 215.4C721.577 217.533 721.11 219.427 720.177 221.08C719.27 222.707 718.003 223.973 716.377 224.88C714.75 225.787 712.91 226.24 710.857 226.24C709.283 226.24 707.843 225.933 706.537 225.32C705.23 224.707 704.15 223.813 703.297 222.64V226H699.617V196.32H703.457V208C704.31 206.88 705.377 206.04 706.657 205.48C707.937 204.893 709.337 204.6 710.857 204.6ZM710.537 222.88C711.897 222.88 713.11 222.573 714.177 221.96C715.27 221.32 716.123 220.44 716.737 219.32C717.377 218.173 717.697 216.867 717.697 215.4C717.697 213.933 717.377 212.64 716.737 211.52C716.123 210.373 715.27 209.493 714.177 208.88C713.11 208.267 711.897 207.96 710.537 207.96C709.203 207.96 707.99 208.267 706.897 208.88C705.803 209.493 704.95 210.373 704.337 211.52C703.723 212.64 703.417 213.933 703.417 215.4C703.417 216.867 703.723 218.173 704.337 219.32C704.95 220.44 705.803 221.32 706.897 221.96C707.99 222.573 709.203 222.88 710.537 222.88ZM746.042 215.52C746.042 215.813 746.016 216.2 745.962 216.68H728.762C729.002 218.547 729.816 220.053 731.202 221.2C732.616 222.32 734.362 222.88 736.442 222.88C738.976 222.88 741.016 222.027 742.562 220.32L744.682 222.8C743.722 223.92 742.522 224.773 741.082 225.36C739.669 225.947 738.082 226.24 736.322 226.24C734.082 226.24 732.096 225.787 730.362 224.88C728.629 223.947 727.282 222.653 726.322 221C725.389 219.347 724.922 217.48 724.922 215.4C724.922 213.347 725.376 211.493 726.282 209.84C727.216 208.187 728.482 206.907 730.082 206C731.709 205.067 733.536 204.6 735.562 204.6C737.589 204.6 739.389 205.067 740.962 206C742.562 206.907 743.802 208.187 744.682 209.84C745.589 211.493 746.042 213.387 746.042 215.52ZM735.562 207.84C733.722 207.84 732.176 208.4 730.922 209.52C729.696 210.64 728.976 212.107 728.762 213.92H742.362C742.149 212.133 741.416 210.68 740.162 209.56C738.936 208.413 737.402 207.84 735.562 207.84ZM763.294 224.76C762.734 225.24 762.041 225.613 761.214 225.88C760.388 226.12 759.534 226.24 758.654 226.24C756.521 226.24 754.868 225.667 753.694 224.52C752.521 223.373 751.934 221.733 751.934 219.6V207.96H748.334V204.8H751.934V200.16H755.774V204.8H761.854V207.96H755.774V219.44C755.774 220.587 756.054 221.467 756.614 222.08C757.201 222.693 758.028 223 759.094 223C760.268 223 761.268 222.667 762.094 222L763.294 224.76ZM779.349 224.76C778.789 225.24 778.096 225.613 777.269 225.88C776.442 226.12 775.589 226.24 774.709 226.24C772.576 226.24 770.922 225.667 769.749 224.52C768.576 223.373 767.989 221.733 767.989 219.6V207.96H764.389V204.8H767.989V200.16H771.829V204.8H777.909V207.96H771.829V219.44C771.829 220.587 772.109 221.467 772.669 222.08C773.256 222.693 774.082 223 775.149 223C776.322 223 777.322 222.667 778.149 222L779.349 224.76ZM802.448 215.52C802.448 215.813 802.422 216.2 802.368 216.68H785.168C785.408 218.547 786.222 220.053 787.608 221.2C789.022 222.32 790.768 222.88 792.848 222.88C795.382 222.88 797.422 222.027 798.968 220.32L801.088 222.8C800.128 223.92 798.928 224.773 797.488 225.36C796.075 225.947 794.488 226.24 792.728 226.24C790.488 226.24 788.502 225.787 786.768 224.88C785.035 223.947 783.688 222.653 782.728 221C781.795 219.347 781.328 217.48 781.328 215.4C781.328 213.347 781.782 211.493 782.688 209.84C783.622 208.187 784.888 206.907 786.488 206C788.115 205.067 789.942 204.6 791.968 204.6C793.995 204.6 795.795 205.067 797.368 206C798.968 206.907 800.208 208.187 801.088 209.84C801.995 211.493 802.448 213.387 802.448 215.52ZM791.968 207.84C790.128 207.84 788.582 208.4 787.328 209.52C786.102 210.64 785.382 212.107 785.168 213.92H798.768C798.555 212.133 797.822 210.68 796.568 209.56C795.342 208.413 793.808 207.84 791.968 207.84ZM811.461 208.36C812.127 207.133 813.114 206.2 814.421 205.56C815.727 204.92 817.314 204.6 819.181 204.6V208.32C818.967 208.293 818.674 208.28 818.301 208.28C816.221 208.28 814.581 208.907 813.381 210.16C812.207 211.387 811.621 213.147 811.621 215.44V226H807.781V204.8H811.461V208.36ZM838.609 208.36C839.276 207.133 840.262 206.2 841.569 205.56C842.876 204.92 844.462 204.6 846.329 204.6V208.32C846.116 208.293 845.822 208.28 845.449 208.28C843.369 208.28 841.729 208.907 840.529 210.16C839.356 211.387 838.769 213.147 838.769 215.44V226H834.929V204.8H838.609V208.36ZM870.027 215.52C870.027 215.813 870 216.2 869.947 216.68H852.747C852.987 218.547 853.8 220.053 855.187 221.2C856.6 222.32 858.347 222.88 860.427 222.88C862.96 222.88 865 222.027 866.547 220.32L868.667 222.8C867.707 223.92 866.507 224.773 865.067 225.36C863.653 225.947 862.067 226.24 860.307 226.24C858.067 226.24 856.08 225.787 854.347 224.88C852.613 223.947 851.267 222.653 850.307 221C849.373 219.347 848.907 217.48 848.907 215.4C848.907 213.347 849.36 211.493 850.267 209.84C851.2 208.187 852.467 206.907 854.067 206C855.693 205.067 857.52 204.6 859.547 204.6C861.573 204.6 863.373 205.067 864.947 206C866.547 206.907 867.787 208.187 868.667 209.84C869.573 211.493 870.027 213.387 870.027 215.52ZM859.547 207.84C857.707 207.84 856.16 208.4 854.907 209.52C853.68 210.64 852.96 212.107 852.747 213.92H866.347C866.133 212.133 865.4 210.68 864.147 209.56C862.92 208.413 861.387 207.84 859.547 207.84ZM882.493 204.6C885.426 204.6 887.666 205.32 889.213 206.76C890.786 208.2 891.573 210.347 891.573 213.2V226H887.933V223.2C887.293 224.187 886.373 224.947 885.173 225.48C883.999 225.987 882.599 226.24 880.973 226.24C878.599 226.24 876.693 225.667 875.253 224.52C873.839 223.373 873.133 221.867 873.133 220C873.133 218.133 873.813 216.64 875.173 215.52C876.533 214.373 878.693 213.8 881.653 213.8H887.733V213.04C887.733 211.387 887.253 210.12 886.293 209.24C885.333 208.36 883.919 207.92 882.053 207.92C880.799 207.92 879.573 208.133 878.373 208.56C877.173 208.96 876.159 209.507 875.333 210.2L873.733 207.32C874.826 206.44 876.133 205.773 877.653 205.32C879.173 204.84 880.786 204.6 882.493 204.6ZM881.613 223.28C883.079 223.28 884.346 222.96 885.413 222.32C886.479 221.653 887.253 220.72 887.733 219.52V216.56H881.813C878.559 216.56 876.933 217.653 876.933 219.84C876.933 220.907 877.346 221.747 878.173 222.36C878.999 222.973 880.146 223.28 881.613 223.28ZM898.679 196.32H902.519V226H898.679V196.32ZM909.851 204.8H913.691V226H909.851V204.8ZM911.771 200.72C911.024 200.72 910.398 200.48 909.891 200C909.411 199.52 909.171 198.933 909.171 198.24C909.171 197.547 909.411 196.96 909.891 196.48C910.398 195.973 911.024 195.72 911.771 195.72C912.518 195.72 913.131 195.96 913.611 196.44C914.118 196.893 914.371 197.467 914.371 198.16C914.371 198.88 914.118 199.493 913.611 200C913.131 200.48 912.518 200.72 911.771 200.72ZM932.943 224.76C932.383 225.24 931.689 225.613 930.863 225.88C930.036 226.12 929.183 226.24 928.303 226.24C926.169 226.24 924.516 225.667 923.343 224.52C922.169 223.373 921.583 221.733 921.583 219.6V207.96H917.983V204.8H921.583V200.16H925.423V204.8H931.503V207.96H925.423V219.44C925.423 220.587 925.703 221.467 926.263 222.08C926.849 222.693 927.676 223 928.743 223C929.916 223 930.916 222.667 931.743 222L932.943 224.76ZM955.955 204.8L945.675 228.12C944.768 230.28 943.701 231.8 942.475 232.68C941.275 233.56 939.821 234 938.115 234C937.075 234 936.061 233.827 935.075 233.48C934.115 233.16 933.315 232.68 932.675 232.04L934.315 229.16C935.408 230.2 936.675 230.72 938.115 230.72C939.048 230.72 939.821 230.467 940.435 229.96C941.075 229.48 941.648 228.64 942.155 227.44L942.835 225.96L933.475 204.8H937.475L944.875 221.76L952.195 204.8H955.955Z" fill="#00B4D8"/>
</g>
<defs>
<clipPath id="clip0">
<rect width="970" height="245" fill="white"/>
</clipPath>
</defs>
</svg>