<svg width="931" height="195" viewBox="0 0 931 195" fill="none" xmlns="http://www.w3.org/2000/svg">
<path d="M270.4 175.2C259.6 175.2 249.933 172.867 241.4 168.2C233 163.533 226.4 157.133 221.6 149C216.8 140.733 214.4 131.4 214.4 121C214.4 110.6 216.8 101.333 221.6 93.2C226.4 84.9333 233 78.5333 241.4 74C249.933 69.3333 259.6 67 270.4 67C280 67 288.533 68.9333 296 72.8C303.6 76.6667 309.467 82.2667 313.6 89.6L299 99C295.667 93.9333 291.533 90.1333 286.6 87.6C281.667 85.0667 276.2 83.8 270.2 83.8C263.267 83.8 257 85.3333 251.4 88.4C245.933 91.4667 241.6 95.8667 238.4 101.6C235.333 107.2 233.8 113.667 233.8 121C233.8 128.467 235.333 135.067 238.4 140.8C241.6 146.4 245.933 150.733 251.4 153.8C257 156.867 263.267 158.4 270.2 158.4C276.2 158.4 281.667 157.133 286.6 154.6C291.533 152.067 295.667 148.267 299 143.2L313.6 152.4C309.467 159.733 303.6 165.4 296 169.4C288.533 173.267 280 175.2 270.4 175.2ZM437.258 68V174H419.058V158C415.191 163.467 410.058 167.733 403.658 170.8C397.391 173.733 390.524 175.2 383.058 175.2C368.924 175.2 357.791 171.333 349.658 163.6C341.524 155.733 337.458 144.2 337.458 129V68H356.658V126.8C356.658 137.067 359.124 144.867 364.058 150.2C368.991 155.4 376.058 158 385.258 158C395.391 158 403.391 154.933 409.258 148.8C415.124 142.667 418.058 134 418.058 122.8V68H437.258ZM492.209 85.8C495.543 79.6667 500.476 75 507.009 71.8C513.543 68.6 521.476 67 530.809 67V85.6C529.743 85.4667 528.276 85.4 526.409 85.4C516.009 85.4 507.809 88.5333 501.809 94.8C495.943 100.933 493.009 109.733 493.009 121.2V174H473.809V68H492.209V85.8ZM592.878 67C607.545 67 618.745 70.6 626.478 77.8C634.345 85 638.278 95.7333 638.278 110V174H620.078V160C616.878 164.933 612.278 168.733 606.278 171.4C600.411 173.933 593.411 175.2 585.278 175.2C573.411 175.2 563.878 172.333 556.678 166.6C549.611 160.867 546.078 153.333 546.078 144C546.078 134.667 549.478 127.2 556.278 121.6C563.078 115.867 573.878 113 588.678 113H619.078V109.2C619.078 100.933 616.678 94.6 611.878 90.2C607.078 85.8 600.011 83.6 590.678 83.6C584.411 83.6 578.278 84.6667 572.278 86.8C566.278 88.8 561.211 91.5333 557.078 95L549.078 80.6C554.545 76.2 561.078 72.8667 568.678 70.6C576.278 68.2 584.345 67 592.878 67ZM588.478 160.4C595.811 160.4 602.145 158.8 607.478 155.6C612.811 152.267 616.678 147.6 619.078 141.6V126.8H589.478C573.211 126.8 565.078 132.267 565.078 143.2C565.078 148.533 567.145 152.733 571.278 155.8C575.411 158.867 581.145 160.4 588.478 160.4ZM730.009 67C740.276 67 749.476 69.2667 757.609 73.8C765.743 78.3333 772.076 84.6667 776.609 92.8C781.276 100.933 783.609 110.333 783.609 121C783.609 131.667 781.276 141.133 776.609 149.4C772.076 157.533 765.743 163.867 757.609 168.4C749.476 172.933 740.276 175.2 730.009 175.2C722.143 175.2 714.943 173.667 708.409 170.6C701.876 167.533 696.476 163.067 692.209 157.2V174H673.809V25.6H693.009V84C697.276 78.4 702.609 74.2 709.009 71.4C715.409 68.4667 722.409 67 730.009 67ZM728.409 158.4C735.209 158.4 741.276 156.867 746.609 153.8C752.076 150.6 756.343 146.2 759.409 140.6C762.609 134.867 764.209 128.333 764.209 121C764.209 113.667 762.609 107.2 759.409 101.6C756.343 95.8667 752.076 91.4667 746.609 88.4C741.276 85.3333 735.209 83.8 728.409 83.8C721.743 83.8 715.676 85.3333 710.209 88.4C704.743 91.4667 700.476 95.8667 697.409 101.6C694.343 107.2 692.809 113.667 692.809 121C692.809 128.333 694.343 134.867 697.409 140.6C700.476 146.2 704.743 150.6 710.209 153.8C715.676 156.867 721.743 158.4 728.409 158.4ZM810.138 68H829.338V174H810.138V68ZM819.738 47.6C816.004 47.6 812.871 46.4 810.338 44C807.938 41.6 806.738 38.6667 806.738 35.2C806.738 31.7333 807.938 28.8 810.338 26.4C812.871 23.8667 816.004 22.6 819.738 22.6C823.471 22.6 826.538 23.8 828.938 26.2C831.471 28.4667 832.738 31.3333 832.738 34.8C832.738 38.4 831.471 41.4667 828.938 44C826.538 46.4 823.471 47.6 819.738 47.6ZM925.597 167.8C922.797 170.2 919.33 172.067 915.197 173.4C911.064 174.6 906.797 175.2 902.397 175.2C891.73 175.2 883.464 172.333 877.597 166.6C871.73 160.867 868.797 152.667 868.797 142V83.8H850.797V68H868.797V44.8H887.997V68H918.397V83.8H887.997V141.2C887.997 146.933 889.397 151.333 892.197 154.4C895.13 157.467 899.264 159 904.597 159C910.464 159 915.464 157.333 919.597 154L925.597 167.8Z" fill="#03045E"/>
<path d="M59.0741 128.244C57.9821 133.119 55.4861 138.033 50.0261 140.256C44.5661 142.479 40.2761 145.287 37.2341 148.212L43.8641 145.521L42.8501 148.017C53.033 146.638 61.0869 150.375 59.0741 128.244Z" fill="#90E0EF"/>
<path d="M117.067 42.8345C180.391 75.1499 150.105 59.6946 158.641 64.0505C156.106 28.9895 125.374 17.8745 109.618 14.4425C111.841 17.2115 114.454 20.7605 117.613 25.2845C121.687 31.2148 119.211 37.1206 117.067 42.8345Z" fill="#00B4D8"/>
<path d="M137.347 156.012C148.459 159.102 167.84 159.685 179.389 168.18C167.104 156.597 157.588 113.541 153.844 96.4205C149.773 116.354 136.436 121.644 121.552 114.477C106.927 107.457 110.125 86.8265 112.036 78.7145L108.877 74.6975C108.604 90.1025 111.841 116.973 118.744 136.395C123.346 149.382 128.923 153.672 137.347 156.012Z" fill="#00B4D8"/>
<path d="M33.2167 156.168C20.2691 161.433 6.1507 177.033 3.8887 191.151H24.2857L24.1687 190.254L24.2857 189.591C24.4811 188.577 28.7711 167.127 33.2167 156.168Z" fill="#90E0EF"/>
<path d="M113.245 138.345C104.938 114.945 101.818 81.9125 103.378 67.7945L101.896 65.8835C96.3581 72.7865 88.3631 76.3745 78.6911 76.3745C69.5651 76.3745 61.9363 73.3734 52.5221 69.7445L52.3271 74.5415L46.8671 72.8255C46.9061 77.3495 47.1011 82.3805 47.7251 84.3305C47.7251 84.3305 46.5941 93.0665 44.4491 96.1475C42.2651 99.2285 39.0671 104.61 48.2711 110.889C57.4751 117.207 63.7931 116.388 65.0411 129.141C66.518 144.844 61.1021 140.915 61.1021 155.349C59.8931 157.572 53.9651 172.821 55.0181 190.8L55.0571 191.151H120.382L131.653 160.263C122.761 156.675 117.418 150.201 113.245 138.345Z" fill="#00B4D8"/>
<path d="M179.662 168.414L175.918 172.899C170.685 169.058 164.94 167.875 162.931 167.205C158.305 174.306 155.976 188.132 155.287 191.151H191.089C191.089 191.151 192.142 177.735 179.662 168.414Z" fill="#90E0EF"/>
<path d="M94.4471 27.4295C100.063 27.4295 104.626 31.9925 104.626 37.6085C104.626 43.2245 100.063 47.7485 94.4471 47.7485C88.8311 47.7485 84.2681 43.2245 84.2681 37.6085C84.2681 36.4775 84.4631 35.3855 84.8141 34.3715L70.5791 55.5485L28.4591 61.7495L37.5461 67.4435C41.7296 70.0335 44.7342 66.0094 46.7891 66.6635C46.9841 62.6075 48.1541 62.4125 50.5721 62.8415C67.3202 69.8993 86.5968 76.2228 97.6451 61.7885C109.735 46.0325 116.755 34.2935 112.816 28.6385C109.852 24.3485 103.885 16.0415 99.7511 12.1415L87.8171 29.9255C89.6111 28.3655 91.9121 27.4295 94.4471 27.4295Z" fill="#03045E"/>
<path d="M139.141 66.0785C141.013 67.4045 149.671 74.0735 151.972 84.7205L153.922 86.2805C154.525 84.6238 157.664 79.0378 158.758 70.7191L127.753 54.8465L139.141 66.0785Z" fill="#00B4D8"/>
<path d="M124.087 109.212C137.386 115.569 145.654 109.251 148.345 93.9635C151.036 78.6759 136.645 69.0815 136.645 69.0815L113.245 45.9935C110.944 50.0495 107.941 54.5345 104.236 59.4485L118.432 77.3885C118.432 77.3885 110.788 102.816 124.087 109.212Z" fill="#0077B6"/>
<path d="M135.319 161.55L124.555 191.151H151.387C152.681 183.115 155.193 172.842 158.953 166.269C149.204 163.981 145.344 164.061 135.319 161.55Z" fill="#90E0EF"/>
<path d="M56.128 152.272C56.0609 152.293 43.3025 153.697 38.2703 154.642C33.4722 163.202 28.1206 190.346 28.1206 190.346C28.1206 190.346 28.1631 190.644 28.2341 191.155H49.172C47.9088 169.863 55.6737 152.584 56.128 152.272Z" fill="#90E0EF"/>
<path d="M18.0851 46.5785L22.9211 58.6295L68.3171 51.9215L96.4361 10.0745L84.0731 4.34148C84.0341 4.30248 84.0341 4.30248 84.0341 4.30248L83.3321 3.99048C82.9031 3.83448 82.3961 3.79548 81.8891 3.91248L40.9781 12.8435C40.3151 12.9605 39.7301 13.3505 39.3401 13.8965L18.0851 43.3415C17.6561 43.9265 17.5001 44.5505 17.5391 45.1745L17.5781 45.2135C17.6167 45.7205 17.7731 46.1885 18.0851 46.5785Z" fill="#03045E"/>
<path d="M100.74 37.6018C100.74 34.1523 97.9236 31.3361 94.4502 31.3361C91.0007 31.3361 88.1845 34.1523 88.1845 37.6018C88.1845 41.0514 91.0003 43.8676 94.4502 43.8676C97.9236 43.8676 100.74 41.0514 100.74 37.6018Z" fill="#03045E"/>
</svg>
