<svg width="671" height="500" viewBox="0 0 671 500" fill="none" xmlns="http://www.w3.org/2000/svg">
<g clip-path="url(#clip0)">
<path d="M670.241 438.874H0V439.209H670.241V438.874Z" fill="#EBEBEB"/>
<path d="M114.719 451.635H70.3218V451.971H114.719V451.635Z" fill="#EBEBEB"/>
<path d="M241.059 448.003H194.812V448.338H241.059V448.003Z" fill="#EBEBEB"/>
<path d="M176.273 458.11H101.984V458.445H176.273V458.11Z" fill="#EBEBEB"/>
<path d="M601.649 459.343H543.753V459.678H601.649V459.343Z" fill="#EBEBEB"/>
<path d="M527.252 450.965H496.555V451.3H527.252V450.965Z" fill="#EBEBEB"/>
<path d="M387.815 456.34H262.239V456.676H387.815V456.34Z" fill="#EBEBEB"/>
<path d="M317.694 379.088H58.8605C56.8328 379.085 54.8894 378.277 53.4568 376.842C52.0243 375.407 51.2197 373.462 51.2197 371.434V7.58713C51.2374 5.57108 52.0497 3.6434 53.4804 2.22281C54.911 0.802223 56.8444 0.0034536 58.8605 0H317.694C319.724 0 321.671 0.806418 323.107 2.24185C324.542 3.67728 325.348 5.62415 325.348 7.65415V371.434C325.348 373.464 324.542 375.411 323.107 376.847C321.671 378.282 319.724 379.088 317.694 379.088V379.088ZM58.8605 0.268098C56.9217 0.271648 55.0635 1.04432 53.6938 2.41652C52.3241 3.78872 51.5548 5.64832 51.5548 7.58713V371.434C51.5548 373.373 52.3241 375.233 53.6938 376.605C55.0635 377.977 56.9217 378.75 58.8605 378.753H317.694C319.634 378.75 321.494 377.978 322.866 376.606C324.237 375.234 325.01 373.374 325.013 371.434V7.58713C325.01 5.64709 324.237 3.78752 322.866 2.41571C321.494 1.04389 319.634 0.271641 317.694 0.268098H58.8605Z" fill="#EBEBEB"/>
<path d="M607.654 379.088H348.807C346.778 379.085 344.833 378.277 343.399 376.843C341.964 375.408 341.156 373.463 341.153 371.434V7.58713C341.174 5.56986 341.989 3.64219 343.422 2.22197C344.855 0.801754 346.79 0.00341594 348.807 0H607.654C609.668 0.00697654 611.598 0.807304 613.026 2.22752C614.453 3.64773 615.264 5.57339 615.282 7.58713V371.434C615.282 373.46 614.479 375.402 613.049 376.837C611.62 378.272 609.68 379.081 607.654 379.088V379.088ZM348.807 0.268098C346.867 0.271641 345.007 1.04389 343.636 2.41571C342.264 3.78752 341.491 5.64709 341.488 7.58713V371.434C341.491 373.374 342.264 375.234 343.636 376.606C345.007 377.978 346.867 378.75 348.807 378.753H607.654C609.594 378.75 611.454 377.978 612.826 376.606C614.197 375.234 614.97 373.374 614.973 371.434V7.58713C614.97 5.64709 614.197 3.78752 612.826 2.41571C611.454 1.04389 609.594 0.271641 607.654 0.268098H348.807Z" fill="#EBEBEB"/>
<path d="M271.77 434.718H199.196V438.874H271.77V434.718Z" fill="#E0E0E0"/>
<path d="M228.954 343.954L208.847 434.718H261.997L241.89 343.954C241.504 342.535 240.662 341.281 239.493 340.387C238.324 339.494 236.894 339.01 235.422 339.01C233.951 339.01 232.52 339.494 231.352 340.387C230.183 341.281 229.34 342.535 228.954 343.954V343.954Z" fill="#E0E0E0"/>
<path d="M245.992 361.971H224.973L219.893 384.973H251.072L245.992 361.971Z" fill="#F5F5F5"/>
<path d="M251.957 389.021H219.008L216.421 400.67H254.531L251.957 389.021Z" fill="#F5F5F5"/>
<path d="M97.2119 438.874H107.989L139.732 261.394H128.941L97.2119 438.874Z" fill="#E0E0E0"/>
<path d="M379.558 438.874H390.349L422.091 261.394H411.3L379.558 438.874Z" fill="#E0E0E0"/>
<path d="M453.834 270.04H97.2119V334.544H453.834V270.04Z" fill="#EBEBEB"/>
<path d="M135.871 331.689H98.9009L119.41 272.882H156.381L135.871 331.689Z" fill="#FAFAFA"/>
<path d="M209.812 331.689H172.842L193.351 272.882H230.308L209.812 331.689Z" fill="#FAFAFA"/>
<path d="M283.753 331.689H246.783L267.279 272.882H304.249L283.753 331.689Z" fill="#FAFAFA"/>
<path d="M357.681 331.689H320.71L341.22 272.882H378.19L357.681 331.689Z" fill="#FAFAFA"/>
<path d="M431.622 331.689H394.651L415.161 272.882H452.131L431.622 331.689Z" fill="#FAFAFA"/>
<path d="M171.474 438.874H160.684L128.941 261.394H139.732L171.474 438.874Z" fill="#E0E0E0"/>
<path d="M453.82 438.874H443.043L411.3 261.394H422.091L453.82 438.874Z" fill="#E0E0E0"/>
<path d="M599.196 433.418H504.021V438.874H599.196V433.418Z" fill="#E0E0E0"/>
<path d="M542.426 317.225L516.756 433.418H586.461L560.791 317.225C558.619 307.399 544.598 307.399 542.426 317.225Z" fill="#E0E0E0"/>
<path d="M565.389 338.03H537.828L531.166 368.19H572.051L565.389 338.03Z" fill="#F5F5F5"/>
<path d="M573.217 373.499H530L526.622 388.767H576.595L573.217 373.499Z" fill="#F5F5F5"/>
<path d="M620.643 250.536V289.812C620.642 290.424 620.497 291.026 620.22 291.571C619.943 292.116 619.541 292.588 619.048 292.949C618.555 293.311 617.984 293.551 617.381 293.651C616.778 293.751 616.16 293.708 615.576 293.525L48.5523 113.834C47.7721 113.579 47.0925 113.084 46.6109 112.419C46.1293 111.755 45.8705 110.955 45.8714 110.134V70.8445C45.8691 70.2323 46.012 69.6283 46.2883 69.0821C46.5646 68.5358 46.9664 68.0627 47.4609 67.7017C47.9553 67.3407 48.5282 67.1021 49.1327 67.0052C49.7371 66.9084 50.356 66.9562 50.9384 67.1448L617.962 246.769C618.754 247.028 619.441 247.533 619.924 248.211C620.406 248.889 620.659 249.704 620.643 250.536Z" fill="#EBEBEB"/>
<path d="M576.019 277.989L607.239 287.882L589.92 240.952L558.713 231.059L576.019 277.989Z" fill="#FAFAFA"/>
<path d="M513.593 258.204L544.812 268.096L527.493 221.166L496.287 211.273L513.593 258.204Z" fill="#FAFAFA"/>
<path d="M451.166 238.432L482.386 248.311L465.067 201.381L433.847 191.488L451.166 238.432Z" fill="#FAFAFA"/>
<path d="M388.74 218.633L419.96 228.539L402.641 181.595L371.421 171.702L388.74 218.633Z" fill="#FAFAFA"/>
<path d="M326.314 198.861L357.52 208.753L340.214 161.81L308.995 151.917L326.314 198.861Z" fill="#FAFAFA"/>
<path d="M263.887 179.075L295.094 188.968L277.788 142.024L246.568 132.131L263.887 179.075Z" fill="#FAFAFA"/>
<path d="M201.448 159.29L232.668 169.182L215.349 122.239L184.142 112.346L201.448 159.29Z" fill="#FAFAFA"/>
<path d="M139.021 139.504L170.241 149.397L152.922 102.453L121.716 92.5603L139.021 139.504Z" fill="#FAFAFA"/>
<path d="M76.5952 119.719L107.815 129.611L90.496 82.6676L59.2896 72.7748L76.5952 119.719Z" fill="#FAFAFA"/>
<path d="M335.121 499.41C478.663 499.41 595.027 492.616 595.027 484.236C595.027 475.855 478.663 469.062 335.121 469.062C191.579 469.062 75.2146 475.855 75.2146 484.236C75.2146 492.616 191.579 499.41 335.121 499.41Z" fill="#F5F5F5"/>
<path d="M437.627 472.614H422.172V6.86327C422.172 4.35657 437.627 4.35657 437.627 6.86327V472.614Z" fill="#263238"/>
<path d="M437.627 181.769L422.172 184.879V163.499H437.627V181.769Z" fill="black"/>
<path d="M544.598 22.4899L327.716 6.37276C318.857 5.71438 311.141 12.3627 310.483 21.2222L301.432 143.018C300.773 151.877 307.422 159.593 316.281 160.251L533.163 176.369C542.023 177.027 549.738 170.379 550.397 161.519L559.448 39.7235C560.106 30.864 553.458 23.1482 544.598 22.4899Z" fill="white"/>
<path d="M534.357 178.458C533.914 178.458 533.459 178.458 533.016 178.458L316.126 162.373C311.347 162.002 306.908 159.756 303.778 156.125C300.649 152.493 299.084 147.771 299.424 142.989L308.485 21.193C308.852 16.4111 311.097 11.9688 314.729 8.83671C318.361 5.70459 323.085 4.13727 327.869 4.4772L544.759 20.563C549.538 20.9333 553.977 23.1794 557.106 26.811C560.236 30.4425 561.801 35.1646 561.461 39.9464L552.4 161.743C552.052 166.291 550.004 170.542 546.662 173.647C543.321 176.753 538.932 178.485 534.37 178.499L534.357 178.458ZM326.501 8.3646C322.946 8.37872 319.527 9.73393 316.928 12.1594C314.328 14.5849 312.74 17.902 312.48 21.4477L303.418 143.244C303.159 146.948 304.373 150.604 306.795 153.418C309.218 156.232 312.653 157.976 316.354 158.271L533.244 174.357C536.964 174.623 540.638 173.406 543.463 170.972C546.289 168.538 548.036 165.085 548.324 161.367L557.386 39.571C557.659 35.8497 556.445 32.1719 554.01 29.3446C551.575 26.5174 548.118 24.7717 544.397 24.4906L327.507 8.40482C327.212 8.37801 326.85 8.3646 326.501 8.3646Z" fill="#FF725E"/>
<path d="M385.308 71.1126L358.07 69.0751L358.981 56.7828L388.633 26.4209L401.676 27.386L399.209 60.4692L405.912 60.9785L405.054 72.5737L398.351 72.0777L397.601 82.1448L384.571 81.1662L385.308 71.1126ZM386.18 59.504L387.4 42.5603L371.783 58.4316L386.18 59.504Z" fill="#FF725E"/>
<path d="M411.046 55.8579C411.814 45.6166 414.209 38.6148 418.231 34.8525C422.252 31.0902 428.016 29.4593 435.523 29.9598C438.564 30.0967 441.556 30.7777 444.357 31.9705C446.411 32.8969 448.257 34.2281 449.786 35.8847C451.062 37.3107 452.12 38.9191 452.922 40.6568C453.647 42.4617 454.151 44.3476 454.424 46.2734C455.136 50.4562 455.33 54.7109 455 58.941C454.258 68.7176 452.073 75.7417 448.445 80.0134C444.817 84.2851 438.954 86.126 430.858 85.5362C427.068 85.413 423.36 84.3932 420.04 82.5603C417.335 80.8838 415.127 78.5142 413.646 75.697C412.334 73.0803 411.511 70.2454 411.22 67.3324C410.766 63.5239 410.708 59.6785 411.046 55.8579V55.8579ZM425.871 56.9839C425.362 63.8472 425.621 68.5791 426.649 71.1796C427.668 73.7667 429.33 75.2011 431.635 75.3351C433.1 75.438 434.547 74.956 435.657 73.9946C437.051 72.6807 438.033 70.9903 438.485 69.1287C439.383 65.6182 439.918 62.0247 440.08 58.4048C440.608 51.2556 440.357 46.4075 439.33 43.8606C438.983 42.734 438.303 41.739 437.379 41.0067C436.455 40.2744 435.331 39.8393 434.155 39.7587C432.979 39.6477 431.799 39.9139 430.784 40.5189C429.769 41.1238 428.974 42.036 428.512 43.1233C427.261 45.5898 426.381 50.21 425.871 56.9839Z" fill="#FF725E"/>
<path d="M476.542 49.5978L462.587 46.0188C463.836 41.9339 466.516 38.436 470.134 36.1662C473.655 34.0036 478.476 33.1546 484.598 33.6193C491.622 34.1465 496.604 35.8356 499.544 38.6863C500.957 39.9667 502.054 41.5558 502.752 43.3298C503.449 45.1038 503.728 47.0149 503.566 48.9142C503.421 51.1656 502.588 53.3181 501.18 55.0804C499.53 57.0595 497.429 58.6134 495.054 59.6112C496.698 60.0975 498.261 60.8248 499.692 61.7694C501.361 62.96 502.688 64.5688 503.539 66.4343C504.429 68.4973 504.775 70.7542 504.544 72.9893C504.261 76.1455 503.157 79.1726 501.341 81.7694C499.484 84.5187 496.846 86.6479 493.767 87.882C489.821 89.2998 485.601 89.7906 481.434 89.3163C477.487 89.1673 473.602 88.2902 469.973 86.7292C467.339 85.4572 465.07 83.5387 463.378 81.1528C461.607 78.539 460.385 75.5931 459.786 72.4933L474.879 71.622C474.973 73.9557 475.767 76.2073 477.158 78.0831C478.434 79.3812 480.164 80.1343 481.984 80.1843C483.803 80.2343 485.572 79.5773 486.917 78.3512C488.437 76.823 489.31 74.7687 489.357 72.6139C489.659 70.5139 489.119 68.3795 487.855 66.6756C487.231 65.9305 486.455 65.3274 485.579 64.9067C484.703 64.4859 483.747 64.2572 482.775 64.2359C481.124 64.1891 479.475 64.3604 477.869 64.7453L479.437 54.1153C480.072 54.2699 480.717 54.3819 481.367 54.4504C482.266 54.5434 483.174 54.4575 484.039 54.1975C484.904 53.9375 485.709 53.5086 486.408 52.9356C487.074 52.4259 487.623 51.7793 488.019 51.0394C488.414 50.2994 488.646 49.4834 488.7 48.6461C488.785 47.9318 488.726 47.2077 488.526 46.5168C488.325 45.826 487.988 45.1825 487.534 44.6247C487.03 44.0859 486.422 43.6549 485.747 43.3576C485.072 43.0604 484.344 42.9032 483.606 42.8954C482.819 42.8136 482.023 42.8901 481.266 43.1203C480.508 43.3505 479.805 43.7298 479.196 44.2359C477.767 45.698 476.838 47.5751 476.542 49.5978V49.5978Z" fill="#FF725E"/>
<path d="M364.705 92.2386L385.51 93.8338L385.107 99.1957L372.091 98.2305L371.783 102.252L383.847 103.164L383.459 108.284L371.394 107.386L371.032 112.332L384.437 113.338L384.022 119.021L362.842 117.44L364.705 92.2386Z" fill="#FF725E"/>
<path d="M388.298 119.303L390.174 94.1823L403.11 95.1341C404.969 95.2086 406.808 95.5564 408.566 96.1662C409.785 96.659 410.805 97.5463 411.461 98.6863C412.084 99.8841 412.385 101.223 412.333 102.573C412.281 103.922 411.879 105.234 411.166 106.381C410.48 107.355 409.558 108.14 408.485 108.66C407.599 109.069 406.653 109.336 405.684 109.45C406.384 109.712 407.043 110.073 407.641 110.523C408.078 110.948 408.46 111.425 408.78 111.944C409.157 112.457 409.484 113.005 409.759 113.579L412.976 121.139L404.196 120.483L400.617 112.44C400.343 111.68 399.914 110.986 399.357 110.402C398.831 109.973 398.184 109.719 397.507 109.678H396.823L396.059 119.879L388.298 119.303ZM397.212 104.933L400.483 105.174C401.18 105.179 401.875 105.116 402.56 104.987C403.075 104.929 403.552 104.686 403.901 104.303C404.25 103.903 404.457 103.399 404.491 102.869C404.54 102.522 404.509 102.169 404.399 101.837C404.29 101.504 404.106 101.201 403.861 100.952C403.032 100.363 402.035 100.057 401.019 100.08L397.601 99.8257L397.212 104.933Z" fill="#FF725E"/>
<path d="M415.55 121.287L417.413 96.1662L430.362 97.1313C432.216 97.2025 434.05 97.5458 435.804 98.1501C437.027 98.6431 438.051 99.5299 438.713 100.67C439.206 101.51 439.521 102.443 439.64 103.41C439.759 104.377 439.678 105.357 439.403 106.292C439.128 107.226 438.664 108.095 438.041 108.843C437.417 109.591 436.647 110.204 435.777 110.643C434.89 111.051 433.945 111.318 432.976 111.434C433.675 111.699 434.334 112.06 434.933 112.507C435.359 112.941 435.741 113.417 436.072 113.928C436.451 114.437 436.775 114.985 437.037 115.563L440.255 123.123L431.488 122.48L427.909 114.437C427.634 113.678 427.205 112.985 426.649 112.399C426.121 111.966 425.468 111.712 424.786 111.676H424.102L423.351 121.877L415.55 121.287ZM424.464 106.93L427.735 107.172C428.431 107.169 429.126 107.106 429.812 106.984C430.332 106.933 430.813 106.683 431.153 106.287C431.511 105.897 431.724 105.395 431.756 104.866C431.802 104.518 431.77 104.163 431.661 103.829C431.552 103.495 431.369 103.19 431.126 102.936C430.294 102.344 429.291 102.043 428.271 102.078L424.933 101.877L424.464 106.93Z" fill="#FF725E"/>
<path d="M442.158 110.657C442.113 108.894 442.459 107.144 443.172 105.531C443.884 103.919 444.945 102.484 446.278 101.33C447.611 100.176 449.183 99.3326 450.881 98.8593C452.58 98.3859 454.362 98.2948 456.099 98.5925C460.282 98.8963 463.409 100.259 465.483 102.681C466.561 104.031 467.355 105.586 467.816 107.252C468.277 108.918 468.395 110.66 468.164 112.373C468.075 114.87 467.38 117.308 466.14 119.477C465.03 121.241 463.427 122.64 461.528 123.499C459.3 124.493 456.853 124.895 454.424 124.665C451.997 124.571 449.623 123.93 447.48 122.788C445.65 121.702 444.188 120.091 443.284 118.164C442.239 115.809 441.85 113.215 442.158 110.657ZM449.92 111.26C449.606 113.179 449.961 115.148 450.925 116.836C451.383 117.396 451.95 117.858 452.592 118.193C453.233 118.528 453.936 118.73 454.657 118.786C455.378 118.843 456.104 118.752 456.789 118.521C457.475 118.289 458.107 117.922 458.646 117.44C459.638 116.421 460.241 114.517 460.443 111.702C460.749 109.848 460.378 107.944 459.397 106.34C458.953 105.762 458.386 105.29 457.737 104.958C457.087 104.627 456.372 104.444 455.644 104.424C454.934 104.336 454.214 104.411 453.538 104.644C452.863 104.876 452.248 105.259 451.743 105.764C450.504 107.323 449.858 109.27 449.92 111.26V111.26Z" fill="#FF725E"/>
<path d="M471.542 125.456L473.405 100.322L486.34 101.287C488.2 101.361 490.038 101.709 491.796 102.319C492.997 102.814 493.997 103.696 494.638 104.826C495.355 106.086 495.66 107.539 495.509 108.981C495.446 110.248 495.043 111.475 494.343 112.533C493.658 113.505 492.735 114.285 491.662 114.799C490.775 115.21 489.83 115.481 488.861 115.603C490.172 116.004 491.28 116.891 491.957 118.083C492.332 118.6 492.655 119.152 492.922 119.732L496.139 127.292L487.373 126.635L483.794 118.592C483.515 117.836 483.086 117.143 482.533 116.555C482.002 116.127 481.351 115.874 480.67 115.831H479.987L479.222 126.032L471.542 125.456ZM480.442 111.086L483.713 111.327C484.415 111.332 485.115 111.269 485.804 111.139C486.324 111.089 486.805 110.839 487.145 110.442C487.505 110.053 487.718 109.551 487.748 109.021C487.791 108.675 487.757 108.324 487.648 107.992C487.539 107.661 487.358 107.358 487.118 107.105C486.288 106.507 485.284 106.201 484.263 106.233L480.858 105.979L480.442 111.086Z" fill="#FF725E"/>
<path d="M338.807 145.228L340.51 122.306L355.979 123.458L355.778 126.139L343.338 125.214L342.815 132.306L353.539 133.11L353.338 135.791L342.614 134.987L341.837 145.402L338.807 145.228Z" fill="#263238"/>
<path d="M358.123 135.389C358.177 132.109 359.515 128.98 361.85 126.676C362.941 125.677 364.232 124.922 365.637 124.459C367.042 123.997 368.529 123.839 370 123.995C372.015 124.116 373.958 124.789 375.617 125.938C377.224 127.06 378.464 128.632 379.182 130.456C379.956 132.446 380.259 134.589 380.067 136.716C379.94 138.878 379.297 140.979 378.19 142.842C377.189 144.545 375.686 145.898 373.887 146.716C372.115 147.531 370.162 147.878 368.217 147.721C366.177 147.6 364.212 146.908 362.547 145.724C360.945 144.585 359.714 143 359.008 141.166C358.28 139.332 357.977 137.357 358.123 135.389V135.389ZM361.247 135.67C360.935 138.046 361.56 140.45 362.989 142.373C363.659 143.183 364.486 143.849 365.42 144.33C366.354 144.812 367.376 145.1 368.425 145.177C369.473 145.253 370.526 145.116 371.52 144.775C372.514 144.434 373.429 143.895 374.209 143.19C375.926 141.38 376.885 138.982 376.89 136.488C377.056 134.812 376.859 133.121 376.314 131.528C375.835 130.159 374.957 128.964 373.794 128.096C372.62 127.236 371.225 126.729 369.772 126.635C368.748 126.544 367.716 126.656 366.735 126.967C365.755 127.278 364.846 127.78 364.062 128.445C362.453 129.866 361.501 132.279 361.247 135.724V135.67Z" fill="#263238"/>
<path d="M383.164 148.525L384.879 125.603L395.04 126.367C396.622 126.414 398.183 126.741 399.652 127.332C400.691 127.826 401.532 128.658 402.038 129.692C402.597 130.783 402.838 132.009 402.735 133.231C402.7 133.992 402.515 134.74 402.191 135.43C401.866 136.12 401.409 136.739 400.845 137.252C399.417 138.391 397.644 139.01 395.818 139.008C396.452 139.353 397.038 139.782 397.56 140.281C398.449 141.269 399.219 142.358 399.853 143.525L403.378 150.067L399.558 149.772L396.877 144.785C396.099 143.338 395.442 142.239 394.92 141.461C394.541 140.837 394.06 140.279 393.499 139.812C393.094 139.504 392.641 139.263 392.158 139.102C391.607 138.976 391.047 138.895 390.483 138.861L386.957 138.606L386.206 148.78L383.164 148.525ZM387.185 135.952L393.7 136.434C394.797 136.559 395.908 136.496 396.984 136.247C397.736 136.054 398.401 135.615 398.874 135C399.321 134.419 399.587 133.72 399.638 132.989C399.686 132.485 399.623 131.977 399.454 131.5C399.285 131.023 399.014 130.589 398.66 130.228C397.641 129.354 396.342 128.878 395 128.887L387.748 128.338L387.185 135.952Z" fill="#263238"/>
<path d="M406.166 150.241L407.869 127.319L416.475 127.949C417.915 128.002 419.329 128.349 420.63 128.968C421.627 129.484 422.441 130.293 422.962 131.287C423.473 132.235 423.706 133.309 423.633 134.383C423.562 135.355 423.213 136.286 422.627 137.064C421.976 137.936 421.087 138.602 420.067 138.981C421.307 139.403 422.375 140.217 423.11 141.3C423.783 142.356 424.085 143.606 423.968 144.853C423.899 145.892 423.592 146.901 423.07 147.802C422.62 148.608 421.986 149.297 421.22 149.812C420.428 150.293 419.549 150.612 418.633 150.751C417.4 150.941 416.148 150.977 414.906 150.858L406.166 150.241ZM409.397 147.761L415.107 148.19C415.799 148.241 416.493 148.241 417.185 148.19C417.809 148.133 418.417 147.965 418.981 147.694C419.492 147.41 419.922 146.999 420.228 146.501C420.61 145.877 420.821 145.163 420.84 144.431C420.859 143.699 420.685 142.976 420.335 142.332C419.94 141.661 419.331 141.141 418.606 140.858C417.535 140.483 416.415 140.271 415.282 140.228L409.987 139.839L409.397 147.761ZM410.188 137.172L415.147 137.547C416.113 137.672 417.091 137.672 418.056 137.547C418.761 137.422 419.404 137.063 419.879 136.528C420.334 135.975 420.594 135.287 420.617 134.571C420.683 133.864 420.548 133.153 420.228 132.52C419.911 131.908 419.382 131.431 418.74 131.18C417.619 130.83 416.455 130.636 415.282 130.603L410.697 130.255L410.188 137.172Z" fill="#263238"/>
<path d="M428.124 151.877L429.826 128.954L432.869 129.182L431.153 152.105L428.124 151.877Z" fill="#263238"/>
<path d="M436.501 152.493L438.217 129.571L446.113 130.161C447.471 130.231 448.819 130.442 450.134 130.791C451.353 131.148 452.466 131.797 453.378 132.681C454.53 133.824 455.366 135.247 455.804 136.81C456.301 138.601 456.465 140.468 456.287 142.319C456.201 143.886 455.88 145.432 455.335 146.903C454.917 148.07 454.305 149.157 453.526 150.121C452.902 150.894 452.143 151.548 451.287 152.051C450.407 152.531 449.45 152.853 448.459 153.003C447.229 153.184 445.983 153.22 444.745 153.11L436.501 152.493ZM439.745 150.027L444.638 150.389C445.837 150.513 447.048 150.459 448.231 150.228C449.016 150.055 449.75 149.702 450.375 149.196C451.211 148.424 451.858 147.47 452.266 146.407C452.807 145.01 453.124 143.535 453.204 142.038C453.453 140.129 453.185 138.189 452.426 136.421C451.868 135.216 450.925 134.23 449.745 133.619C448.499 133.159 447.186 132.905 445.858 132.869L441.046 132.507L439.745 150.027Z" fill="#263238"/>
<path d="M459.638 154.223L461.341 131.3L469.236 131.877C470.596 131.945 471.944 132.161 473.257 132.52C474.473 132.875 475.583 133.524 476.488 134.41C477.641 135.547 478.478 136.966 478.914 138.525C479.409 140.317 479.577 142.183 479.41 144.035C479.311 145.6 478.991 147.144 478.459 148.619C478.038 149.792 477.422 150.884 476.635 151.85C476.012 152.619 475.253 153.269 474.397 153.767C473.522 154.247 472.569 154.569 471.582 154.718C470.353 154.897 469.107 154.938 467.869 154.839L459.638 154.223ZM462.869 151.743L467.762 152.105C468.96 152.229 470.171 152.175 471.354 151.944C472.14 151.774 472.875 151.42 473.499 150.912C474.336 150.146 474.983 149.196 475.389 148.137C475.93 146.739 476.247 145.264 476.327 143.767C476.577 141.859 476.308 139.919 475.55 138.15C474.996 136.941 474.052 135.954 472.869 135.349C471.621 134.876 470.302 134.618 468.968 134.584L464.156 134.223L462.869 151.743Z" fill="#263238"/>
<path d="M482.829 155.938L484.531 133.016L501.099 134.249L500.898 136.93L487.359 135.925L486.837 142.949L499.518 143.887L499.317 146.568L486.636 145.617L486.059 153.418L500.134 154.477L499.933 157.158L482.829 155.938Z" fill="#263238"/>
<path d="M504.089 157.52L505.791 134.598L508.901 134.826L519.625 153.727L520.965 135.724L523.874 135.938L522.158 158.874L519.048 158.633L508.325 139.732L506.984 157.735L504.089 157.52Z" fill="#263238"/>
<path d="M227.775 147.306L228.217 149.987L228.727 152.788C229.102 154.651 229.45 156.528 229.879 158.378C230.697 162.105 231.635 165.778 232.708 169.33C233.244 171.099 233.834 172.855 234.464 174.544C235.094 176.233 235.804 177.922 236.461 179.504C237.765 182.473 239.416 185.276 241.381 187.855L237.708 185.442C238.635 185.987 239.706 186.235 240.777 186.153C242.528 185.989 244.23 185.489 245.791 184.678C247.813 183.669 249.738 182.476 251.542 181.113C252.507 180.402 253.485 179.651 254.424 178.847C254.906 178.458 255.375 178.056 255.764 177.654C256.153 177.252 256.743 176.796 257.105 176.515L257.815 175.938C258.693 175.235 259.782 174.849 260.907 174.843C262.032 174.837 263.125 175.212 264.01 175.906C264.895 176.6 265.52 177.573 265.782 178.666C266.045 179.76 265.929 180.91 265.456 181.93C265.054 182.775 264.785 183.418 264.424 184.115C264.062 184.812 263.713 185.456 263.338 186.126C262.56 187.467 261.743 188.74 260.831 190C258.956 192.628 256.768 195.018 254.316 197.118C252.966 198.262 251.517 199.285 249.987 200.174C246.449 202.293 242.42 203.453 238.298 203.539C236.028 203.552 233.769 203.226 231.595 202.574C230.4 202.232 229.314 201.586 228.445 200.697L227.936 200.174C224.476 196.584 221.543 192.522 219.222 188.11C217.089 184.091 215.278 179.909 213.807 175.603C212.327 171.433 211.087 167.181 210.094 162.869C209.611 160.737 209.142 158.593 208.753 156.434C208.566 155.349 208.378 154.276 208.217 153.177C208.056 152.078 207.922 151.046 207.788 149.719C207.544 147.141 208.303 144.569 209.907 142.538C211.511 140.506 213.838 139.172 216.401 138.812C218.965 138.453 221.568 139.096 223.67 140.609C225.771 142.121 227.208 144.385 227.681 146.93L227.775 147.306Z" fill="#263238"/>
<path d="M256.93 175.71C254.102 176.609 250.777 179.879 251.823 183.753C252.868 187.627 264.33 190.456 264.705 183.566C261.394 176.944 256.93 175.71 256.93 175.71Z" fill="white"/>
<path d="M255.416 179.45L256.635 177.587L269.169 174.263C269.169 174.263 270.992 182.239 261.944 185.268C261.301 185.426 260.622 185.325 260.054 184.987L256.448 183.11C256.131 182.947 255.851 182.72 255.625 182.443C255.4 182.167 255.233 181.848 255.136 181.504C255.04 181.161 255.014 180.802 255.062 180.448C255.11 180.095 255.231 179.755 255.416 179.45V179.45Z" fill="#B55B52"/>
<path d="M160.965 133.713C176.97 130.804 198.659 130.255 214.383 132.949C218.24 133.604 221.709 135.685 224.103 138.779C226.497 141.873 227.64 145.754 227.306 149.651C226.407 159.987 225.268 169.115 224.625 176.273C225.335 194.45 223.794 224.826 223.794 231.233L157.185 232.172C154.223 223.874 155.201 186.488 150 148.861C149.494 145.405 150.357 141.888 152.405 139.059C154.453 136.23 157.524 134.312 160.965 133.713V133.713Z" fill="#263238"/>
<path opacity="0.2" d="M195.161 231.26L193.82 231.086C197.6 201.26 193.82 151.287 193.82 150.791L195.161 150.684C195.201 151.193 198.968 201.3 195.161 231.26Z" fill="black"/>
<path d="M201.206 134.477C198.525 133.767 200.952 131.059 200.952 131.059C207.686 131.074 214.409 131.617 221.059 132.681C222.319 133.646 220.952 134.893 220.952 134.893C220.952 134.893 209.008 136.595 201.206 134.477Z" fill="#FF725E"/>
<path opacity="0.2" d="M197.44 130.657C197.44 130.657 201.461 138.593 196.099 145.804C198.968 145.983 201.74 146.907 204.142 148.485C204.142 148.485 206.032 141.689 200.71 131.341C200.134 130.362 197.44 130.657 197.44 130.657Z" fill="black"/>
<path d="M201.662 134.504C202.694 139.343 193.7 148.485 193.7 148.485C193.7 148.485 177.802 140.147 176.796 135.362L201.662 134.504Z" fill="#FF725E"/>
<path opacity="0.2" d="M160 157.332C161.743 160.697 159.625 174.759 153.298 181.769C152.882 175.63 152.359 169.209 151.689 162.681L160 157.332Z" fill="black"/>
<path d="M178.499 109.678L196.515 118.311C194.611 123.418 193.7 128.727 199.035 131.26C199.777 131.618 200.437 132.126 200.975 132.75C201.512 133.375 201.916 134.103 202.16 134.89C202.404 135.677 202.483 136.506 202.393 137.325C202.303 138.145 202.045 138.936 201.635 139.651C200.794 141.118 199.609 142.359 198.182 143.267C196.756 144.175 195.13 144.724 193.445 144.866C187.185 145.496 181.019 141.475 177.426 137.708C175.952 136.153 177.426 134.33 177.587 132.158C178.284 124.491 179.464 116.461 178.499 109.678Z" fill="#B55B52"/>
<path opacity="0.2" d="M186.796 111.394L196.515 118.311C195.954 119.729 195.528 121.197 195.241 122.694C191.22 124.035 184.919 120.523 184.812 117.038C184.759 115.281 186.327 112.225 186.796 111.394Z" fill="black"/>
<path d="M199.423 80.5496C202.868 83.3512 206.796 95.8713 201.742 100.925C194.289 92.2654 193.445 79.2493 199.423 80.5496Z" fill="#263238"/>
<path d="M173.512 95.0402C174.853 105.764 175.121 112.064 180.912 117.172C189.611 124.853 202.547 118.941 204.41 108.043C206.086 98.2172 203.579 82.3995 192.788 78.9008C190.398 78.1261 187.85 77.9709 185.384 78.4499C182.917 78.9289 180.613 80.0263 178.686 81.6392C176.76 83.2522 175.275 85.328 174.37 87.6719C173.465 90.0158 173.17 92.5511 173.512 95.0402V95.0402Z" fill="#B55B52"/>
<path d="M173.847 104.263C178.914 104.638 180.67 92.3861 177.52 85.496C179.718 86.4075 185.978 85.496 187.721 82.6408C197.828 85.5094 201.609 85.563 202.895 81.3941C204.182 77.2252 188.298 73.5523 179.102 75.5228C169.906 77.4933 172.614 84.1555 172.614 84.1555C172.614 84.1555 157.037 89.1421 173.847 104.263Z" fill="#263238"/>
<path d="M170.147 105.08C171.499 107.256 173.626 108.837 176.099 109.504C179.223 110.255 180.295 107.118 179.035 103.968C177.882 101.139 174.893 97.2654 171.944 98.0027C168.995 98.74 168.391 102.306 170.147 105.08Z" fill="#B55B52"/>
<path d="M187.802 96.8365C187.802 97.7078 188.365 98.378 188.941 98.3378C189.517 98.2976 189.933 97.5603 189.866 96.6756C189.799 95.7909 189.303 95.1341 188.727 95.1743C188.15 95.2145 187.748 95.9652 187.802 96.8365Z" fill="#263238"/>
<path d="M199.651 95.8713C199.718 96.7426 200.228 97.4263 200.791 97.3727C201.354 97.319 201.783 96.5952 201.729 95.7239C201.676 94.8526 201.166 94.1689 200.59 94.2091C200.013 94.2493 199.598 95 199.651 95.8713Z" fill="#263238"/>
<path d="M197.735 96.7694C198.953 99.362 200.527 101.771 202.413 103.928C201.847 104.401 201.184 104.745 200.47 104.935C199.757 105.125 199.011 105.156 198.284 105.027L197.735 96.7694Z" fill="#A02724"/>
<path d="M192.305 89.9196C192.369 89.9808 192.411 90.0606 192.426 90.1475C192.455 90.2788 192.432 90.4161 192.362 90.5309C192.292 90.6458 192.181 90.7293 192.051 90.7641C191.257 90.9735 190.424 90.9903 189.622 90.8131C188.82 90.6359 188.072 90.2698 187.44 89.7453C187.392 89.6979 187.354 89.6416 187.328 89.5795C187.302 89.5173 187.289 89.4507 187.289 89.3834C187.289 89.3161 187.302 89.2494 187.328 89.1873C187.354 89.1252 187.392 89.0688 187.44 89.0215C187.539 88.9272 187.671 88.8746 187.808 88.8746C187.945 88.8746 188.077 88.9272 188.177 89.0215V89.0215C188.682 89.431 189.277 89.7149 189.913 89.8501C190.549 89.9852 191.208 89.9677 191.836 89.7989C191.918 89.7759 192.005 89.7749 192.087 89.7961C192.17 89.8173 192.245 89.8599 192.305 89.9196V89.9196Z" fill="#263238"/>
<path d="M194.477 92.4933C194.396 92.4522 194.331 92.3865 194.289 92.3057C194.22 92.19 194.2 92.0518 194.233 91.9212C194.265 91.7905 194.348 91.6782 194.464 91.6086C195.16 91.1729 195.949 90.9081 196.766 90.8359C197.584 90.7637 198.407 90.8861 199.169 91.1931C199.23 91.2218 199.285 91.2623 199.33 91.3123C199.375 91.3623 199.41 91.4209 199.432 91.4845C199.455 91.548 199.464 91.6155 199.461 91.6828C199.457 91.7501 199.44 91.816 199.41 91.8767C199.347 91.9985 199.239 92.0914 199.11 92.1362C198.98 92.1811 198.838 92.1746 198.713 92.118C198.109 91.8826 197.458 91.7928 196.813 91.8556C196.168 91.9185 195.547 92.1324 195 92.4799C194.923 92.5306 194.833 92.5587 194.74 92.5611C194.648 92.5635 194.557 92.54 194.477 92.4933V92.4933Z" fill="#263238"/>
<path d="M204.517 87.5872C204.437 87.6089 204.353 87.6118 204.272 87.5955C204.19 87.5792 204.114 87.5442 204.048 87.4933C203.564 87.0646 202.983 86.7591 202.355 86.6028C201.728 86.4464 201.071 86.4438 200.442 86.5952C200.313 86.6343 200.173 86.6203 200.053 86.5562C199.934 86.4921 199.845 86.3831 199.806 86.2534C199.767 86.1236 199.781 85.9836 199.845 85.8642C199.909 85.7448 200.018 85.6558 200.148 85.6167C200.937 85.4099 201.765 85.3995 202.56 85.5864C203.354 85.7733 204.091 86.1519 204.705 86.689C204.799 86.7864 204.851 86.9161 204.851 87.051C204.851 87.1859 204.799 87.3155 204.705 87.4129C204.657 87.485 204.593 87.5447 204.517 87.5872V87.5872Z" fill="#263238"/>
<path d="M262.949 221.18C262.665 220.66 262.187 220.273 261.62 220.105C261.052 219.937 260.44 220 259.919 220.282L243.525 229.142L235.777 214.799C235.484 214.299 235.009 213.933 234.451 213.776C233.894 213.62 233.297 213.686 232.787 213.96C232.277 214.234 231.892 214.695 231.715 215.247C231.538 215.798 231.581 216.397 231.836 216.917L239.584 231.26L183.083 261.796C182.563 262.08 182.176 262.557 182.006 263.124C181.835 263.691 181.895 264.302 182.171 264.826V264.826C182.455 265.345 182.932 265.732 183.499 265.903C184.066 266.074 184.678 266.014 185.201 265.737L262.051 224.182C262.564 223.899 262.945 223.426 263.113 222.864C263.281 222.303 263.222 221.698 262.949 221.18V221.18Z" fill="#263238"/>
<path d="M261.743 296.488C234.933 276.381 152.399 268.338 180.925 231.582L223.82 231.18C223.82 231.18 284.142 262.145 287.426 294.531C290.791 328.217 296.81 381.26 296.81 381.26L280.188 387.158C280.188 387.158 255.898 322.118 261.743 296.488Z" fill="#FF725E"/>
<path opacity="0.2" d="M182.399 250C181.408 252.172 180.496 254.424 179.719 256.796C186.421 264.37 199.571 270.201 213.82 275.563C209.397 267.842 199.732 259.263 182.399 250Z" fill="black"/>
<path d="M280.335 393.043L297.587 388.606C298.669 388.29 299.825 388.346 300.871 388.767C306.877 391.448 310.71 390.67 316.649 390.308C323.753 389.853 322.158 397.493 317.158 398.794C308.914 400.938 309.517 400.469 302.413 402.306L297.533 403.566L294.732 401.863L293.391 404.544L284.343 406.743C284.113 406.806 283.872 406.821 283.636 406.787C283.4 406.753 283.173 406.671 282.971 406.545C282.768 406.419 282.593 406.252 282.458 406.056C282.323 405.859 282.23 405.636 282.185 405.402L280.335 393.043Z" fill="#263238"/>
<path d="M280.777 394.732C281.032 394.611 300.375 389.196 300.375 389.196L297.373 374.33L275.925 380.161L280.777 394.732Z" fill="#263238"/>
<path d="M160.55 341.582C161.367 292.748 151.166 243.029 157.225 232.118L206.984 231.421C206.984 231.421 192.118 312.842 188.217 345.362C184.196 379.196 164.088 467.158 164.088 467.158L148.003 467.413C148.003 467.413 149.906 376.676 160.55 341.582Z" fill="#FF725E"/>
<path d="M147.453 470.013L162.198 469.786C163.337 469.735 164.459 470.065 165.389 470.724C170.751 474.745 171.314 474.906 177.185 475.952C184.236 477.198 181.072 484.236 175.912 484.316C167.386 484.45 168.083 484.142 160.818 484.249L152.922 484.316L151.77 481.997L150.429 484.316H148.351C148.11 484.317 147.87 484.268 147.648 484.172C147.426 484.077 147.226 483.937 147.061 483.761C146.895 483.585 146.767 483.377 146.684 483.15C146.602 482.923 146.567 482.681 146.582 482.44L147.453 470.013Z" fill="#263238"/>
<path d="M147.346 471.769C147.6 471.769 165.911 472.614 165.911 472.614L167.131 455.885L147.239 456.448L147.346 471.769Z" fill="#263238"/>
<path d="M196.783 129.705C196.783 129.705 201.394 138.592 196.099 145.791C199.103 145.936 202.066 146.551 204.879 147.614C204.879 147.614 208.619 138.566 200.375 130.469C199.799 129.504 196.783 129.705 196.783 129.705Z" fill="white"/>
<path d="M155.402 237.265C179.196 238.686 206.474 239.115 223.539 237.265C223.641 237.251 223.739 237.209 223.821 237.146C223.903 237.083 223.967 236.999 224.008 236.903C225.151 234.012 225.654 230.906 225.482 227.802C225.482 227.319 225.161 226.957 224.839 226.971C202.319 227.842 179.933 227.788 156.474 226.971C156.22 226.971 155.965 227.185 155.871 227.547C155.072 230.438 154.733 233.437 154.866 236.434C154.85 236.613 154.894 236.791 154.991 236.942C155.088 237.093 155.233 237.206 155.402 237.265V237.265Z" fill="#263238"/>
<path opacity="0.2" d="M155.402 237.265C179.196 238.686 206.474 239.115 223.539 237.265C223.641 237.251 223.739 237.209 223.821 237.146C223.903 237.083 223.967 236.999 224.008 236.903C225.151 234.012 225.654 230.906 225.482 227.802C225.482 227.319 225.161 226.957 224.839 226.971C202.319 227.842 179.933 227.788 156.474 226.971C156.22 226.971 155.965 227.185 155.871 227.547C155.072 230.438 154.733 233.437 154.866 236.434C154.85 236.613 154.894 236.791 154.991 236.942C155.088 237.093 155.233 237.206 155.402 237.265V237.265Z" fill="black"/>
<path d="M195.992 240.925C194.307 240.921 192.624 240.814 190.952 240.603L189.812 240.456V239.316C189.812 239.021 189.638 232.091 190.013 226.528L190.094 225.402L191.206 225.295C194.588 224.969 197.99 224.906 201.381 225.107L202.587 225.188V226.394C202.773 230.671 202.621 234.956 202.131 239.209L202.011 240L201.26 240.268C199.548 240.755 197.771 240.976 195.992 240.925ZM192.44 238.07C194.826 238.337 197.236 238.297 199.611 237.949C199.948 234.551 200.064 231.134 199.96 227.721C197.506 227.622 195.049 227.666 192.601 227.855C192.386 231.702 192.413 236.032 192.44 238.07Z" fill="white"/>
<path d="M170.134 226.89C170.134 226.89 169.745 234.41 169.196 239.196C168.137 240.295 166.166 239.45 166.166 239.45C166.166 239.45 166.555 232.507 167.024 227.051C168.033 226.748 169.099 226.693 170.134 226.89V226.89Z" fill="#FF725E"/>
<path d="M219.249 226.89C219.249 226.89 218.861 234.41 218.311 239.196C217.252 240.295 215.281 239.45 215.281 239.45C215.281 239.45 215.67 232.507 216.139 227.051C217.148 226.748 218.215 226.693 219.249 226.89V226.89Z" fill="#FF725E"/>
<path d="M203.753 159.021C204.477 168.713 210.657 170.898 211.528 170.871C212.399 170.845 218.23 168.432 217.507 158.74C214.926 158.661 212.441 157.744 210.429 156.126C209.565 157.029 208.529 157.75 207.383 158.247C206.237 158.744 205.003 159.008 203.753 159.021Z" fill="#FF725E"/>
<path d="M202.413 79.6649C209.303 80.8177 211.903 84.0215 196.394 85.8981C187.431 87.0492 178.367 87.202 169.37 86.3539C169.37 86.3539 190.054 79.5979 202.413 79.6649Z" fill="#263238"/>
<path d="M168.11 87.1314C179.45 83.6812 191.093 81.3202 202.882 80.0804C202.915 78.7044 202.667 77.3361 202.153 76.0592C201.639 74.7823 200.87 73.6237 199.893 72.6542C199.893 72.6542 207.734 71.3137 203.834 68.9678C201.153 67.3995 194.759 67.2252 187.667 62.6676C184.759 65.3485 176.796 69.6381 171.354 70.1877C170.013 72.4933 166.488 78.2306 160.791 80.4826C160.871 83.0027 166.541 83.6595 166.541 83.6595C166.518 84.3199 166.647 84.9769 166.919 85.5791C167.191 86.1813 167.599 86.7126 168.11 87.1314V87.1314Z" fill="#FF725E"/>
<path opacity="0.8" d="M166.542 83.6998C178.083 76.2065 189.155 72.9759 199.893 72.6944C200.87 73.6639 201.639 74.8225 202.153 76.0994C202.667 77.3763 202.915 78.7446 202.882 80.1207C191.095 81.3473 179.452 83.6948 168.11 87.1314C167.604 86.7168 167.2 86.192 166.928 85.5973C166.656 85.0025 166.524 84.3535 166.542 83.6998V83.6998Z" fill="#263238"/>
<path d="M187.011 70.6435C188.351 77.2386 193.003 78.4451 193.633 78.3914C194.263 78.3378 198.284 76.4075 196.957 69.8124C195.063 69.8779 193.194 69.3685 191.595 68.3512C191.024 69.0217 190.324 69.5702 189.536 69.964C188.749 70.3578 187.89 70.5889 187.011 70.6435V70.6435Z" fill="white"/>
<path d="M194.839 91.2467C196.367 91.4611 198.86 102.963 190.885 103.579C184.182 104.102 182.078 97.9491 182.078 95.7909C182.078 92.5737 192.667 90.9384 194.839 91.2467Z" fill="#263238"/>
<path d="M198.217 91.1528C197.265 91.7292 199.41 103.981 204.919 102.694C209.611 101.609 208.82 94.9464 208.056 92.7882C206.97 89.5308 199.571 90.2949 198.217 91.1528Z" fill="#263238"/>
<g opacity="0.2">
<path opacity="0.2" d="M192.011 91.3673L196.18 98.9678C195.9 100.42 195.081 101.713 193.887 102.587L188.137 92.0778C189.412 91.7604 190.706 91.5231 192.011 91.3673V91.3673Z" fill="white"/>
<path opacity="0.2" d="M186.434 92.4933L192.346 103.217C191.874 103.354 191.388 103.44 190.898 103.472C190.577 103.491 190.254 103.491 189.933 103.472L184.33 93.2574C185.011 92.9493 185.714 92.6939 186.434 92.4933V92.4933Z" fill="white"/>
<path opacity="0.2" d="M204.973 90.6301L208.673 97.3325C208.626 98.4846 208.31 99.6097 207.748 100.617L202.145 90.362C203.094 90.3489 204.043 90.4388 204.973 90.6301V90.6301Z" fill="white"/>
<path opacity="0.2" d="M207.024 101.568C206.685 101.905 206.285 102.174 205.844 102.359L199.45 90.6971C199.941 90.5875 200.438 90.5069 200.938 90.4558L207.024 101.568Z" fill="white"/>
</g>
<path d="M280.228 164.799C280.911 164.504 279.759 161.769 279.075 162.051L185.322 201.381C185.213 201.202 185.043 201.068 184.844 201.004C184.644 200.94 184.429 200.95 184.236 201.032L180.308 202.668C180.116 202.753 179.96 202.903 179.866 203.091C179.773 203.28 179.749 203.495 179.799 203.7L167.466 208.861C164.714 210.027 162.252 211.785 160.255 214.008L154.732 220.174C154.629 221.601 153.982 222.934 152.924 223.897C151.866 224.86 150.478 225.38 149.048 225.349H148.23L119.893 242.467C118.851 243.097 118.04 244.047 117.582 245.174C117.123 246.302 117.04 247.548 117.346 248.727C118.332 252.84 120 256.759 122.279 260.322C122.738 261.008 123.342 261.584 124.048 262.012C124.754 262.439 125.545 262.706 126.366 262.794C127.186 262.882 128.016 262.789 128.797 262.522C129.578 262.255 130.29 261.819 130.885 261.247L159.517 233.673C160.728 232.508 161.484 230.949 161.649 229.276L161.997 225.737L168.19 218.82C169.077 220.394 170.535 221.566 172.262 222.095C173.989 222.624 175.853 222.468 177.469 221.66C179.084 220.853 180.327 219.455 180.941 217.756C181.554 216.057 181.491 214.187 180.764 212.534C180.732 212.449 180.692 212.368 180.643 212.292L182.936 211.327C183.045 211.513 183.218 211.653 183.422 211.722C183.626 211.791 183.849 211.784 184.048 211.702L187.976 210.067C188.174 209.981 188.334 209.827 188.428 209.632C188.521 209.438 188.542 209.216 188.485 209.008L243.163 186.072C243.467 185.943 243.707 185.697 243.83 185.391C243.954 185.084 243.95 184.741 243.82 184.437V184.437L273.311 172.064C273.767 171.877 273.056 170.201 272.6 170.402L270.429 171.314L270.308 168.928L280.228 164.799ZM176.461 220.402C175.15 220.958 173.675 220.99 172.341 220.492C171.006 219.993 169.914 219.001 169.289 217.721L170.107 216.796L170.523 216.622C170.875 217.124 171.294 217.575 171.769 217.962C172.499 218.539 173.335 218.965 174.23 219.216C175.125 219.467 176.061 219.537 176.984 219.424L176.796 217.949C176.068 218.038 175.33 217.981 174.623 217.784C173.917 217.586 173.257 217.25 172.681 216.796C172.408 216.579 172.157 216.337 171.93 216.072L179.33 212.976C179.365 213.055 179.405 213.131 179.45 213.204C179.991 214.556 179.981 216.067 179.422 217.412C178.864 218.757 177.801 219.83 176.461 220.402V220.402ZM267.802 172.44L243.177 182.761L242.306 180.697L267.681 170.054L267.802 172.44Z" fill="#FF725E"/>
<path opacity="0.2" d="M280.228 164.799C280.911 164.504 279.759 161.769 279.075 162.051L185.322 201.381C185.213 201.202 185.043 201.068 184.844 201.004C184.644 200.94 184.429 200.95 184.236 201.032L180.308 202.668C180.116 202.753 179.96 202.903 179.866 203.091C179.773 203.28 179.749 203.495 179.799 203.7L167.466 208.861C164.714 210.027 162.252 211.785 160.255 214.008L154.732 220.174C154.629 221.601 153.982 222.934 152.924 223.897C151.866 224.86 150.478 225.38 149.048 225.349H148.23L119.893 242.467C118.851 243.097 118.04 244.047 117.582 245.174C117.123 246.302 117.04 247.548 117.346 248.727C118.332 252.84 120 256.759 122.279 260.322C122.738 261.008 123.342 261.584 124.048 262.012C124.754 262.439 125.545 262.706 126.366 262.794C127.186 262.882 128.016 262.789 128.797 262.522C129.578 262.255 130.29 261.819 130.885 261.247L159.517 233.673C160.728 232.508 161.484 230.949 161.649 229.276L161.997 225.737L168.19 218.82C169.077 220.394 170.535 221.566 172.262 222.095C173.989 222.624 175.853 222.468 177.469 221.66C179.084 220.853 180.327 219.455 180.941 217.756C181.554 216.057 181.491 214.187 180.764 212.534C180.732 212.449 180.692 212.368 180.643 212.292L182.936 211.327C183.045 211.513 183.218 211.653 183.422 211.722C183.626 211.791 183.849 211.784 184.048 211.702L187.976 210.067C188.174 209.981 188.334 209.827 188.428 209.632C188.521 209.438 188.542 209.216 188.485 209.008L243.163 186.072C243.467 185.943 243.707 185.697 243.83 185.391C243.954 185.084 243.95 184.741 243.82 184.437V184.437L273.311 172.064C273.767 171.877 273.056 170.201 272.6 170.402L270.429 171.314L270.308 168.928L280.228 164.799ZM176.461 220.402C175.15 220.958 173.675 220.99 172.341 220.492C171.006 219.993 169.914 219.001 169.289 217.721L170.107 216.796L170.523 216.622C170.875 217.124 171.294 217.575 171.769 217.962C172.499 218.539 173.335 218.965 174.23 219.216C175.125 219.467 176.061 219.537 176.984 219.424L176.796 217.949C176.068 218.038 175.33 217.981 174.623 217.784C173.917 217.586 173.257 217.25 172.681 216.796C172.408 216.579 172.157 216.337 171.93 216.072L179.33 212.976C179.365 213.055 179.405 213.131 179.45 213.204C179.991 214.556 179.981 216.067 179.422 217.412C178.864 218.757 177.801 219.83 176.461 220.402V220.402ZM267.802 172.44L243.177 182.761L242.306 180.697L267.681 170.054L267.802 172.44Z" fill="black"/>
<path d="M244.062 180.469L218.083 191.367C217.651 191.549 217.305 191.889 217.116 192.318C216.926 192.746 216.908 193.231 217.064 193.673L218.137 196.622C218.22 196.856 218.349 197.071 218.518 197.253C218.687 197.435 218.891 197.581 219.118 197.682C219.346 197.782 219.591 197.835 219.839 197.837C220.088 197.839 220.334 197.791 220.563 197.694L246.542 186.796C246.973 186.615 247.318 186.274 247.506 185.845C247.693 185.415 247.707 184.931 247.547 184.491L246.488 181.542C246.405 181.307 246.275 181.093 246.106 180.91C245.938 180.728 245.733 180.582 245.506 180.482C245.279 180.381 245.034 180.329 244.785 180.326C244.537 180.324 244.291 180.373 244.062 180.469V180.469Z" fill="#FF725E"/>
<path d="M260.59 170.308L261.488 170.067C262.623 169.759 263.823 169.777 264.949 170.119C266.074 170.46 267.082 171.111 267.855 171.997L268.66 172.922C268.874 173.165 269.027 173.456 269.105 173.771C269.184 174.085 269.186 174.413 269.111 174.729C269.036 175.044 268.886 175.337 268.675 175.582C268.463 175.828 268.196 176.019 267.895 176.139L259.062 179.786C258.81 179.889 258.541 179.942 258.269 179.94C257.997 179.938 257.728 179.882 257.478 179.774C257.228 179.667 257.002 179.511 256.814 179.315C256.625 179.118 256.478 178.887 256.381 178.633V178.633C256.065 177.812 255.924 176.935 255.968 176.057C256.013 175.179 256.24 174.32 256.637 173.536C257.034 172.751 257.59 172.059 258.271 171.503C258.952 170.947 259.742 170.54 260.59 170.308Z" fill="#B55B52"/>
<path d="M167.024 151.81L166.354 152.614L165.576 153.566L163.994 155.496C162.949 156.836 161.89 158.177 160.858 159.611C158.78 162.386 156.836 165.255 154.866 168.177C152.895 171.099 151.126 174.088 149.303 177.091C147.48 180.094 145.871 183.204 144.276 186.327L143.096 188.686L142.815 189.263C142.784 189.328 142.748 189.391 142.708 189.45C142.615 189.597 142.543 189.754 142.493 189.92C142.135 190.925 141.927 191.977 141.876 193.043C141.769 196.084 142.03 199.126 142.654 202.105C144.078 208.959 145.981 215.705 148.351 222.292L148.445 222.547C148.825 223.67 148.796 224.891 148.363 225.995C147.929 227.099 147.12 228.014 146.077 228.579C145.034 229.143 143.826 229.321 142.665 229.081C141.503 228.841 140.465 228.198 139.732 227.265C137.262 224.133 135.023 220.827 133.029 217.373C131.011 213.869 129.272 210.211 127.828 206.434C126.165 202.323 125.099 197.993 124.665 193.579C124.406 190.915 124.546 188.226 125.08 185.603C125.225 184.858 125.422 184.123 125.67 183.405L126.045 182.279L126.314 181.568L127.399 178.807C130.303 171.448 133.818 164.345 137.909 157.574C139.96 154.182 142.118 150.871 144.477 147.641C145.657 146.032 146.863 144.424 148.137 142.869C148.78 142.078 149.477 141.3 150.107 140.523L151.139 139.343L152.332 138.003C154.127 136.134 156.573 135.031 159.161 134.922C161.75 134.814 164.28 135.708 166.225 137.42C168.169 139.131 169.378 141.527 169.6 144.108C169.821 146.689 169.038 149.256 167.413 151.273L167.024 151.81Z" fill="#263238"/>
<path d="M177.52 135.509C180.201 134.558 176.796 131.676 176.796 131.676C176.796 131.676 162.574 132.118 154.129 134.357C152.788 135.576 154.316 137.038 154.316 137.038C154.316 137.038 169.531 138.338 177.52 135.509Z" fill="#FF725E"/>
<path opacity="0.2" d="M177.306 131.367C177.306 131.367 179.41 139.29 188.981 145.764C184.799 145.764 178.874 149.946 178.874 149.946C177.106 147.339 175.876 144.405 175.256 141.316C174.637 138.226 174.641 135.045 175.268 131.957C175.858 131.032 177.306 131.367 177.306 131.367Z" fill="black"/>
<path d="M177.587 130.027C179.832 136.268 183.779 141.757 188.981 145.871C185.432 146.14 181.93 146.842 178.552 147.962C178.552 147.962 173.311 143.043 175.268 132.064C175.912 131.251 176.698 130.561 177.587 130.027Z" fill="white"/>
<path d="M146.944 221.729L155.268 228.901L144.222 236.086C144.222 236.086 137.52 228.673 140.818 224.45L146.944 221.729Z" fill="#B55B52"/>
<path d="M139.665 227.775C138.687 226.985 137.911 225.974 137.399 224.826C140.08 222.078 145.442 219.812 147.842 219.196C148.82 220.413 149.363 221.923 149.383 223.485C149.383 223.485 142.319 224.705 139.665 227.775Z" fill="white"/>
<path d="M156.22 240.282L151.917 242.145C151.088 242.504 150.158 242.558 149.294 242.295C148.429 242.032 147.687 241.471 147.198 240.71L144.222 236.086L155.268 228.901L158.163 235.188C158.375 235.649 158.493 236.148 158.509 236.655C158.526 237.163 158.441 237.668 158.26 238.142C158.079 238.617 157.806 239.05 157.455 239.417C157.105 239.785 156.685 240.078 156.22 240.282Z" fill="#B55B52"/>
<path d="M189.692 108.579C190.984 107.727 192.463 107.199 194.004 107.04C195.544 106.881 197.099 107.097 198.539 107.668C198.58 107.686 198.617 107.713 198.647 107.746C198.678 107.78 198.701 107.819 198.716 107.861C198.731 107.904 198.738 107.949 198.735 107.994C198.732 108.039 198.72 108.083 198.7 108.123C198.659 108.204 198.589 108.266 198.504 108.296C198.419 108.326 198.326 108.321 198.244 108.284C196.905 107.772 195.463 107.584 194.037 107.735C192.612 107.887 191.242 108.373 190.04 109.155C189.964 109.199 189.873 109.211 189.787 109.189C189.702 109.166 189.629 109.111 189.584 109.035C189.56 108.998 189.544 108.957 189.536 108.914C189.528 108.871 189.53 108.827 189.54 108.784C189.55 108.741 189.568 108.701 189.594 108.666C189.621 108.631 189.654 108.601 189.692 108.579Z" fill="#263238"/>
<path d="M167.761 158.861L185.844 158.177L185.777 156.716L167.708 157.399L167.761 158.861Z" fill="white"/>
<path d="M324.236 485.871H289.142L314.651 283.217H349.759L324.236 485.871Z" fill="#FF725E"/>
<path opacity="0.4" d="M324.236 485.871H289.142L314.651 283.217H349.759L324.236 485.871Z" fill="black"/>
<path d="M286.005 485.871H289.142L314.651 283.217H311.515L286.005 485.871Z" fill="#263238"/>
<path d="M455.134 485.871H420.04L445.55 283.217H480.657L455.134 485.871Z" fill="#FF725E"/>
<path opacity="0.4" d="M455.134 485.871H420.04L445.55 283.217H480.657L455.134 485.871Z" fill="black"/>
<path d="M416.89 485.871H420.04L445.55 283.217H442.413L416.89 485.871Z" fill="#263238"/>
<path d="M356.729 461.756H484.021L478.472 417.641H351.18L356.729 461.756Z" fill="#FF725E"/>
<path d="M356.729 461.756H354.652L349.089 417.641H351.18L356.729 461.756Z" fill="#263238"/>
<path d="M477.011 419.571L482.078 459.826H474.558L454.357 419.571H477.011Z" fill="white"/>
<path d="M441.528 419.571L461.729 459.826H434.115L413.914 419.571H441.528Z" fill="white"/>
<path d="M401.086 419.571L421.287 459.826H393.66L373.472 419.571H401.086Z" fill="white"/>
<path d="M360.657 419.571L380.844 459.826H358.19L353.123 419.571H360.657Z" fill="white"/>
<path d="M471.837 485.871H506.944L481.421 283.217H446.327L471.837 485.871Z" fill="#FF725E"/>
<path opacity="0.2" d="M457.694 373.499L494.625 388.016L484.022 303.861H448.914L457.694 373.499Z" fill="black"/>
<path d="M471.837 485.871H468.7L443.19 283.217H446.327L471.837 485.871Z" fill="#263238"/>
<path d="M340.938 485.871H376.046L350.536 283.217H315.429L340.938 485.871Z" fill="#FF725E"/>
<path opacity="0.2" d="M326.796 373.499L363.727 388.016L353.123 303.861H318.03L326.796 373.499Z" fill="black"/>
<path d="M340.938 485.871H337.802L312.292 283.217H315.429L340.938 485.871Z" fill="#263238"/>
<path d="M312.775 364.155H504.45L496.086 297.735H304.41L312.775 364.155Z" fill="#FF725E"/>
<path d="M312.775 364.155H309.638L301.273 297.735H304.41L312.775 364.155Z" fill="#263238"/>
<path d="M493.887 300.63L501.528 361.247H490.201L459.785 300.63H493.887Z" fill="white"/>
<path d="M440.469 300.63L470.885 361.247H429.29L398.887 300.63H440.469Z" fill="white"/>
<path d="M379.571 300.63L409.987 361.247H368.391L337.976 300.63H379.571Z" fill="white"/>
<path d="M318.686 300.63L349.088 361.247H314.973L307.346 300.63H318.686Z" fill="white"/>
</g>
<defs>
<clipPath id="clip0">
<rect width="670.241" height="500" fill="white"/>
</clipPath>
</defs>
</svg>
