<svg width="562" height="500" viewBox="0 0 562 500" fill="none" xmlns="http://www.w3.org/2000/svg">
<path d="M1.38013 267.161C1.38013 267.161 4.42699 361.784 83.4114 424.857C162.396 487.93 271.875 492.448 360.495 498.451C449.115 504.453 517.174 454.271 527.422 378.438C537.669 302.604 470.052 280.352 433.242 194.01C396.432 107.669 399.74 79.3229 322.044 26.237C244.349 -26.849 122.695 5.74219 58.9452 96.7057C-4.80478 187.669 1.38013 267.161 1.38013 267.161Z" fill="#92E3A9"/>
<path opacity="0.7" d="M1.38013 267.161C1.38013 267.161 4.42699 361.784 83.4114 424.857C162.396 487.93 271.875 492.448 360.495 498.451C449.115 504.453 517.174 454.271 527.422 378.438C537.669 302.604 470.052 280.352 433.242 194.01C396.432 107.669 399.74 79.3229 322.044 26.237C244.349 -26.849 122.695 5.74219 58.9452 96.7057C-4.80478 187.669 1.38013 267.161 1.38013 267.161Z" fill="white"/>
<path d="M37.3308 419.961H25.3777" stroke="#263238" stroke-width="1.1133" stroke-miterlimit="10"/>
<path d="M521.497 419.961H56.2371" stroke="#263238" stroke-width="1.1133" stroke-miterlimit="10"/>
<path d="M346.445 469.935C368.299 469.935 386.016 465.061 386.016 459.049C386.016 453.038 368.299 448.164 346.445 448.164C324.591 448.164 306.875 453.038 306.875 459.049C306.875 465.061 324.591 469.935 346.445 469.935Z" fill="#263238"/>
<path d="M141.927 483.776C100.742 483.776 94.6615 477.826 94.0625 473.021C93.9265 472.02 94.0251 471.002 94.3505 470.046C94.6759 469.09 95.2192 468.223 95.9375 467.513C107.031 455.872 170.964 460.794 259.427 467.604C271.771 468.555 284.531 469.531 297.617 470.508C387.005 477.148 422.995 476.289 430.43 467.305C431.94 465.469 432.253 463.177 431.419 460.078C427.878 447.122 380.534 447.057 362.604 448.073C362.194 448.094 361.792 447.953 361.485 447.68C361.178 447.407 360.99 447.025 360.964 446.615C360.951 446.412 360.979 446.208 361.046 446.016C361.113 445.824 361.217 445.648 361.353 445.496C361.489 445.345 361.653 445.222 361.836 445.135C362.02 445.047 362.219 444.997 362.422 444.987C369.284 444.583 429.57 441.549 434.401 459.31C435.508 463.398 435 466.667 432.812 469.323C424.466 479.453 390.299 480.534 297.396 473.633C284.297 472.656 271.536 471.68 259.193 470.729C174.87 464.219 108.255 459.102 98.1771 469.688C97.7786 470.066 97.4762 470.534 97.2951 471.052C97.1139 471.571 97.0591 472.125 97.1354 472.669C97.513 475.742 104.948 482.617 164.844 480.221C198.346 478.919 232.005 475.234 232.344 475.195C232.736 475.179 233.119 475.313 233.417 475.569C233.714 475.825 233.904 476.184 233.946 476.574C233.989 476.964 233.883 477.356 233.648 477.67C233.414 477.985 233.068 478.198 232.682 478.268C232.344 478.268 198.581 481.966 164.974 483.307C156.328 483.62 148.672 483.776 141.927 483.776Z" fill="white" stroke="#263238" stroke-width="1.1133" stroke-miterlimit="10"/>
<path d="M331.732 468.607C357.484 468.607 378.359 447.731 378.359 421.979C378.359 396.227 357.484 375.352 331.732 375.352C305.98 375.352 285.104 396.227 285.104 421.979C285.104 447.731 305.98 468.607 331.732 468.607Z" fill="white"/>
<path d="M331.732 468.607C340.217 468.612 348.543 466.302 355.812 461.924C363.081 457.546 369.017 451.267 372.98 443.764C376.943 436.261 378.783 427.819 378.302 419.347C377.82 410.875 375.035 402.696 370.247 395.69C369.74 416.003 358.529 445.99 300.221 456.302C308.805 464.219 320.055 468.612 331.732 468.607V468.607Z" fill="#92E3A9"/>
<path opacity="0.3" d="M331.732 468.607C340.217 468.612 348.543 466.302 355.812 461.924C363.081 457.546 369.017 451.267 372.98 443.764C376.943 436.261 378.783 427.819 378.302 419.347C377.82 410.875 375.035 402.696 370.247 395.69C369.74 416.003 358.529 445.99 300.221 456.302C308.805 464.219 320.055 468.612 331.732 468.607V468.607Z" fill="white"/>
<path d="M354.675 440.26C346.36 432.171 336.263 426.146 325.195 422.669C336.263 426.146 346.36 432.171 354.675 440.26H357.149C362.636 434.82 367.362 428.662 371.198 421.953C349.362 398.88 328.125 401.237 328.125 401.237C328.125 401.237 349.427 398.88 371.263 421.979C372.461 419.831 373.464 417.813 374.284 415.951C365.196 403.216 349.544 394.531 341.146 393.229L339.193 392.76C336.183 392.213 333.103 392.169 330.078 392.63C333.103 392.169 336.183 392.213 339.193 392.76L344.753 377.135C342.125 376.384 339.437 375.866 336.719 375.586C333.112 381.406 323.828 400 323.828 436.888C323.828 400 333.112 381.406 336.719 375.586C335.156 375.443 333.594 375.352 331.992 375.352C330.23 375.357 328.47 375.461 326.719 375.664C321.224 383.971 310.716 403.594 310.013 433.047C320.912 437.018 335.495 439.987 354.675 440.26ZM365.209 430.768C346.641 412.669 326.146 411.719 326.146 411.719C326.146 411.719 346.641 412.669 365.209 430.768V430.768Z" stroke="#263238" stroke-width="1.1133" stroke-linecap="round" stroke-linejoin="round"/>
<path d="M309.961 433.125C310.664 403.672 321.172 384.049 326.667 375.742C322.367 376.225 318.156 377.303 314.154 378.945C304.285 393.423 298.711 410.395 298.073 427.904C301.897 429.945 305.871 431.691 309.961 433.125Z" stroke="#263238" stroke-width="1.1133" stroke-linecap="round" stroke-linejoin="round"/>
<path d="M314.154 378.906C306.101 382.226 299.138 387.731 294.048 394.799C288.959 401.867 285.947 410.217 285.352 418.906C289.186 422.432 293.462 425.443 298.073 427.865C298.711 410.356 304.285 393.383 314.154 378.906V378.906Z" stroke="#263238" stroke-width="1.1133" stroke-linecap="round" stroke-linejoin="round"/>
<path d="M374.219 415.951C375.234 413.708 376.103 411.403 376.823 409.049C374.876 402.409 371.484 396.281 366.888 391.107L363.281 403.138L366.823 391.107C363.947 387.88 360.639 385.067 356.992 382.747L353.021 397.604L357.018 382.813C353.206 380.374 349.056 378.509 344.701 377.279L339.141 392.904C347.656 394.128 360.82 399.141 374.219 415.951Z" stroke="#263238" stroke-width="1.1133" stroke-linecap="round" stroke-linejoin="round"/>
<path d="M378.607 424.18C378.607 423.503 378.607 422.878 378.607 422.148C378.607 417.715 377.975 413.305 376.732 409.049C376.012 411.403 375.143 413.708 374.128 415.951C373.569 417.327 372.908 418.658 372.149 419.935C372.227 420.013 371.029 421.901 371.107 421.979C371.185 422.057 369.805 424.323 369.805 424.245C366.706 429.753 357.357 440.299 357.513 440.299C357.357 440.299 352.461 444.74 349.792 446.979C344.909 451.023 339.735 454.701 334.31 457.982H334.649H334.31C328.975 461.206 323.458 464.119 317.787 466.706C322.341 468.139 327.088 468.868 331.862 468.867C332.656 468.867 333.438 468.867 334.206 468.867C343.75 463.672 358.919 451.823 378.607 424.18Z" stroke="#263238" stroke-width="1.1133" stroke-linecap="round" stroke-linejoin="round"/>
<path d="M378.607 424.18C358.919 451.823 343.75 463.672 334.284 468.75C345.892 468.166 356.866 463.275 365.062 455.033C373.258 446.792 378.087 435.791 378.607 424.18V424.18Z" stroke="#263238" stroke-width="1.1133" stroke-linecap="round" stroke-linejoin="round"/>
<path d="M295.43 451.263C301.207 458.526 309.018 463.902 317.865 466.706C323.536 464.119 329.053 461.206 334.388 457.982C323.268 460.039 305.872 454.935 295.43 451.263Z" stroke="#263238" stroke-width="1.1133" stroke-linecap="round" stroke-linejoin="round"/>
<path d="M334.388 457.982C339.813 454.701 344.988 451.023 349.87 446.979C316.289 450.417 295.573 440.013 286.771 434.102C288.432 440.362 291.381 446.207 295.43 451.263C305.873 454.935 323.268 460.039 334.388 457.982Z" stroke="#263238" stroke-width="1.1133" stroke-linecap="round" stroke-linejoin="round"/>
<path d="M349.87 446.979C352.539 444.74 354.948 442.5 357.149 440.286H354.675C354.857 440.456 355.039 440.625 355.208 440.807C355.039 440.625 354.857 440.456 354.675 440.286C335.495 440.013 320.912 437.044 309.961 433.151C293.958 427.604 288.19 421.641 285.352 418.971C285.274 420.039 285.221 421.094 285.221 422.174C285.223 426.209 285.744 430.226 286.771 434.128C295.573 440.013 316.289 450.417 349.87 446.979Z" stroke="#263238" stroke-width="1.1133" stroke-linecap="round" stroke-linejoin="round"/>
<path d="M331.732 468.607C357.484 468.607 378.359 447.731 378.359 421.979C378.359 396.227 357.484 375.352 331.732 375.352C305.98 375.352 285.104 396.227 285.104 421.979C285.104 447.731 305.98 468.607 331.732 468.607Z" stroke="#263238" stroke-width="1.1133" stroke-linecap="round" stroke-linejoin="round"/>
<path d="M417.617 342.292C417.617 342.292 414.427 331.94 405.13 328.216C398.62 325.612 391.237 326.315 384.531 327.474C372.057 329.648 361.172 334.609 349.375 338.841C349.375 338.841 354.427 336.979 375.143 347.083C382.773 350.794 391.497 353.685 400.221 353.49C407.214 353.333 417.969 351.328 417.617 342.292Z" fill="#92E3A9"/>
<path d="M418.737 311.862C418.737 311.862 418.737 301.016 410.924 294.779C405.482 290.43 398.164 288.932 391.393 288.112C378.815 286.589 366.966 288.19 354.414 288.828C354.414 288.828 359.792 288.516 376.706 304.167C382.943 309.922 390.469 315.208 398.841 317.539C405.586 319.414 416.445 320.612 418.737 311.862Z" fill="#92E3A9"/>
<path d="M440.104 352.109C440.104 352.109 431.653 345.325 431.627 335.312C431.627 328.346 434.974 321.693 438.529 315.898C445.143 305.091 453.763 296.81 462.07 287.37C462.07 287.37 458.476 291.38 460.221 314.362C460.872 322.826 460.325 332.005 456.927 340.039C454.258 346.497 448.437 355.755 440.104 352.109Z" fill="#92E3A9"/>
<path d="M470.052 368.75C470.052 368.75 468.854 357.982 475.911 350.872C480.807 345.938 487.904 343.594 494.505 342.005C506.823 339.036 518.776 339.258 531.315 338.438C531.315 338.438 525.951 338.737 510.95 356.237C505.43 362.747 498.568 368.802 490.482 372.096C484.036 374.74 473.385 377.175 470.052 368.75Z" fill="#92E3A9"/>
<path d="M468.138 330.352C468.138 330.352 457.396 328.88 452.24 320.299C448.646 314.336 448.112 306.888 448.177 300.091C448.307 287.435 451.458 275.885 453.737 263.529C453.737 263.529 452.708 268.815 466.016 287.63C470.911 294.57 475.13 302.721 476.432 311.367C477.357 318.307 477.109 329.232 468.138 330.352Z" fill="#92E3A9"/>
<path d="M499.05 311.068C499.05 311.068 506.771 318.672 516.719 317.578C523.633 316.784 529.857 312.656 535.195 308.464C545.143 300.651 552.37 291.094 560.768 281.758C560.768 281.758 557.214 285.781 534.18 286.732C525.703 287.083 516.654 288.685 509.063 293.008C502.969 296.419 494.466 303.281 499.05 311.068Z" fill="#92E3A9"/>
<path d="M490.104 303.555C490.104 303.555 500.886 304.635 507.917 297.513C512.813 292.552 515.078 285.443 516.602 278.815C519.44 266.484 519.102 254.518 519.779 241.979C519.779 241.979 519.544 247.344 502.188 262.526C495.807 268.112 489.753 275.039 486.563 283.151C483.971 289.674 481.641 300.352 490.104 303.555Z" fill="#92E3A9"/>
<path d="M451.602 408.516L432.982 362.695L411.51 309.714" stroke="#263238" stroke-width="1.1133" stroke-linecap="round" stroke-linejoin="round"/>
<path d="M455.898 400.638L474.505 336.927L494.557 297.552" stroke="#263238" stroke-width="1.1133" stroke-linecap="round" stroke-linejoin="round"/>
<path d="M463.047 375.586L481.667 364.844" stroke="#263238" stroke-width="1.1133" stroke-linecap="round" stroke-linejoin="round"/>
<path d="M474.505 336.927L465.195 316.159" stroke="#263238" stroke-width="1.1133" stroke-linecap="round" stroke-linejoin="round"/>
<path d="M486.159 316.263L508.867 306.133" stroke="#263238" stroke-width="1.1133" stroke-linecap="round" stroke-linejoin="round"/>
<path d="M436.562 371.289L444.44 339.792" stroke="#263238" stroke-width="1.1133" stroke-linecap="round" stroke-linejoin="round"/>
<path d="M426.12 347.344L407.93 337.643" stroke="#263238" stroke-width="1.1133" stroke-linecap="round" stroke-linejoin="round"/>
<path d="M461.146 431.419H445.625C443.088 431.418 440.63 430.532 438.677 428.913C436.723 427.295 435.395 425.045 434.922 422.552L429.401 393.477H477.37L471.862 422.552C471.386 425.046 470.056 427.296 468.1 428.914C466.144 430.533 463.685 431.419 461.146 431.419V431.419Z" fill="#263238" stroke="#263238" stroke-width="1.1133" stroke-linecap="round" stroke-linejoin="round"/>
<path d="M24.2969 254.167C24.2969 250.56 25.9635 247.904 29.7135 247.904C33.4635 247.904 35.1953 250.508 35.1953 254.167V266.823C35.1953 270.43 33.5286 273.086 29.7135 273.086C25.8984 273.086 24.2969 270.482 24.2969 266.823V254.167ZM25.9245 266.927C25.9245 269.622 26.9922 271.602 29.7135 271.602C32.4349 271.602 33.6198 269.622 33.6198 266.927V254.062C33.6198 251.367 32.526 249.388 29.7135 249.388C26.901 249.388 25.9245 251.367 25.9245 254.062V266.927Z" fill="#263238"/>
<path d="M37.7605 254.167C37.7605 250.56 39.4272 247.904 43.1772 247.904C46.9272 247.904 48.6589 250.508 48.6589 254.167V266.823C48.6589 270.43 46.9923 273.086 43.1772 273.086C39.3621 273.086 37.7605 270.482 37.7605 266.823V254.167ZM39.3881 266.927C39.3881 269.622 40.4558 271.602 43.1772 271.602C45.8985 271.602 47.0834 269.622 47.0834 266.927V254.062C47.0834 251.367 45.9897 249.388 43.1772 249.388C40.3647 249.388 39.3881 251.367 39.3881 254.062V266.927Z" fill="#263238"/>
<path d="M56.4844 248.112C60.3126 248.112 61.797 250.521 61.797 254.128V256.823C61.797 260.729 59.9871 262.682 56.0678 262.682H52.9819V272.878H51.3542V248.138L56.4844 248.112ZM56.0678 261.198C58.9324 261.198 60.1693 259.896 60.1693 256.927V254.023C60.1693 251.341 59.2449 249.596 56.4844 249.596H52.9819V261.198H56.0678Z" fill="#263238"/>
<path d="M74.6745 254.089V254.622H73.112V253.984C73.112 251.38 72.1224 249.388 69.4401 249.388C66.7578 249.388 65.7552 251.302 65.7552 253.906C65.7552 259.909 74.7005 260.013 74.7005 266.849C74.7005 270.417 73.151 273.034 69.362 273.034C65.5729 273.034 64.0234 270.43 64.0234 266.849V265.547H65.5859V266.927C65.5859 269.531 66.6016 271.484 69.3229 271.484C72.0443 271.484 73.0729 269.57 73.0729 266.927C73.0729 260.977 64.1276 260.872 64.1276 253.984C64.1276 250.26 65.7552 247.865 69.3359 247.826C72.9167 247.786 74.6745 250.521 74.6745 254.089Z" fill="#263238"/>
<path d="M78.737 269.766V272.878H77.1484V269.766H78.737Z" fill="#263238"/>
<path d="M83.1641 269.766V272.878H81.5625V269.766H83.1641Z" fill="#263238"/>
<path d="M87.5781 269.766V272.878H85.9375V269.766H87.5781Z" fill="#263238"/>
<path d="M29.5313 284.141C33.3595 284.141 34.8438 286.536 34.8438 290.143V292.839C34.8438 296.745 33.0339 298.711 29.1147 298.711H26.0417V308.893H24.4011V284.154L29.5313 284.141ZM29.1147 297.161C31.9792 297.161 33.2162 295.859 33.2162 292.878V289.974C33.2162 287.292 32.2917 285.56 29.5313 285.56H26.0417V297.161H29.1147Z" fill="#263238"/>
<path d="M39.1926 303.385L37.9556 308.867H36.4583L41.8619 284.128H44.2708L49.7916 308.867H48.177L46.8749 303.385H39.1926ZM39.44 301.966H46.6536L42.9687 285.977L39.44 301.966Z" fill="#263238"/>
<path d="M62.7865 290.182V292.018H61.1979V290.078C61.1979 287.474 60.1823 285.404 57.4479 285.404C54.7135 285.404 53.7109 287.422 53.7109 290.078V302.956C53.7109 305.56 54.7266 307.578 57.4479 307.578C60.1693 307.578 61.1979 305.599 61.1979 302.956V297.604H57.9427V296.12H62.7865V302.839C62.7865 306.419 61.224 309.102 57.4479 309.102C53.6719 309.102 52.1094 306.419 52.1094 302.839V290.182C52.1094 286.615 53.6589 283.919 57.4479 283.919C61.237 283.919 62.7865 286.615 62.7865 290.182Z" fill="#263238"/>
<path d="M73.8932 295.573V297.057H67.1354V307.383H75.2734V308.867H65.5078V284.128H75.2734V285.612H67.1354V295.573H73.8932Z" fill="#263238"/>
<path d="M84.8958 308.893H83.4114V284.154H85.5338L92.9556 304.987V284.154H94.44V308.893H92.6431L84.8307 286.758L84.8958 308.893Z" fill="#263238"/>
<path d="M97.1355 290.182C97.1355 286.575 98.7891 283.919 102.539 283.919C106.289 283.919 108.021 286.523 108.021 290.182V302.839C108.021 306.445 106.367 309.102 102.539 309.102C98.711 309.102 97.1355 306.497 97.1355 302.839V290.182ZM98.7631 302.956C98.7631 305.638 99.8178 307.617 102.539 307.617C105.26 307.617 106.445 305.638 106.445 302.956V290.078C106.445 287.383 105.352 285.404 102.539 285.404C99.7266 285.404 98.7631 287.383 98.7631 290.078V302.956Z" fill="#263238"/>
<path d="M114.883 308.893V285.625H109.87V284.141H121.589V285.625H116.524V308.893H114.883Z" fill="#263238"/>
<path d="M137.096 296.198V297.682H130.703V308.893H129.075V284.154H138.476V285.638H130.664V296.211L137.096 296.198Z" fill="#263238"/>
<path d="M140.846 290.182C140.846 286.575 142.513 283.919 146.263 283.919C150.013 283.919 151.745 286.523 151.745 290.182V302.839C151.745 306.445 150.078 309.102 146.263 309.102C142.448 309.102 140.846 306.497 140.846 302.839V290.182ZM142.474 302.956C142.474 305.638 143.542 307.617 146.263 307.617C148.984 307.617 150.169 305.638 150.169 302.956V290.078C150.169 287.383 149.076 285.404 146.263 285.404C143.451 285.404 142.474 287.383 142.474 290.078V302.956Z" fill="#263238"/>
<path d="M155.99 302.917C155.99 305.521 156.979 307.617 159.701 307.617C162.422 307.617 163.411 305.573 163.411 302.917V284.141H164.935V302.839C164.935 306.38 163.451 309.102 159.727 309.102C156.003 309.102 154.414 306.38 154.414 302.839V284.141H156.042L155.99 302.917Z" fill="#263238"/>
<path d="M169.271 308.893H167.786V284.154H169.909L177.331 304.987V284.154H178.815V308.893H177.018L169.271 286.758V308.893Z" fill="#263238"/>
<path d="M187.005 284.141C190.833 284.141 192.487 286.641 192.487 290.286V302.734C192.487 306.38 190.833 308.893 187.005 308.893H181.562V284.154L187.005 284.141ZM187.005 307.409C189.766 307.409 190.911 305.534 190.911 302.812V290.221C190.911 287.5 189.753 285.625 187.005 285.625H183.216V307.409H187.005Z" fill="#263238"/>
<path d="M248.893 370.156C219.909 370.156 202.487 344.44 196.302 321.823L196.094 321.029C195.764 319.932 195.659 318.78 195.785 317.642C195.911 316.504 196.265 315.403 196.827 314.404C197.388 313.406 198.145 312.532 199.052 311.833C199.959 311.134 200.998 310.625 202.106 310.337C203.214 310.048 204.369 309.987 205.502 310.155C206.634 310.324 207.722 310.719 208.698 311.317C209.674 311.915 210.52 312.704 211.185 313.637C211.849 314.569 212.319 315.627 212.565 316.745L212.721 317.331C217.422 334.544 230.221 354.219 250.755 353.086C254.616 352.952 258.406 352.008 261.879 350.314C265.351 348.62 268.429 346.215 270.912 343.255C282.175 330.339 287.214 302.253 286.094 288.086C285.988 287.177 286.066 286.256 286.324 285.378C286.582 284.499 287.015 283.682 287.596 282.975C288.176 282.268 288.894 281.685 289.705 281.261C290.516 280.837 291.405 280.582 292.317 280.509C293.23 280.436 294.147 280.548 295.015 280.838C295.883 281.128 296.684 281.59 297.37 282.197C298.055 282.803 298.612 283.541 299.005 284.367C299.399 285.194 299.622 286.091 299.662 287.005C300.964 302.773 299.245 336.667 283.737 354.44C279.768 359.114 274.874 362.915 269.363 365.604C263.853 368.293 257.845 369.812 251.719 370.065C250.768 370.13 249.818 370.156 248.893 370.156Z" fill="white"/>
<path d="M292.331 280.755C290.532 280.901 288.865 281.755 287.695 283.13C286.526 284.504 285.95 286.287 286.094 288.086C286.641 295 285.716 305.221 283.32 315.43C286.742 315.285 290.164 315.725 293.437 316.732C292.663 326.528 289.223 335.925 283.49 343.906C270.846 361.471 251.888 367.083 237.135 364.974C230.534 364.036 222.969 360.573 216.602 357.018C225.241 365.443 236.826 370.166 248.893 370.182C249.818 370.182 250.768 370.182 251.719 370.104C257.845 369.851 263.853 368.332 269.363 365.643C274.874 362.954 279.768 359.153 283.737 354.479C299.245 336.706 300.911 302.813 299.661 287.044C299.597 286.148 299.356 285.274 298.952 284.472C298.548 283.67 297.989 282.956 297.308 282.371C296.626 281.786 295.835 281.342 294.981 281.065C294.127 280.788 293.226 280.682 292.331 280.755V280.755Z" fill="#92E3A9"/>
<path opacity="0.5" d="M292.331 280.755C290.532 280.901 288.865 281.755 287.695 283.13C286.526 284.504 285.95 286.287 286.094 288.086C286.641 295 285.716 305.221 283.32 315.43C286.742 315.285 290.164 315.725 293.437 316.732C292.663 326.528 289.223 335.925 283.49 343.906C270.846 361.471 251.888 367.083 237.135 364.974C230.534 364.036 222.969 360.573 216.602 357.018C225.241 365.443 236.826 370.166 248.893 370.182C249.818 370.182 250.768 370.182 251.719 370.104C257.845 369.851 263.853 368.332 269.363 365.643C274.874 362.954 279.768 359.153 283.737 354.479C299.245 336.706 300.911 302.813 299.661 287.044C299.597 286.148 299.356 285.274 298.952 284.472C298.548 283.67 297.989 282.956 297.308 282.371C296.626 281.786 295.835 281.342 294.981 281.065C294.127 280.788 293.226 280.682 292.331 280.755V280.755Z" fill="white"/>
<path d="M248.893 370.156C219.909 370.156 202.487 344.44 196.302 321.823L196.094 321.029C195.764 319.932 195.659 318.78 195.785 317.642C195.911 316.504 196.265 315.403 196.827 314.404C197.388 313.406 198.145 312.532 199.052 311.833C199.959 311.134 200.998 310.625 202.106 310.337C203.214 310.048 204.369 309.987 205.502 310.155C206.634 310.324 207.722 310.719 208.698 311.317C209.674 311.915 210.52 312.704 211.185 313.637C211.849 314.569 212.319 315.627 212.565 316.745L212.721 317.331C217.422 334.544 230.221 354.219 250.755 353.086C254.616 352.952 258.406 352.008 261.879 350.314C265.351 348.62 268.429 346.215 270.912 343.255C282.175 330.339 287.214 302.253 286.094 288.086C285.988 287.177 286.066 286.256 286.324 285.378C286.582 284.499 287.015 283.682 287.596 282.975C288.176 282.268 288.894 281.685 289.705 281.261C290.516 280.837 291.405 280.582 292.317 280.509C293.23 280.436 294.147 280.548 295.015 280.838C295.883 281.128 296.684 281.59 297.37 282.197C298.055 282.803 298.612 283.541 299.005 284.367C299.399 285.194 299.622 286.091 299.662 287.005C300.964 302.773 299.245 336.667 283.737 354.44C279.768 359.114 274.874 362.915 269.363 365.604C263.853 368.293 257.845 369.812 251.719 370.065C250.768 370.13 249.818 370.156 248.893 370.156Z" stroke="#263238" stroke-width="1.1133" stroke-linecap="round" stroke-linejoin="round"/>
<path d="M232.175 352.539C232.865 349.349 225.235 354.336 218.841 358.984C221.206 360.983 223.752 362.757 226.445 364.284C228.724 360.573 231.511 355.612 232.175 352.539Z" fill="#92E3A9" stroke="#263238" stroke-width="1.1133" stroke-linecap="round" stroke-linejoin="round"/>
<path d="M248.893 370.156C249.818 370.156 250.768 370.156 251.719 370.078C254.485 369.923 257.234 369.535 259.935 368.919C256.341 364.232 251.393 358.034 249.974 357.565C248.346 357.018 245.208 365 243.464 369.844C245.266 370.054 247.079 370.158 248.893 370.156V370.156Z" fill="#92E3A9" stroke="#263238" stroke-width="1.1133" stroke-linecap="round" stroke-linejoin="round"/>
<path d="M212.721 317.331L212.565 316.745C212.319 315.627 211.849 314.569 211.185 313.637C210.52 312.704 209.674 311.915 208.698 311.317C207.721 310.719 206.634 310.324 205.502 310.155C204.369 309.987 203.214 310.048 202.106 310.337C200.998 310.625 199.959 311.134 199.052 311.833C198.145 312.532 197.388 313.406 196.827 314.404C196.265 315.403 195.911 316.504 195.785 317.642C195.659 318.78 195.764 319.932 196.094 321.029L196.302 321.823C198.473 329.766 201.808 337.343 206.198 344.31L221.706 336.927C217.639 330.942 214.603 324.318 212.721 317.331Z" fill="#92E3A9" stroke="#263238" stroke-width="1.1133" stroke-linecap="round" stroke-linejoin="round"/>
<path d="M283.737 354.44C284.929 353.061 286.033 351.608 287.044 350.091C282.122 348.411 274.753 346.094 272.018 346.341C268.776 346.641 273.177 357.057 275.443 361.966C278.492 359.791 281.276 357.265 283.737 354.44V354.44Z" fill="#92E3A9" stroke="#263238" stroke-width="1.1133" stroke-linecap="round" stroke-linejoin="round"/>
<path d="M284.011 326.615C283.49 327.656 289.857 332.292 294.154 335.273C295.517 331.217 296.613 327.077 297.435 322.878C292.227 323.919 284.518 325.599 284.011 326.615Z" fill="#92E3A9" stroke="#263238" stroke-width="1.1133" stroke-linecap="round" stroke-linejoin="round"/>
<path d="M299.544 307.357C299.831 303.646 299.974 300.104 299.987 296.849C295.508 299.31 290.195 302.721 290.195 304.961C290.195 307.2 295.169 307.474 299.544 307.357Z" fill="#92E3A9" stroke="#263238" stroke-width="1.1133" stroke-linecap="round" stroke-linejoin="round"/>
<path d="M229.44 206.615C229.44 206.615 216.797 243.229 223.607 271.719C225.624 280.056 229.539 287.814 235.048 294.389C240.557 300.963 247.51 306.177 255.365 309.622C255.365 309.622 236.888 316.133 241.042 326.146C245.195 336.159 261.12 329.714 266.315 326.471C271.51 323.229 278.034 313.516 278.945 307.031C279.525 303.718 279.743 300.352 279.596 296.992C279.596 296.992 300.651 294.727 314.909 283.06C314.909 283.06 327.552 293.099 336.628 291.159C345.703 289.219 358.659 273.008 357.357 258.438C356.055 243.867 347.656 243.88 342.526 246.094C339.863 247.101 337.434 248.643 335.391 250.625C335.391 250.625 342.839 241.51 335.391 228.919C333.192 225.226 330.182 222.081 326.589 219.724C322.995 217.366 318.912 215.858 314.648 215.312C314.648 215.312 310.742 194.57 299.102 186.797C287.461 179.023 245.964 170.977 229.44 206.615Z" fill="white"/>
<path d="M325.703 219.206C319.692 229.233 311.374 237.68 301.441 243.844C291.508 250.009 280.247 253.713 268.594 254.648C242.813 256.914 228.359 251.836 221.719 248.307C222.524 234.141 225.15 220.137 229.531 206.641C246.055 171.003 287.526 179.102 299.193 186.875C310.859 194.648 314.74 215.391 314.74 215.391C318.622 215.878 322.357 217.178 325.703 219.206ZM342.526 246.094C339.863 247.101 337.434 248.643 335.391 250.625C336.968 248.451 338.007 245.934 338.424 243.281C320.911 252.005 322.279 270.625 320.104 270.625C317.422 270.625 316.094 261.263 316.094 261.263C316.094 261.263 312.747 274.635 292.656 284.01C272.565 293.385 249.844 286.016 249.844 286.016C249.844 286.016 254.531 296.719 242.487 295.378C239.107 295.054 235.866 293.871 233.073 291.94C238.849 299.64 246.519 305.714 255.339 309.57C255.339 309.57 236.862 316.081 241.016 326.094C245.169 336.107 261.107 329.661 266.289 326.419C271.471 323.177 278.008 313.464 278.919 306.979C279.499 303.666 279.717 300.3 279.57 296.94C279.57 296.94 300.625 294.675 314.883 283.008C314.883 283.008 327.526 293.047 336.602 291.107C345.677 289.167 358.633 272.956 357.331 258.385C356.029 243.815 347.656 243.88 342.526 246.094Z" fill="#92E3A9"/>
<path opacity="0.5" d="M325.703 219.206C319.692 229.233 311.374 237.68 301.441 243.844C291.508 250.009 280.247 253.713 268.594 254.648C242.813 256.914 228.359 251.836 221.719 248.307C222.524 234.141 225.15 220.137 229.531 206.641C246.055 171.003 287.526 179.102 299.193 186.875C310.859 194.648 314.74 215.391 314.74 215.391C318.622 215.878 322.357 217.178 325.703 219.206ZM342.526 246.094C339.863 247.101 337.434 248.643 335.391 250.625C336.968 248.451 338.007 245.934 338.424 243.281C320.911 252.005 322.279 270.625 320.104 270.625C317.422 270.625 316.094 261.263 316.094 261.263C316.094 261.263 312.747 274.635 292.656 284.01C272.565 293.385 249.844 286.016 249.844 286.016C249.844 286.016 254.531 296.719 242.487 295.378C239.107 295.054 235.866 293.871 233.073 291.94C238.849 299.64 246.519 305.714 255.339 309.57C255.339 309.57 236.862 316.081 241.016 326.094C245.169 336.107 261.107 329.661 266.289 326.419C271.471 323.177 278.008 313.464 278.919 306.979C279.499 303.666 279.717 300.3 279.57 296.94C279.57 296.94 300.625 294.675 314.883 283.008C314.883 283.008 327.526 293.047 336.602 291.107C345.677 289.167 358.633 272.956 357.331 258.385C356.029 243.815 347.656 243.88 342.526 246.094Z" fill="white"/>
<path d="M279.661 297.018C272.673 297.204 265.736 295.786 259.382 292.872C253.028 289.958 247.426 285.625 243.008 280.208" stroke="#263238" stroke-width="1.1133" stroke-linecap="round" stroke-linejoin="round"/>
<path d="M229.44 206.615C229.44 206.615 216.797 243.229 223.607 271.719C225.624 280.056 229.539 287.814 235.048 294.389C240.557 300.963 247.51 306.177 255.365 309.622C255.365 309.622 236.888 316.133 241.042 326.146C245.195 336.159 261.12 329.714 266.315 326.471C271.51 323.229 278.034 313.516 278.945 307.031C279.525 303.718 279.743 300.352 279.596 296.992C279.596 296.992 300.651 294.727 314.909 283.06C314.909 283.06 327.552 293.099 336.628 291.159C345.703 289.219 358.659 273.008 357.357 258.438C356.055 243.867 347.656 243.88 342.526 246.094C339.863 247.101 337.434 248.643 335.391 250.625C335.391 250.625 342.839 241.51 335.391 228.919C333.192 225.226 330.182 222.081 326.589 219.724C322.995 217.366 318.912 215.858 314.648 215.312C314.648 215.312 310.742 194.57 299.102 186.797C287.461 179.023 245.964 170.977 229.44 206.615Z" stroke="#263238" stroke-width="1.1133" stroke-linecap="round" stroke-linejoin="round"/>
<path d="M335.391 250.677C335.391 250.677 328.594 255.221 325.352 269.154" stroke="#263238" stroke-width="1.1133" stroke-linecap="round" stroke-linejoin="round"/>
<path d="M347.878 256.641C347.083 259.01 344.909 260.43 343.034 259.792C341.159 259.154 340.299 256.719 341.094 254.349C341.888 251.979 344.062 250.56 345.937 251.198C347.812 251.836 348.685 254.271 347.878 256.641Z" fill="white" stroke="#263238" stroke-width="1.1133" stroke-linecap="round" stroke-linejoin="round"/>
<path d="M354.583 260.859C353.789 263.229 351.615 264.648 349.74 264.01C347.865 263.372 346.992 260.938 347.799 258.568C348.607 256.198 350.768 254.779 352.643 255.417C354.518 256.055 355.391 258.49 354.583 260.859Z" fill="white" stroke="#263238" stroke-width="1.1133" stroke-linecap="round" stroke-linejoin="round"/>
<path d="M356.016 267.175C355.756 267.61 355.378 267.964 354.925 268.193C354.472 268.422 353.964 268.519 353.459 268.471C352.953 268.423 352.472 268.233 352.071 267.922C351.669 267.612 351.364 267.194 351.191 266.717C351.018 266.24 350.983 265.723 351.092 265.227C351.2 264.732 351.447 264.277 351.804 263.916C352.16 263.555 352.612 263.302 353.106 263.188C353.601 263.073 354.117 263.101 354.596 263.268C355.288 263.614 355.821 264.212 356.085 264.938C356.349 265.665 356.324 266.465 356.016 267.175V267.175Z" fill="white" stroke="#263238" stroke-width="1.1133" stroke-linecap="round" stroke-linejoin="round"/>
<path d="M347.461 275.846C345.117 280.078 340.43 281.953 336.979 280.039C333.529 278.125 332.643 273.164 334.987 268.932C337.331 264.701 342.018 262.826 345.469 264.74C348.919 266.654 349.805 271.615 347.461 275.846Z" fill="white" stroke="#263238" stroke-width="1.1133" stroke-linecap="round" stroke-linejoin="round"/>
<path d="M255.365 309.648C259.729 311.68 264.691 312.028 269.297 310.625" stroke="#263238" stroke-width="1.1133" stroke-linecap="round" stroke-linejoin="round"/>
<path d="M241.107 326.172C241.107 326.172 242.409 320.664 250.495 316.784" stroke="#263238" stroke-width="1.1133" stroke-linecap="round" stroke-linejoin="round"/>
<path d="M249.206 331.042C249.206 331.042 252.448 323.229 257.956 319.701" stroke="#263238" stroke-width="1.1133" stroke-linecap="round" stroke-linejoin="round"/>
<path d="M121.432 241.406C120.055 240.307 118.957 238.898 118.228 237.293C117.5 235.689 117.161 233.935 117.24 232.174V201.302H37.6042C35.6589 201.375 33.7209 201.026 31.9229 200.28C30.1249 199.534 28.5096 198.408 27.1875 196.979C24.5828 194.224 23.1537 190.562 23.2031 186.771C23.1926 183.69 24.0991 180.676 25.8073 178.112L102.083 58.2422C107.813 49.3967 115.425 44.974 124.922 44.974C130.028 44.8005 135.013 46.5474 138.893 49.8698C142.617 53.125 144.479 57.9644 144.479 64.388V180.911H164.74C166.139 180.827 167.54 181.052 168.843 181.569C170.146 182.087 171.319 182.885 172.279 183.906C173.992 185.914 174.933 188.467 174.933 191.107C174.933 193.746 173.992 196.299 172.279 198.307C171.319 199.329 170.146 200.127 168.843 200.644C167.54 201.162 166.139 201.386 164.74 201.302H144.336V232.174C144.42 233.922 144.099 235.664 143.396 237.266C142.693 238.868 141.629 240.285 140.287 241.406C137.665 243.604 134.345 244.791 130.925 244.753C127.467 244.78 124.108 243.596 121.432 241.406ZM117.188 180.911V73.6198L50.4037 180.911H117.188Z" fill="#263238"/>
<path d="M231.94 242.031C224.135 238.625 217.223 233.46 211.745 226.94C206.242 220.051 201.945 212.281 199.036 203.958C195.739 194.967 193.421 185.647 192.122 176.159C190.767 165.829 190.115 155.419 190.169 145C190.169 76.3629 213.607 42.0443 260.482 42.0443C307.357 42.0443 330.738 76.3629 330.625 145C330.671 155.369 330.041 165.729 328.737 176.016C327.48 185.505 325.184 194.828 321.888 203.815C318.979 212.138 314.682 219.908 309.18 226.797C303.694 233.325 296.786 238.51 288.984 241.953C280.015 245.919 270.287 247.874 260.482 247.682C250.672 247.879 240.935 245.951 231.94 242.031V242.031ZM274.336 222.331C278.258 220.658 281.818 218.239 284.818 215.208C287.855 211.974 290.352 208.272 292.213 204.245C294.267 199.978 295.928 195.532 297.174 190.964C298.487 185.986 299.445 180.921 300.039 175.807C300.742 170.165 301.211 164.996 301.445 160.299C301.68 155.603 301.792 150.503 301.784 145C301.784 139.227 301.671 133.898 301.445 129.01C301.22 124.123 300.729 118.88 299.974 113.281C299.326 108.171 298.347 103.109 297.044 98.125C295.812 93.6021 294.151 89.2072 292.083 85C290.208 81.0361 287.706 77.4001 284.674 74.2318C281.692 71.2623 278.152 68.9125 274.258 67.3177C265.355 63.8805 255.491 63.8805 246.588 67.3177C242.723 68.8933 239.208 71.2214 236.25 74.1667C233.241 77.3212 230.745 80.9284 228.854 84.8568C226.768 89.0261 225.127 93.4036 223.958 97.9167C222.687 102.93 221.73 108.018 221.094 113.151C220.338 118.828 219.848 124.115 219.622 129.01C219.397 133.906 219.279 139.236 219.271 145C219.271 150.495 219.388 155.616 219.622 160.365C219.857 165.113 220.321 170.321 221.016 175.99C221.616 181.102 222.573 186.167 223.88 191.146C225.109 195.713 226.752 200.158 228.789 204.427C230.631 208.43 233.106 212.11 236.12 215.326C239.097 218.336 242.636 220.734 246.536 222.383C255.448 226.011 265.424 226.011 274.336 222.383V222.331Z" fill="#263238"/>
<path d="M451.276 241.406C449.899 240.307 448.801 238.898 448.072 237.293C447.343 235.689 447.005 233.935 447.083 232.174V201.302H367.448C365.503 201.375 363.565 201.026 361.767 200.28C359.969 199.534 358.353 198.408 357.031 196.979C354.427 194.224 352.997 190.562 353.047 186.771C353.036 183.69 353.943 180.676 355.651 178.112L431.927 58.2422C437.604 49.3967 445.195 44.974 454.701 44.974C459.833 44.7807 464.849 46.5289 468.75 49.8698C472.474 53.125 474.336 57.9644 474.336 64.388V180.911H494.596C495.996 180.827 497.397 181.052 498.699 181.569C500.002 182.087 501.175 182.885 502.135 183.906C503.849 185.914 504.79 188.467 504.79 191.107C504.79 193.746 503.849 196.299 502.135 198.307C501.175 199.329 500.002 200.127 498.699 200.644C497.397 201.162 495.996 201.386 494.596 201.302H474.18V232.174C474.264 233.922 473.942 235.664 473.24 237.266C472.537 238.868 471.473 240.285 470.13 241.406C467.509 243.604 464.188 244.791 460.768 244.753C457.31 244.78 453.952 243.596 451.276 241.406V241.406ZM447.083 180.911V73.6198L380.299 180.911H447.083Z" fill="#263238"/>
<path d="M203.19 188.151C203.19 188.151 189.583 207.266 187.643 226.706C185.703 246.146 187.969 259.102 193.802 263.971C199.635 268.841 205.456 266.888 208.698 262.344C211.94 257.799 206.758 241.927 206.758 241.927C206.758 241.927 212.266 226.706 220.69 216.016C229.114 205.326 230.729 203.698 230.729 203.698C230.729 203.698 216.146 187.174 203.19 188.151Z" fill="white"/>
<path d="M203.19 188.151C200.221 192.538 197.588 197.143 195.312 201.927C201.823 204.531 211.914 209.87 218.32 219.323C219.102 218.19 219.909 217.07 220.742 216.016C229.167 205.326 230.781 203.698 230.781 203.698C230.781 203.698 216.146 187.174 203.19 188.151Z" fill="#92E3A9"/>
<path opacity="0.5" d="M203.19 188.151C200.221 192.538 197.588 197.143 195.312 201.927C201.823 204.531 211.914 209.87 218.32 219.323C219.102 218.19 219.909 217.07 220.742 216.016C229.167 205.326 230.781 203.698 230.781 203.698C230.781 203.698 216.146 187.174 203.19 188.151Z" fill="white"/>
<path d="M203.19 188.151C203.19 188.151 189.583 207.266 187.643 226.706C185.703 246.146 187.969 259.102 193.802 263.971C199.635 268.841 205.456 266.888 208.698 262.344C211.94 257.799 206.758 241.927 206.758 241.927C206.758 241.927 212.266 226.706 220.69 216.016C229.114 205.326 230.729 203.698 230.729 203.698C230.729 203.698 216.146 187.174 203.19 188.151Z" stroke="#263238" stroke-width="1.1133" stroke-linecap="round" stroke-linejoin="round"/>
<path d="M193.802 263.971C192.211 259.723 191.438 255.213 191.523 250.677" stroke="#263238" stroke-width="1.1133" stroke-linecap="round" stroke-linejoin="round"/>
<path d="M202.539 265.911C202.539 265.911 199.31 260.404 198.984 251.003" stroke="#263238" stroke-width="1.1133" stroke-linecap="round" stroke-linejoin="round"/>
<path d="M207.409 222.812C207.409 219.401 200.898 212.734 191.849 209.792C190.632 212.964 189.627 216.213 188.841 219.518C192.357 220.12 195.771 221.211 198.984 222.76C203.841 225.404 207.409 226.706 207.409 222.812Z" fill="#92E3A9" stroke="#263238" stroke-width="1.1133" stroke-linecap="round" stroke-linejoin="round"/>
<path d="M202.396 189.31C200.297 192.51 198.367 195.817 196.615 199.219C199.355 199.943 201.983 201.038 204.427 202.474C214.466 208.294 216.406 208.984 213.177 200.521C211.224 195.208 206.562 191.602 202.396 189.31Z" fill="#92E3A9" stroke="#263238" stroke-width="1.1133" stroke-linecap="round" stroke-linejoin="round"/>
<path d="M309.766 178.711C309.766 178.711 325.182 196.393 329.023 215.56C332.865 234.727 331.888 247.839 326.549 253.242C321.211 258.646 315.234 257.292 311.562 253.086C307.891 248.88 311.562 232.591 311.562 232.591C311.562 232.591 304.583 217.969 295.156 208.151C285.729 198.333 283.945 196.888 283.945 196.888C283.945 196.888 296.771 179.01 309.766 178.711Z" fill="white"/>
<path d="M309.766 178.711C296.745 179.01 283.88 196.94 283.88 196.94C283.88 196.94 285.651 198.398 295.091 208.203C296.857 210.062 298.517 212.019 300.065 214.062C304.992 205.74 312.031 198.867 320.469 194.141C317.364 188.691 313.782 183.528 309.766 178.711V178.711Z" fill="#92E3A9"/>
<path opacity="0.5" d="M309.766 178.711C296.745 179.01 283.88 196.94 283.88 196.94C283.88 196.94 285.651 198.398 295.091 208.203C296.857 210.062 298.517 212.019 300.065 214.062C304.992 205.74 312.031 198.867 320.469 194.141C317.364 188.691 313.782 183.528 309.766 178.711V178.711Z" fill="white"/>
<path d="M309.766 178.711C309.766 178.711 325.182 196.393 329.023 215.56C332.865 234.727 331.888 247.839 326.549 253.242C321.211 258.646 315.234 257.292 311.562 253.086C307.891 248.88 311.562 232.591 311.562 232.591C311.562 232.591 304.583 217.969 295.156 208.151C285.729 198.333 283.945 196.888 283.945 196.888C283.945 196.888 296.771 179.01 309.766 178.711Z" stroke="#263238" stroke-width="1.1133" stroke-linecap="round" stroke-linejoin="round"/>
<path d="M326.55 253.242C327.717 248.864 328.044 244.305 327.513 239.805" stroke="#263238" stroke-width="1.1133" stroke-linecap="round" stroke-linejoin="round"/>
<path d="M318.034 256.029C318.034 256.029 320.729 250.234 320.13 240.846" stroke="#263238" stroke-width="1.1133" stroke-linecap="round" stroke-linejoin="round"/>
<path d="M308.971 213.62C308.646 210.221 314.466 202.956 323.19 199.193C324.699 202.227 326.004 205.359 327.096 208.568C323.663 209.525 320.377 210.949 317.331 212.799C312.774 215.859 309.362 217.448 308.971 213.62Z" fill="#92E3A9" stroke="#263238" stroke-width="1.1133" stroke-linecap="round" stroke-linejoin="round"/>
<path d="M310.664 179.792C313.059 182.747 315.293 185.828 317.357 189.023C314.691 190.01 312.173 191.355 309.87 193.021C300.456 199.818 298.581 200.651 300.976 191.953C302.474 186.523 306.745 182.474 310.664 179.792Z" fill="#92E3A9" stroke="#263238" stroke-width="1.1133" stroke-linecap="round" stroke-linejoin="round"/>
<path d="M201.914 171.615C201.914 171.615 197.904 185.143 199.414 190.651C200.924 196.159 207.93 191.159 214.948 197.161C221.966 203.164 228.464 213.997 255.039 216.003C281.615 218.008 297.656 203.672 303.216 195.651C308.776 187.63 308.229 178.112 317.747 177.617C327.266 177.122 319.258 158.568 316.25 155.56C316.25 155.56 334.792 127.995 334.792 120.977C334.792 113.958 317.253 115.456 295.729 121.979C295.729 121.979 279.687 113.451 250.612 118.464C221.536 123.477 213.021 132.005 213.021 132.005C213.021 132.005 176.927 136.51 174.427 141.016C171.927 145.521 179.362 164.596 201.914 171.615Z" fill="white"/>
<path d="M317.708 177.63C327.24 177.122 319.219 158.581 316.211 155.573C316.211 155.573 319.74 150.365 323.711 143.854C312.943 138.229 302.37 135.104 299.557 138.268C293.503 145.065 296.797 158.086 299.557 170.82C302.318 183.555 291.289 188.984 283.581 200C275.872 211.016 264.87 198.893 264.87 198.893C260.964 214.87 244.492 204.401 244.492 204.401C231.836 200.495 210.365 187.891 214.766 179.076C219.167 170.26 220.274 162.005 212.565 154.857C204.857 147.708 174.115 141.758 174.115 141.758C172.5 147.188 180.3 164.974 201.927 171.706C201.927 171.706 197.917 185.234 199.427 190.742C200.938 196.25 207.943 191.25 214.961 197.253C221.979 203.255 228.477 214.089 255.052 216.094C281.628 218.099 297.669 203.763 303.229 195.742C308.789 187.721 308.177 178.125 317.708 177.63Z" fill="#92E3A9"/>
<path opacity="0.5" d="M317.708 177.63C327.24 177.122 319.219 158.581 316.211 155.573C316.211 155.573 319.74 150.365 323.711 143.854C312.943 138.229 302.37 135.104 299.557 138.268C293.503 145.065 296.797 158.086 299.557 170.82C302.318 183.555 291.289 188.984 283.581 200C275.872 211.016 264.87 198.893 264.87 198.893C260.964 214.87 244.492 204.401 244.492 204.401C231.836 200.495 210.365 187.891 214.766 179.076C219.167 170.26 220.274 162.005 212.565 154.857C204.857 147.708 174.115 141.758 174.115 141.758C172.5 147.188 180.3 164.974 201.927 171.706C201.927 171.706 197.917 185.234 199.427 190.742C200.938 196.25 207.943 191.25 214.961 197.253C221.979 203.255 228.477 214.089 255.052 216.094C281.628 218.099 297.669 203.763 303.229 195.742C308.789 187.721 308.177 178.125 317.708 177.63Z" fill="white"/>
<path d="M278.503 180.651C278.88 183.828 271.823 187.253 262.774 188.307C253.724 189.362 246.068 187.643 245.69 184.401C245.313 181.159 252.37 177.813 261.432 176.758C270.495 175.703 278.138 177.487 278.503 180.651Z" fill="#92E3A9"/>
<path opacity="0.5" d="M278.503 180.651C278.88 183.828 271.823 187.253 262.774 188.307C253.724 189.362 246.068 187.643 245.69 184.401C245.313 181.159 252.37 177.813 261.432 176.758C270.495 175.703 278.138 177.487 278.503 180.651Z" fill="white"/>
<path d="M201.914 171.615C201.914 171.615 197.904 185.143 199.414 190.651C200.924 196.159 207.93 191.159 214.948 197.161C221.966 203.164 228.464 213.997 255.039 216.003C281.615 218.008 297.656 203.672 303.216 195.651C308.776 187.63 308.229 178.112 317.747 177.617C327.266 177.122 319.258 158.568 316.25 155.56C316.25 155.56 334.792 127.995 334.792 120.977C334.792 113.958 317.253 115.456 295.729 121.979C295.729 121.979 279.687 113.451 250.612 118.464C221.536 123.477 213.021 132.005 213.021 132.005C213.021 132.005 176.927 136.51 174.427 141.016C171.927 145.521 179.362 164.596 201.914 171.615Z" stroke="#263238" stroke-width="1.1133" stroke-miterlimit="10"/>
<path d="M305.586 131.51C292.565 140.26 297.161 149.01 302.982 153.867C306.536 156.836 312.266 156.471 316.185 155.638C316.185 155.638 334.727 128.073 334.727 121.055C334.74 120.99 318.542 122.695 305.586 131.51Z" fill="#92E3A9" stroke="#263238" stroke-width="1.1133" stroke-miterlimit="10"/>
<path d="M174.102 141.667C172.487 147.096 180.287 164.883 201.914 171.615C201.914 171.615 218.425 170 212.917 156.719C207.774 144.323 181.771 141.237 174.102 141.667Z" fill="#92E3A9" stroke="#263238" stroke-width="1.1133" stroke-miterlimit="10"/>
<path d="M250.534 118.49C248.828 118.789 247.188 119.102 245.612 119.414C248.216 132.565 252.5 154.466 256.328 154.466C260.156 154.466 263.086 130.456 264.336 117.005C259.708 117.2 255.098 117.696 250.534 118.49V118.49Z" fill="#92E3A9" stroke="#263238" stroke-width="1.1133" stroke-miterlimit="10"/>
<path d="M235.599 150.56C239.583 148.216 238.984 130.599 238.346 121.042C234.234 122.063 230.186 123.329 226.224 124.831C227.669 133.776 231.341 153.06 235.599 150.56Z" fill="#92E3A9" stroke="#263238" stroke-width="1.1133" stroke-miterlimit="10"/>
<path d="M274.154 142.461C278.229 143.893 280.521 129.245 281.81 117.969C277.694 117.298 273.532 116.945 269.362 116.914C269.232 126.172 269.74 140.911 274.154 142.461Z" fill="#92E3A9" stroke="#263238" stroke-width="1.1133" stroke-miterlimit="10"/>
<path d="M268.698 193.164C264.895 192.164 260.854 192.663 257.409 194.557C257.258 194.645 257.129 194.766 257.033 194.912C256.938 195.058 256.877 195.224 256.857 195.397C256.837 195.57 256.857 195.746 256.917 195.91C256.977 196.074 257.074 196.221 257.201 196.341L264.115 202.852C264.244 202.973 264.401 203.062 264.572 203.111C264.742 203.16 264.922 203.167 265.097 203.133C265.271 203.099 265.434 203.023 265.574 202.913C265.713 202.803 265.825 202.662 265.898 202.5L269.44 194.688C269.503 194.54 269.534 194.38 269.53 194.219C269.526 194.059 269.488 193.901 269.418 193.756C269.347 193.611 269.246 193.484 269.122 193.382C268.998 193.28 268.853 193.205 268.698 193.164V193.164Z" fill="#92E3A9" stroke="#263238" stroke-width="1.1133" stroke-linecap="round" stroke-linejoin="round"/>
<path d="M252.266 182.292C253.216 184.805 252.839 187.279 251.419 187.813C250 188.346 248.073 186.758 247.109 184.258C246.146 181.758 246.537 179.271 247.956 178.737C249.375 178.203 251.302 179.792 252.266 182.292Z" fill="#263238"/>
<path d="M271.12 180.508C270.625 183.112 271.432 185.521 272.93 185.794C274.427 186.068 276.042 184.167 276.537 181.523C277.031 178.88 276.224 176.523 274.727 176.237C273.229 175.951 271.615 177.878 271.12 180.508Z" fill="#263238"/>
<path d="M265.899 202.487C265.899 202.487 256.654 215.039 248.229 202.409" stroke="#263238" stroke-width="1.1133" stroke-linecap="round" stroke-linejoin="round"/>
<path d="M264.115 202.839C264.115 202.839 270.261 209.206 276.745 205.638C283.229 202.07 279.349 196.523 279.349 196.523" stroke="#263238" stroke-width="1.1133" stroke-linecap="round" stroke-linejoin="round"/>
<path d="M235.925 172.266C235.925 172.266 238.19 164.167 248.88 166.107" stroke="#263238" stroke-width="3.33991" stroke-linecap="round" stroke-linejoin="round"/>
<path d="M268.32 164.818C268.32 164.818 276.419 159.961 283.867 167.734" stroke="#263238" stroke-width="3.33991" stroke-linecap="round" stroke-linejoin="round"/>
<path d="M229.766 193.984L237.539 195.924" stroke="#263238" stroke-width="1.1133" stroke-miterlimit="10" stroke-linecap="round"/>
<path d="M236.562 198.841L229.766 200.13" stroke="#263238" stroke-width="1.1133" stroke-miterlimit="10" stroke-linecap="round"/>
<path d="M237.865 202.409L233.008 205" stroke="#263238" stroke-width="1.1133" stroke-miterlimit="10" stroke-linecap="round"/>
<path d="M287.109 190.417L293.919 188.789" stroke="#263238" stroke-width="1.1133" stroke-miterlimit="10" stroke-linecap="round"/>
<path d="M288.412 193.659H292.943" stroke="#263238" stroke-width="1.1133" stroke-miterlimit="10" stroke-linecap="round"/>
<path d="M289.375 196.901L295.534 198.516" stroke="#263238" stroke-width="1.1133" stroke-miterlimit="10" stroke-linecap="round"/>
</svg>
