<svg width="520" height="500" viewBox="0 0 520 500" fill="none" xmlns="http://www.w3.org/2000/svg">
<path d="M64.55 338.925L46 339.275L36.6125 339.425C33.475 339.425 30.3625 339.425 27.175 339.425H26.625V338.862V323.075V322.5H27.25L45.9375 322.588C52.1875 322.588 58.4375 322.725 64.6875 322.788H65.025V323.125C65.025 325.8 64.9125 328.462 64.8625 331.1L64.55 338.925ZM64.55 338.925L64.3625 330.962C64.3625 328.337 64.225 325.725 64.2 323.138L64.55 323.475C58.3 323.55 52.05 323.675 45.8 323.688L27.175 323.75L27.8 323.125L27.7375 338.912L27.175 338.362C30.2625 338.362 33.3375 338.362 36.425 338.425L45.7125 338.575L64.55 338.925Z" fill="#EBEBEB"/>
<path d="M43.75 358.838L25.2125 359.187L15.8125 359.337C12.675 359.337 9.5625 359.337 6.375 359.337H5.825V358.775L5.75 342.988V342.363H6.375L25 342.5C31.25 342.5 37.5 342.65 43.6875 342.713H44.025V343.05C44.025 345.725 43.925 348.388 43.8625 351.025L43.75 358.838ZM43.75 358.838L43.575 350.875C43.575 348.25 43.4375 345.638 43.4125 343.05L43.75 343.387C37.5 343.462 31.25 343.588 25.0625 343.6L6.375 343.675L7 343.05L6.9375 358.838L6.375 358.287C9.4625 358.287 12.5375 358.287 15.625 358.35L24.925 358.5L43.75 358.838Z" fill="#EBEBEB"/>
<path d="M43.75 17.1375L25.1625 17.5L15.7625 17.6375C12.625 17.6375 9.51251 17.6375 6.32501 17.7125H5.77501V17.15L5.70001 1.36249V0.737488H6.32501L25 0.799987C31.25 0.799987 37.5 0.949989 43.6875 1.01249H44.025V1.34999C44.025 4.02499 43.925 6.68749 43.8625 9.32499L43.75 17.1375ZM43.75 17.1375L43.575 9.17499C43.575 6.54999 43.4375 3.93749 43.4125 1.34999L43.75 1.68749C37.5 1.68749 31.25 1.88749 25.0625 1.89999L6.37501 1.97499L7.00001 1.34999L6.93751 17.1375L6.37501 16.5875C9.46251 16.5875 12.5375 16.5875 15.625 16.5875L24.925 16.7375L43.75 17.1375Z" fill="#EBEBEB"/>
<path d="M516.175 17.1375L497.625 17.5L488.237 17.6375C485.1 17.6375 481.988 17.6375 478.8 17.7125H478.25V17.15V1.36249V0.737488H478.875L497.562 0.81249C503.812 0.81249 510.062 0.962487 516.25 1.02499H516.587V1.36249C516.587 4.03749 516.475 6.69999 516.425 9.33749L516.175 17.1375ZM516.175 17.1375L515.987 9.17499C515.987 6.54999 515.85 3.93749 515.825 1.34999L516.175 1.68749C509.925 1.68749 503.675 1.88749 497.487 1.89999L478.75 1.97499L479.375 1.34999L479.313 17.1375L478.75 16.5875C481.837 16.5875 484.912 16.5875 488 16.5875L497.287 16.7375L516.175 17.1375Z" fill="#EBEBEB"/>
<path d="M495.325 37.05L476.788 37.4L467.388 37.5375C464.25 37.5375 461.138 37.5375 457.95 37.6125H457.4V37.05L457.325 21.25V20.625H457.95L476.638 20.7C482.888 20.7 489.138 20.85 495.325 20.9125H495.675V21.25C495.675 23.925 495.575 26.5875 495.513 29.225L495.325 37.05ZM495.325 37.05L495.15 29.0875C495.088 26.45 495.013 23.85 494.988 21.2625L495.325 21.6C489.075 21.6 482.825 21.8 476.638 21.8125L457.95 21.8875L458.575 21.2625L458.513 37.05L457.95 36.5C461.038 36.5 464.113 36.5 467.2 36.5L476.5 36.65L495.325 37.05Z" fill="#EBEBEB"/>
<path d="M393.925 184.612L375.387 184.962L365.988 185.1C362.85 185.1 359.737 185.1 356.562 185.175H356V184.612L355.938 168.825V168.2H356.575L375.25 168.275C381.5 168.275 387.75 168.425 393.937 168.487H394.287V168.825C394.287 171.5 394.175 174.162 394.112 176.787L393.925 184.612ZM393.925 184.612L393.75 176.65C393.75 174.012 393.612 171.412 393.587 168.825L393.925 169.162C387.675 169.162 381.425 169.362 375.237 169.375L356.562 169.45L357.187 168.825L357.113 184.612L356.562 184.062C359.637 184.062 362.712 184.062 365.812 184.125L375.1 184.262L393.925 184.612Z" fill="#EBEBEB"/>
<path d="M373.088 204.525L354.538 204.875L345.15 205.012C342.013 205.075 338.9 205.012 335.713 205.087H335.163V204.525L335.088 188.75V188.125H335.713L354.4 188.2C360.65 188.2 366.9 188.35 373.15 188.412H373.488V188.75C373.488 191.425 373.375 194.087 373.325 196.712L373.088 204.525ZM373.088 204.525L372.9 196.562C372.9 193.925 372.763 191.325 372.738 188.737L373.088 189.075C366.838 189.137 360.588 189.275 354.338 189.287L335.65 189.362L336.275 188.737L336.25 204.525L335.7 203.975C338.788 203.975 341.863 203.975 344.95 203.975L354.238 204.112L373.088 204.525Z" fill="#EBEBEB"/>
<path d="M352.313 184.612L333.75 185L324.362 185.137C321.225 185.137 318.112 185.137 314.925 185.212H314.362V184.65L314.3 168.862V168.237H314.925L333.675 168.312C339.925 168.312 346.175 168.462 352.35 168.525H352.7V168.862C352.7 171.537 352.588 174.2 352.538 176.825L352.313 184.612ZM352.313 184.612L352.137 176.65C352.137 174.012 352 171.412 351.975 168.825L352.313 169.162C346.063 169.162 339.813 169.362 333.638 169.375L314.887 169.45L315.512 168.825L315.437 184.612L314.887 184.062C317.962 184.062 321.037 184.062 324.137 184.125L333.425 184.262L352.313 184.612Z" fill="#EBEBEB"/>
<path d="M516.175 358.838L497.625 359.187L488.237 359.337C485.1 359.337 481.988 359.337 478.8 359.337H478.25V358.775V342.988V342.363H478.875L497.5 342.5C503.75 342.5 510 342.65 516.187 342.713H516.525V343.05C516.525 345.725 516.412 348.388 516.362 351.025L516.175 358.838ZM516.175 358.838L515.987 350.875C515.987 348.25 515.85 345.638 515.825 343.05L516.175 343.387C509.925 343.462 503.675 343.588 497.487 343.6L478.8 343.675L479.425 343.05L479.362 358.838L478.8 358.287C481.888 358.287 484.962 358.287 488.05 358.35L497.337 358.5L516.175 358.838Z" fill="#EBEBEB"/>
<path d="M179.263 127.775L160.725 128.125L151.325 128.262C148.188 128.262 145.075 128.262 141.9 128.262H141.338V127.7V111.912V111.275H141.975L160.65 111.35C166.9 111.35 173.15 111.487 179.338 111.55H179.688V111.887C179.688 114.55 179.588 117.212 179.525 119.85L179.263 127.775ZM179.263 127.775L179.088 119.8C179.025 117.175 178.95 114.575 178.925 111.987L179.263 112.325C173.013 112.325 166.763 112.525 160.575 112.525L141.9 112.6L142.513 111.987V127.775L141.963 127.212C145.038 127.212 148.113 127.212 151.2 127.287L160.5 127.425L179.263 127.775Z" fill="#EBEBEB"/>
<path d="M6.875 387.012H184.85L190.562 274.087H1.14999L6.875 387.012Z" fill="#EBEBEB"/>
<path d="M171.738 325.712H15.125L12.975 286.65H174.225L171.738 325.712ZM16.3125 324.462H170.563L172.913 287.9H14.3L16.3125 324.462Z" fill="#DBDBDB"/>
<path d="M169.612 370.813H19.6125L17.8625 335.563H171.812L169.612 370.813ZM20.8625 369.563H168.437L170.487 336.813H19.2375L20.8625 369.563Z" fill="#DBDBDB"/>
<path d="M111.4 310.363H78.2875L77.0375 301.05H112.55L111.4 310.363ZM79.3875 309.113H110.3L111.175 302.3H78.5125L79.3875 309.113Z" fill="#DBDBDB"/>
<path d="M111.4 357.85H78.2875L77.0375 348.537H112.55L111.4 357.85ZM79.3875 356.6H110.3L111.175 349.787H78.5125L79.3875 356.6Z" fill="#DBDBDB"/>
<path d="M31.55 387.012L29.825 399.313L26.35 424.038H19.55V387.012H31.55Z" fill="#EBEBEB"/>
<path d="M31.55 387.012L29.825 399.313H19.55V387.012H31.55Z" fill="#DBDBDB"/>
<path d="M160.162 387.012L161.887 399.313L165.362 424.038H172.162V387.012H160.162Z" fill="#EBEBEB"/>
<path d="M160.162 387.012L161.887 399.313H172.162V387.012H160.162Z" fill="#DBDBDB"/>
<path d="M510.763 241.338V138.875H436.788V241.338H510.763Z" fill="#EBEBEB"/>
<path d="M501.1 231.662V148.537H446.475V231.662H501.1Z" fill="white"/>
<path d="M501.087 148.55H446.462V231.675H501.087V148.55Z" fill="white"/>
<g opacity="0.2">
<path opacity="0.2" d="M494.087 231.675H476.925L446.462 201.212V184.05L494.087 231.675Z" fill="#EBEBEB"/>
<path opacity="0.2" d="M501.1 187.4L462.237 148.55H467.9L501.1 181.75V187.4Z" fill="#EBEBEB"/>
<path opacity="0.2" d="M501.1 163.575L486.075 148.55H487.95L501.1 161.687V163.575Z" fill="#EBEBEB"/>
<path opacity="0.2" d="M465.887 231.675H464L446.462 214.137V212.25L465.887 231.675Z" fill="#EBEBEB"/>
<path opacity="0.2" d="M501.1 199.237L450.4 148.55H452.287L501.1 197.362V199.237Z" fill="#EBEBEB"/>
</g>
<path d="M450.4 148.55H446.462V231.675H450.4V148.55Z" fill="#DBDBDB"/>
<path d="M514.7 138.875H510.763V241.338H514.7V138.875Z" fill="#DBDBDB"/>
<path d="M465.9 105.45V2.98752L391.925 2.98752V105.45H465.9Z" fill="#EBEBEB"/>
<path d="M456.225 95.7875V12.6625L401.6 12.6625V95.7875H456.225Z" fill="white"/>
<g opacity="0.2">
<path opacity="0.2" d="M456.225 72.7125L401.6 18.0875V12.6625H413.337L456.225 55.55V72.7125Z" fill="#EBEBEB"/>
<path opacity="0.2" d="M430.912 95.7875H413.737L401.6 83.65V66.475L430.912 95.7875Z" fill="#EBEBEB"/>
<path opacity="0.2" d="M456.225 23.375L445.512 12.6625H451.15L456.225 17.7375V23.375Z" fill="#EBEBEB"/>
<path opacity="0.2" d="M450.325 95.7875H448.437L401.6 48.95V47.0625L450.325 95.7875Z" fill="#EBEBEB"/>
<path opacity="0.2" d="M456.225 49.85L419.037 12.6625H420.925L456.225 47.9625V49.85Z" fill="#EBEBEB"/>
</g>
<path d="M405.537 12.6625H401.6V95.7875H405.537V12.6625Z" fill="#DBDBDB"/>
<path d="M469.837 2.98749H465.9V105.45H469.837V2.98749Z" fill="#DBDBDB"/>
<path d="M2.96249 424.012L67.5375 423.713L132.112 423.6L261.25 423.4L390.387 423.6L454.962 423.713L519.537 424.012L454.962 424.325L390.387 424.437L261.25 424.637L132.112 424.437L67.5375 424.325L2.96249 424.012Z" fill="#263238"/>
<path d="M506.9 316.25C492.188 336.188 476.9 359.325 473.15 384.325C473.15 384.7 473.713 384.825 473.8 384.45C475.497 377.638 477.673 370.955 480.313 364.45C489.988 361.788 499.488 359.6 504.563 349.987C509.75 340.112 509.088 327.25 508.1 316.488C507.988 315.863 507.2 315.837 506.9 316.25Z" fill="#FFC100"/>
<path d="M480.4 364.212C487.013 349.375 495.5 334.475 506.288 322.275C506.363 322.188 506.475 322.275 506.413 322.388C499.35 331.075 493.975 340.538 488.738 350.175C493.613 345.175 498.95 340.788 503.575 335.55C503.662 335.45 503.8 335.55 503.713 335.7C499.138 341.2 494.125 347.175 488.15 351.237C486.55 354.204 484.933 357.167 483.3 360.125C483.7 359.9 484.113 359.7 484.55 359.5C484.625 359.5 484.688 359.575 484.613 359.6C484.163 359.837 483.713 360.075 483.238 360.275C482.463 361.675 481.7 363.087 480.9 364.487C480.7 364.8 480.263 364.525 480.4 364.212Z" fill="#263238"/>
<path d="M485.325 359.038C489.263 356.831 493.024 354.324 496.575 351.538C496.663 351.463 496.813 351.6 496.713 351.675C493.266 354.656 489.492 357.235 485.463 359.362C485.3 359.4 485.138 359.138 485.325 359.038Z" fill="#263238"/>
<path d="M471.4 380.575C471.413 380.636 471.447 380.691 471.496 380.731C471.545 380.77 471.606 380.792 471.669 380.792C471.732 380.792 471.792 380.77 471.841 380.731C471.89 380.691 471.924 380.636 471.937 380.575C472.012 372.337 471.937 364.063 472.062 355.8C474.175 351.538 478.7 349.188 481.85 345.8C484.116 343.31 486.088 340.567 487.725 337.625C491.514 330.595 493.832 322.867 494.538 314.913C495.4 306.163 492.037 277.05 488.35 278.063C486.425 278.588 480.187 292.975 478.537 297.738C475.865 305.587 473.907 313.661 472.687 321.862C469.675 341.25 469.925 361.075 471.4 380.575Z" fill="#FFC100"/>
<path d="M471.338 345C471.788 334.588 474.138 324.063 476.338 313.963C478.7 303.075 481.463 292.825 487.063 283.125C487.071 283.103 487.084 283.082 487.101 283.065C487.118 283.049 487.138 283.036 487.16 283.028C487.183 283.019 487.207 283.016 487.231 283.019C487.254 283.021 487.277 283.028 487.298 283.041C487.319 283.053 487.336 283.069 487.35 283.089C487.363 283.109 487.372 283.131 487.376 283.155C487.38 283.178 487.378 283.202 487.371 283.225C487.365 283.248 487.353 283.27 487.338 283.288C483.618 290.846 480.738 298.789 478.75 306.975C479.125 306.4 479.575 305.838 480 305.288C480.163 305.063 480.513 305.288 480.363 305.5C479.866 306.391 479.28 307.229 478.613 308H478.55C476.613 315.775 475.238 323.738 474.05 331.675L474.313 331.363C474.375 331.363 474.475 331.363 474.438 331.463C474.4 331.563 474.125 331.988 473.963 332.25C473.363 336.275 472.813 340.3 472.25 344.288C479.425 338.15 485.55 330.925 489.013 322.025H489.075C485.688 331.263 480.325 339.525 472.138 345.075L471.688 348.288C471.688 348.513 471.3 348.45 471.3 348.288C471.3 347.338 471.3 346.388 471.388 345.438C471.336 345.433 471.288 345.41 471.251 345.374C471.214 345.338 471.191 345.29 471.185 345.239C471.179 345.188 471.191 345.136 471.219 345.092C471.247 345.049 471.289 345.016 471.338 345V345Z" fill="#263238"/>
<path d="M474.713 330C480.2 321.825 485.325 313.875 489.338 304.825C489.338 304.725 489.55 304.825 489.513 304.913C486.125 313.888 481.4 323 474.988 330.213C474.863 330.325 474.613 330.125 474.713 330Z" fill="#263238"/>
<path d="M482 302.775C484.275 298.75 486.663 294.85 488.8 290.75C488.8 290.638 489.025 290.75 488.975 290.85C487.22 295.124 484.999 299.19 482.35 302.975C482.324 303.021 482.28 303.055 482.228 303.069C482.177 303.084 482.121 303.077 482.075 303.05C482.029 303.023 481.995 302.98 481.981 302.928C481.967 302.876 481.974 302.821 482 302.775V302.775Z" fill="#263238"/>
<path d="M465.825 356.762C465.72 362.229 465.075 367.672 463.9 373.012L464.163 374.787C465.837 368.898 466.81 362.831 467.063 356.712C467.11 356.626 467.134 356.529 467.134 356.431C467.134 356.333 467.11 356.236 467.063 356.15V356.15C467.291 347.942 466.68 339.733 465.238 331.65C462.738 316.525 457.125 302.012 446.575 290.662C446.486 290.588 446.382 290.535 446.269 290.507C446.157 290.479 446.04 290.477 445.927 290.501C445.813 290.525 445.707 290.575 445.616 290.646C445.525 290.717 445.451 290.808 445.4 290.913C441.15 301.738 442.638 314.662 446.263 325.45C448.233 331.3 451.051 336.83 454.625 341.862C458.275 346.9 462.888 351.25 465.825 356.762Z" fill="#FFC100"/>
<path d="M447.837 295.687C457.837 311.937 464.8 331.15 465.65 350.325C465.65 350.663 465.1 350.75 465.05 350.412C464.813 348.687 464.55 346.975 464.275 345.275C460.138 341.312 455.9 337.125 452.938 332.175C452.923 332.157 452.916 332.133 452.918 332.11C452.92 332.086 452.932 332.065 452.95 332.05C452.968 332.035 452.992 332.028 453.015 332.03C453.039 332.033 453.06 332.044 453.075 332.062C456.509 336.277 460.191 340.284 464.1 344.062C463.375 339.825 462.538 335.65 461.525 331.562L460.738 330.637C460.563 330.437 460.85 330.137 461.037 330.337C461.225 330.537 461.187 330.525 461.275 330.612C459.863 324.981 458.118 319.438 456.05 314.012C453.55 310.975 450.65 308.35 448.8 304.687C448.8 304.6 448.875 304.537 448.937 304.612C450.425 306.7 451.862 308.812 453.55 310.75C454.225 311.525 454.975 312.25 455.663 313C453.364 307.112 450.636 301.401 447.5 295.912C447.474 295.892 447.453 295.865 447.44 295.834C447.426 295.804 447.42 295.771 447.421 295.737C447.423 295.704 447.432 295.672 447.449 295.643C447.465 295.614 447.488 295.589 447.516 295.57C447.543 295.552 447.575 295.54 447.608 295.536C447.641 295.532 447.675 295.536 447.706 295.548C447.738 295.559 447.766 295.578 447.789 295.602C447.811 295.626 447.828 295.655 447.837 295.687V295.687Z" fill="#263238"/>
<path d="M449.863 315.7C453.1 320.05 456.775 324.2 459.787 328.7C459.875 328.825 459.688 328.962 459.575 328.862C455.713 325.237 452.45 320.288 449.65 315.825C449.562 315.688 449.775 315.575 449.863 315.7Z" fill="#263238"/>
<path d="M460.238 329.712L460.375 329.85C460.475 329.937 460.375 330.087 460.225 329.987L460.088 329.85C460 329.762 460.138 329.612 460.238 329.712Z" fill="#263238"/>
<path d="M432.175 326.888C433.355 335.949 437.005 344.511 442.725 351.637C445.079 354.438 447.997 356.713 451.288 358.312C455.038 360.15 458.875 362.263 462.7 363.763C464.523 368.404 465.88 373.215 466.75 378.125C466.875 377.712 467 377.275 467.113 376.875C464.613 355.725 450.975 337.663 433.475 326.063C433.339 325.976 433.181 325.929 433.019 325.929C432.857 325.929 432.699 325.975 432.563 326.062C432.426 326.148 432.317 326.272 432.249 326.418C432.18 326.564 432.154 326.727 432.175 326.888V326.888Z" fill="#FFC100"/>
<path d="M438.225 333.125C438.1 333.025 438.225 332.8 438.4 332.9C448.018 340.056 455.685 349.512 460.7 360.4C460.825 360.687 460.425 360.937 460.263 360.65C459.45 359.225 458.613 357.837 457.763 356.475C453.763 355.712 449.988 352.912 447.025 350.225C446.938 350.15 447.025 350.037 447.138 350.112C448.651 351.498 450.331 352.69 452.138 353.662C453.775 354.487 455.525 355 457.225 355.662C455.738 353.312 454.2 351.062 452.588 348.875C448.276 347.235 444.232 344.964 440.588 342.137C440.475 342.05 440.588 341.862 440.7 341.937C444.305 344.127 448.027 346.118 451.85 347.9C449.411 344.687 446.781 341.623 443.975 338.725C442.613 338 441.238 337.287 439.925 336.512C439.905 336.497 439.891 336.476 439.885 336.451C439.879 336.427 439.881 336.401 439.891 336.378C439.901 336.355 439.918 336.336 439.94 336.324C439.962 336.312 439.988 336.308 440.013 336.312C441.103 336.696 442.143 337.208 443.113 337.837C441.588 336.25 440 334.662 438.225 333.125Z" fill="#263238"/>
<path d="M438.587 340.425C438.827 340.566 439.053 340.729 439.262 340.913C439.262 340.913 439.262 341.05 439.187 341.013C438.937 340.908 438.699 340.778 438.475 340.625C438.363 340.538 438.475 340.35 438.587 340.425Z" fill="#263238"/>
<path d="M494.425 423.913H446.475L450.35 380.25L451.2 370.612H489.7L490.55 380.25L494.425 423.913Z" fill="#455A64"/>
<path d="M490.55 380.25H450.35L451.2 370.612H489.7L490.55 380.25Z" fill="#263238"/>
<path d="M491.988 363.887H448.9V373.413H491.988V363.887Z" fill="#455A64"/>
<path d="M261.25 472.237C315.029 472.237 358.625 464.996 358.625 456.062C358.625 447.129 315.029 439.887 261.25 439.887C207.471 439.887 163.875 447.129 163.875 456.062C163.875 464.996 207.471 472.237 261.25 472.237Z" fill="#EBEBEB"/>
<path d="M219.663 33.0625V37.6H201.175V10.975H219.325V15.5125H206.35V21.925H217.6V26.125H206.35V33.0625H219.663Z" fill="#37474F"/>
<path d="M223.75 37.6V10.975H235.525C236.703 10.9672 237.867 11.2325 238.925 11.75C239.921 12.2459 240.816 12.9243 241.562 13.75C242.313 14.5887 242.91 15.5536 243.325 16.6C243.741 17.6158 243.958 18.7023 243.962 19.8C244.001 21.4576 243.567 23.0918 242.712 24.5125C241.907 25.8812 240.679 26.9515 239.212 27.5625L245.287 37.5625H239.475L234.037 28.6375H228.937V37.5625L223.75 37.6ZM228.925 24.1375H235.413C235.88 24.1399 236.34 24.0238 236.75 23.8C237.164 23.5738 237.526 23.2629 237.812 22.8875C238.126 22.4726 238.367 22.0077 238.525 21.5125C238.703 20.9679 238.792 20.398 238.787 19.825C238.794 19.2365 238.692 18.6518 238.487 18.1C238.299 17.6042 238.029 17.1436 237.687 16.7375C237.36 16.3624 236.96 16.0565 236.513 15.8375C236.102 15.6276 235.648 15.5163 235.187 15.5125H228.937L228.925 24.1375Z" fill="#37474F"/>
<path d="M248.65 37.6V10.975H260.425C261.603 10.9672 262.767 11.2325 263.825 11.75C264.835 12.2419 265.743 12.9205 266.5 13.75C267.251 14.5887 267.848 15.5536 268.263 16.6C268.679 17.6158 268.895 18.7023 268.9 19.8C268.938 21.4576 268.505 23.0918 267.65 24.5125C266.844 25.8812 265.616 26.9515 264.15 27.5625L270.225 37.5625H264.413L258.975 28.6375H253.875V37.5625L248.65 37.6ZM253.825 24.1375H260.313C260.78 24.1399 261.24 24.0238 261.65 23.8C262.064 23.5738 262.426 23.2629 262.713 22.8875C263.026 22.4726 263.267 22.0077 263.425 21.5125C263.603 20.9679 263.692 20.398 263.688 19.825C263.694 19.2365 263.592 18.6518 263.388 18.1C263.199 17.6042 262.929 17.1436 262.588 16.7375C262.26 16.3624 261.86 16.0565 261.413 15.8375C261.002 15.6276 260.548 15.5163 260.088 15.5125H253.838L253.825 24.1375Z" fill="#37474F"/>
<path d="M285 37.7875C283.166 37.8151 281.35 37.4261 279.688 36.65C278.139 35.916 276.75 34.8839 275.6 33.6125C273.315 31.042 272.044 27.727 272.025 24.2875C272.018 22.5393 272.353 20.8066 273.013 19.1875C273.654 17.5951 274.582 16.1335 275.75 14.875C276.924 13.6202 278.335 12.6093 279.9 11.9C281.535 11.1527 283.315 10.7729 285.113 10.7875C286.935 10.7666 288.738 11.1733 290.375 11.975C291.922 12.7282 293.306 13.7771 294.45 15.0625C295.579 16.3436 296.468 17.817 297.075 19.4125C297.696 21.0064 298.014 22.702 298.013 24.4125C298.019 26.1554 297.688 27.883 297.038 29.5C296.392 31.0747 295.459 32.5157 294.287 33.75C293.121 34.9993 291.719 36.0061 290.163 36.7125C288.54 37.4398 286.778 37.8066 285 37.7875V37.7875ZM277.275 24.2875C277.272 25.4208 277.45 26.5473 277.8 27.625C278.126 28.6592 278.639 29.6251 279.313 30.475C279.957 31.3104 280.771 32.0005 281.7 32.5C282.719 33.0127 283.847 33.2701 284.988 33.25C286.138 33.275 287.276 33.0129 288.3 32.4875C289.249 31.9846 290.079 31.2859 290.738 30.4375C291.405 29.5808 291.913 28.6112 292.238 27.575C292.575 26.5246 292.748 25.4283 292.75 24.325C292.75 23.1899 292.565 22.0624 292.2 20.9875C291.86 19.9541 291.339 18.9891 290.663 18.1375C290.001 17.3154 289.169 16.646 288.225 16.175C287.201 15.6756 286.077 15.4161 284.938 15.4161C283.798 15.4161 282.674 15.6756 281.65 16.175C280.701 16.6661 279.869 17.3569 279.213 18.2C278.552 19.0543 278.048 20.0194 277.725 21.05C277.392 22.0968 277.223 23.189 277.225 24.2875H277.275Z" fill="#37474F"/>
<path d="M301.938 37.6V10.975H313.75C314.928 10.9672 316.092 11.2325 317.15 11.75C318.146 12.2459 319.041 12.9243 319.787 13.75C320.538 14.5887 321.135 15.5536 321.55 16.6C321.966 17.6158 322.183 18.7023 322.187 19.8C322.226 21.4576 321.792 23.0918 320.937 24.5125C320.132 25.8812 318.904 26.9515 317.438 27.5625L323.512 37.5625H317.7L312.262 28.6375H307.163V37.5625L301.938 37.6ZM307.113 24.1375H313.6C314.093 24.1356 314.576 24.0018 315 23.75C315.414 23.5238 315.776 23.2129 316.063 22.8375C316.376 22.4226 316.617 21.9577 316.775 21.4625C316.953 20.9179 317.042 20.348 317.037 19.775C317.044 19.1865 316.942 18.6018 316.738 18.05C316.549 17.5542 316.279 17.0936 315.937 16.6875C315.61 16.3124 315.21 16.0065 314.762 15.7875C314.352 15.5776 313.898 15.4663 313.437 15.4625H307.188L307.113 24.1375Z" fill="#37474F"/>
<path d="M170.163 486.363C169.951 486.128 169.707 485.926 169.438 485.763C169.117 485.554 168.778 485.374 168.425 485.225C168.022 485.06 167.603 484.934 167.175 484.85C166.72 484.748 166.254 484.698 165.788 484.7C164.827 484.624 163.868 484.87 163.063 485.4C162.777 485.628 162.548 485.919 162.396 486.252C162.244 486.584 162.173 486.947 162.188 487.313C162.175 487.687 162.262 488.057 162.438 488.388C162.628 488.696 162.895 488.95 163.213 489.125C163.633 489.349 164.078 489.525 164.538 489.65C165.063 489.8 165.675 489.963 166.4 490.125C167.157 490.285 167.904 490.489 168.638 490.738C169.249 490.942 169.826 491.237 170.35 491.613C170.808 491.932 171.178 492.362 171.425 492.863C171.69 493.434 171.818 494.058 171.8 494.687C171.819 495.377 171.664 496.061 171.35 496.675C171.05 497.234 170.622 497.714 170.1 498.075C169.547 498.464 168.923 498.74 168.263 498.887C167.514 499.068 166.745 499.156 165.975 499.15C164.785 499.153 163.602 498.959 162.475 498.575C161.384 498.189 160.366 497.623 159.463 496.9L160.438 495.187C160.719 495.478 161.034 495.734 161.375 495.95C161.769 496.218 162.187 496.449 162.625 496.637C163.135 496.844 163.662 497.008 164.2 497.125C164.777 497.262 165.369 497.329 165.963 497.325C166.89 497.378 167.814 497.166 168.625 496.712C168.93 496.519 169.177 496.248 169.342 495.927C169.507 495.607 169.583 495.248 169.563 494.887C169.575 494.487 169.471 494.092 169.263 493.75C169.031 493.423 168.727 493.154 168.375 492.962C167.916 492.708 167.429 492.507 166.925 492.363C166.35 492.188 165.675 492.013 164.95 491.838C164.226 491.664 163.513 491.451 162.813 491.2C162.261 491.011 161.742 490.737 161.275 490.388C160.874 490.091 160.552 489.7 160.338 489.25C160.114 488.738 160.007 488.183 160.025 487.625C160.009 486.926 160.155 486.233 160.45 485.6C160.748 485.016 161.176 484.507 161.7 484.113C162.241 483.696 162.856 483.386 163.513 483.2C164.262 482.995 165.036 482.894 165.813 482.9C166.81 482.885 167.802 483.054 168.738 483.4C169.579 483.706 170.361 484.154 171.05 484.725L170.163 486.363Z" fill="#37474F"/>
<path d="M179.363 499.212C178.529 499.224 177.702 499.058 176.938 498.725C176.221 498.422 175.574 497.976 175.038 497.412C174.498 496.85 174.074 496.187 173.788 495.462C173.496 494.713 173.348 493.916 173.35 493.112C173.348 492.313 173.496 491.52 173.788 490.775C174.08 490.057 174.504 489.4 175.038 488.837C175.582 488.284 176.227 487.839 176.938 487.525C177.707 487.193 178.537 487.027 179.375 487.037C180.174 487.03 180.966 487.188 181.701 487.499C182.436 487.811 183.1 488.271 183.65 488.85C184.163 489.404 184.563 490.054 184.825 490.762C185.109 491.483 185.253 492.251 185.25 493.025C185.25 493.188 185.25 493.337 185.25 493.475C185.25 493.612 185.25 493.712 185.25 493.787H175.513C175.543 494.341 175.679 494.884 175.913 495.387C176.333 496.309 177.082 497.04 178.013 497.438C178.473 497.626 178.965 497.724 179.463 497.725C179.821 497.723 180.178 497.677 180.525 497.588C180.86 497.49 181.182 497.356 181.488 497.187C181.787 497.031 182.058 496.823 182.288 496.575C182.517 496.346 182.699 496.074 182.825 495.775L184.525 496.237C184.339 496.698 184.073 497.121 183.738 497.487C183.392 497.853 182.996 498.169 182.563 498.425C181.6 498.976 180.509 499.265 179.4 499.262L179.363 499.212ZM183.388 492.325C183.354 491.79 183.214 491.267 182.975 490.787C182.763 490.32 182.467 489.896 182.1 489.537C181.735 489.2 181.312 488.933 180.85 488.75C180.375 488.57 179.871 488.477 179.363 488.475C178.854 488.476 178.35 488.569 177.875 488.75C177.416 488.938 176.993 489.205 176.625 489.537C176.268 489.899 175.98 490.322 175.775 490.787C175.55 491.267 175.415 491.784 175.375 492.312L183.388 492.325Z" fill="#37474F"/>
<path d="M193.675 488.975C192.747 488.987 191.84 489.25 191.05 489.738C190.31 490.212 189.744 490.914 189.438 491.738V498.987H187.5V487.238H189.35V490C189.72 489.232 190.263 488.56 190.938 488.037C191.547 487.551 192.286 487.256 193.063 487.188H193.438H193.713L193.675 488.975Z" fill="#37474F"/>
<path d="M199.025 498.987L194.388 487.238H196.438L200.188 497.237L203.938 487.238H205.825L201.188 498.987H199.025Z" fill="#37474F"/>
<path d="M207.738 485V482.5H209.713V485H207.738ZM207.738 498.95V487.2H209.713V498.95H207.738Z" fill="#37474F"/>
<path d="M212.125 493.087C212.119 492.289 212.263 491.496 212.55 490.75C212.834 490.031 213.259 489.377 213.8 488.825C214.338 488.291 214.975 487.866 215.675 487.575C216.464 487.235 217.316 487.069 218.175 487.088C219.235 487.063 220.282 487.331 221.2 487.863C222.027 488.361 222.695 489.085 223.125 489.95L221.188 490.55C220.896 490.025 220.463 489.592 219.938 489.3C219.39 488.987 218.768 488.827 218.138 488.838C217.612 488.838 217.092 488.948 216.613 489.162C216.135 489.373 215.709 489.684 215.363 490.075C215.004 490.478 214.725 490.944 214.538 491.45C214.333 492.002 214.231 492.586 214.238 493.175C214.23 493.769 214.336 494.359 214.55 494.912C214.746 495.431 215.034 495.91 215.4 496.325C215.751 496.714 216.176 497.028 216.65 497.25C217.122 497.476 217.639 497.592 218.163 497.588C218.51 497.588 218.855 497.537 219.188 497.438C219.512 497.352 219.824 497.222 220.113 497.05C220.377 496.89 220.621 496.696 220.838 496.475C221.041 496.276 221.196 496.032 221.288 495.762L223.225 496.35C223.053 496.809 222.799 497.232 222.475 497.6C222.145 497.96 221.761 498.268 221.338 498.512C220.883 498.779 220.396 498.985 219.888 499.125C219.342 499.275 218.778 499.351 218.213 499.35C217.352 499.371 216.498 499.2 215.713 498.85C214.999 498.542 214.357 498.091 213.825 497.525C213.284 496.968 212.86 496.31 212.575 495.587C212.263 494.792 212.11 493.942 212.125 493.087V493.087Z" fill="#37474F"/>
<path d="M230.462 499.212C229.604 499.232 228.751 499.065 227.962 498.725C227.251 498.418 226.609 497.971 226.074 497.411C225.539 496.85 225.123 496.188 224.85 495.462C224.559 494.713 224.41 493.916 224.413 493.112C224.41 492.313 224.559 491.52 224.85 490.775C225.13 490.052 225.552 489.392 226.091 488.833C226.63 488.275 227.274 487.83 227.988 487.525C228.757 487.193 229.587 487.027 230.425 487.037C231.224 487.03 232.015 487.188 232.751 487.499C233.486 487.811 234.15 488.271 234.7 488.85C235.209 489.408 235.608 490.056 235.875 490.762C236.149 491.485 236.289 492.252 236.288 493.025C236.288 493.188 236.288 493.337 236.288 493.475C236.296 493.579 236.296 493.684 236.288 493.787H226.537C226.578 494.341 226.718 494.883 226.95 495.387C227.163 495.854 227.459 496.278 227.825 496.637C228.187 496.984 228.611 497.259 229.075 497.45C229.534 497.641 230.027 497.739 230.525 497.737C230.883 497.736 231.24 497.689 231.588 497.6C231.921 497.501 232.244 497.367 232.55 497.2C232.85 497.043 233.12 496.836 233.35 496.587C233.581 496.362 233.76 496.089 233.875 495.787L235.588 496.25C235.397 496.711 235.126 497.134 234.788 497.5C234.446 497.866 234.055 498.181 233.625 498.437C232.662 498.989 231.572 499.277 230.462 499.275V499.212ZM234.487 492.325C234.442 491.792 234.303 491.271 234.075 490.787C233.864 490.317 233.562 489.892 233.188 489.537C232.825 489.198 232.401 488.93 231.938 488.75C231.467 488.569 230.967 488.476 230.462 488.475C229.954 488.476 229.45 488.569 228.975 488.75C228.516 488.938 228.093 489.205 227.725 489.537C227.364 489.898 227.072 490.322 226.863 490.787C226.642 491.268 226.51 491.785 226.475 492.312L234.487 492.325Z" fill="#37474F"/>
<path d="M247.875 499.212C247.344 499.245 246.813 499.149 246.327 498.931C245.842 498.713 245.416 498.381 245.088 497.962C244.376 496.87 244.043 495.575 244.138 494.275V487.225H246.125V493.887C246.125 496.287 246.95 497.487 248.625 497.487C249.451 497.481 250.253 497.209 250.913 496.712C251.639 496.176 252.192 495.437 252.5 494.588V487.225H254.475V496.55C254.475 497.017 254.688 497.254 255.113 497.262V498.975L254.575 499.037H254.213C253.85 499.053 253.497 498.928 253.225 498.687C253.098 498.582 252.995 498.451 252.924 498.302C252.853 498.153 252.815 497.99 252.813 497.825V496.45C252.316 497.303 251.599 498.007 250.738 498.487C249.864 498.978 248.877 499.228 247.875 499.212V499.212Z" fill="#37474F"/>
<path d="M267.962 498.987H265.987V492.412C266.06 491.464 265.861 490.514 265.413 489.675C265.223 489.392 264.963 489.164 264.659 489.012C264.354 488.861 264.015 488.792 263.675 488.812C263.247 488.816 262.824 488.896 262.425 489.05C262.015 489.215 261.628 489.433 261.275 489.7C260.917 489.973 260.601 490.297 260.338 490.662C260.063 491.041 259.856 491.464 259.725 491.912V499H257.75V487.25H259.55V489.75C260.022 488.916 260.719 488.231 261.563 487.775C262.438 487.275 263.43 487.016 264.438 487.025C265.023 487.004 265.604 487.133 266.125 487.4C266.569 487.644 266.94 488.002 267.2 488.437C267.488 488.918 267.683 489.448 267.775 490C267.889 490.644 267.944 491.296 267.938 491.95L267.962 498.987Z" fill="#37474F"/>
<path d="M274.063 499.212C273.534 499.213 273.009 499.12 272.513 498.937C271.595 498.582 270.848 497.889 270.425 497C270.223 496.544 270.121 496.049 270.125 495.55C270.119 495.036 270.244 494.528 270.488 494.075C270.731 493.618 271.083 493.227 271.513 492.937C271.994 492.604 272.525 492.351 273.088 492.187C273.734 492.007 274.404 491.919 275.075 491.925C275.657 491.926 276.239 491.976 276.813 492.075C277.343 492.168 277.862 492.314 278.363 492.512V491.562C278.385 491.15 278.324 490.738 278.185 490.349C278.045 489.961 277.829 489.604 277.55 489.3C277.246 489.013 276.886 488.792 276.492 488.65C276.099 488.508 275.68 488.448 275.263 488.475C273.9 488.533 272.59 489.014 271.513 489.85L270.863 488.6C272.192 487.636 273.783 487.1 275.425 487.062C276.747 486.984 278.047 487.434 279.038 488.312C279.476 488.775 279.814 489.324 280.029 489.925C280.244 490.525 280.332 491.164 280.288 491.8V496.6C280.288 497.067 280.5 497.304 280.925 497.312V499.025L280.4 499.087C280.259 499.101 280.116 499.101 279.975 499.087C279.803 499.097 279.631 499.071 279.47 499.01C279.308 498.95 279.161 498.857 279.038 498.737C278.814 498.51 278.669 498.216 278.625 497.9V497.062C278.11 497.765 277.421 498.321 276.625 498.675C275.818 499.033 274.945 499.216 274.063 499.212V499.212ZM274.588 497.725C275.261 497.732 275.929 497.6 276.55 497.337C277.101 497.122 277.581 496.759 277.938 496.287C278.063 496.177 278.166 496.043 278.239 495.893C278.312 495.743 278.354 495.579 278.363 495.412V493.675C277.411 493.302 276.397 493.112 275.375 493.112C274.521 493.074 273.675 493.296 272.95 493.75C272.664 493.917 272.427 494.156 272.262 494.443C272.097 494.731 272.011 495.056 272.013 495.387C272.009 495.707 272.077 496.023 272.213 496.312C272.335 496.595 272.518 496.847 272.75 497.05C272.99 497.269 273.27 497.438 273.575 497.55C273.9 497.667 274.243 497.726 274.588 497.725V497.725Z" fill="#37474F"/>
<path d="M286.525 498.987L281.888 487.238H283.938L287.688 497.237L291.438 487.238H293.325L288.7 498.987H286.525Z" fill="#37474F"/>
<path d="M297.963 499.212C297.43 499.213 296.901 499.12 296.4 498.937C295.938 498.756 295.513 498.489 295.15 498.15C294.794 497.829 294.509 497.437 294.313 497C294.11 496.544 294.008 496.049 294.013 495.55C294.002 495.037 294.123 494.529 294.363 494.075C294.614 493.623 294.964 493.234 295.388 492.937C295.871 492.609 296.402 492.356 296.963 492.187C297.614 492.007 298.287 491.919 298.963 491.925C299.541 491.926 300.118 491.977 300.688 492.075C301.218 492.168 301.737 492.314 302.238 492.513V491.562C302.279 491.146 302.227 490.725 302.085 490.331C301.944 489.937 301.716 489.579 301.42 489.284C301.123 488.988 300.764 488.762 300.37 488.622C299.975 488.483 299.554 488.432 299.138 488.475C297.776 488.536 296.466 489.016 295.388 489.85L294.738 488.6C296.067 487.636 297.658 487.1 299.3 487.062C300.622 486.984 301.921 487.434 302.913 488.312C303.351 488.775 303.689 489.324 303.904 489.925C304.119 490.525 304.207 491.164 304.163 491.8V496.6C304.163 497.062 304.375 497.3 304.788 497.312V499.025L304.275 499.087C304.134 499.1 303.991 499.1 303.85 499.087C303.678 499.097 303.506 499.071 303.345 499.01C303.183 498.95 303.036 498.857 302.913 498.737C302.679 498.517 302.532 498.22 302.5 497.9V497.062C301.989 497.763 301.304 498.319 300.513 498.675C299.71 499.031 298.841 499.214 297.963 499.212ZM298.475 497.725C299.153 497.731 299.825 497.599 300.45 497.337C300.995 497.119 301.47 496.756 301.825 496.287C301.951 496.177 302.053 496.043 302.126 495.893C302.199 495.743 302.241 495.579 302.25 495.412V493.675C301.299 493.3 300.285 493.109 299.263 493.112C298.412 493.073 297.57 493.296 296.85 493.75C296.564 493.917 296.327 494.156 296.162 494.443C295.997 494.731 295.911 495.056 295.913 495.387C295.911 495.705 295.975 496.02 296.1 496.312C296.227 496.592 296.41 496.843 296.638 497.05C296.881 497.264 297.16 497.433 297.463 497.55C297.787 497.667 298.13 497.726 298.475 497.725V497.725Z" fill="#37474F"/>
<path d="M307.413 485V482.5H309.388V485H307.413ZM307.413 498.95V487.2H309.388V498.95H307.413Z" fill="#37474F"/>
<path d="M312.625 482.562H314.612V495.95C314.601 496.135 314.625 496.321 314.685 496.497C314.745 496.673 314.84 496.836 314.962 496.975C315.088 497.104 315.241 497.205 315.409 497.269C315.577 497.334 315.758 497.362 315.937 497.35C316.136 497.347 316.334 497.318 316.525 497.262C316.738 497.217 316.947 497.154 317.15 497.075L317.462 498.675C317.088 498.827 316.698 498.94 316.3 499.012C315.889 499.099 315.47 499.145 315.05 499.15C314.719 499.165 314.388 499.114 314.077 499.001C313.766 498.887 313.481 498.713 313.237 498.487C313.009 498.247 312.832 497.962 312.718 497.65C312.604 497.338 312.555 497.006 312.575 496.675L312.625 482.562Z" fill="#37474F"/>
<path d="M322.038 499.212C321.505 499.213 320.976 499.12 320.475 498.937C320.013 498.756 319.588 498.489 319.225 498.15C318.869 497.829 318.584 497.437 318.388 497C318.185 496.544 318.083 496.049 318.088 495.55C318.077 495.037 318.198 494.529 318.438 494.075C318.689 493.623 319.039 493.234 319.463 492.937C319.946 492.609 320.477 492.356 321.038 492.187C321.689 492.007 322.362 491.919 323.038 491.925C323.616 491.926 324.193 491.977 324.763 492.075C325.293 492.168 325.812 492.314 326.313 492.513V491.562C326.354 491.146 326.302 490.725 326.16 490.331C326.019 489.937 325.791 489.579 325.495 489.284C325.198 488.988 324.839 488.762 324.445 488.622C324.05 488.483 323.629 488.432 323.213 488.475C321.851 488.536 320.541 489.016 319.463 489.85L318.813 488.6C320.142 487.636 321.733 487.1 323.375 487.062C324.697 486.984 325.996 487.434 326.988 488.312C327.426 488.775 327.764 489.324 327.979 489.925C328.194 490.525 328.282 491.164 328.238 491.8V496.6C328.238 497.062 328.45 497.3 328.863 497.312V499.025L328.35 499.087C328.209 499.1 328.066 499.1 327.925 499.087C327.753 499.097 327.581 499.071 327.42 499.01C327.258 498.95 327.111 498.857 326.988 498.737C326.754 498.517 326.607 498.22 326.575 497.9V497.062C326.064 497.763 325.379 498.319 324.588 498.675C323.785 499.031 322.916 499.214 322.038 499.212ZM322.55 497.725C323.228 497.731 323.9 497.599 324.525 497.337C325.07 497.119 325.545 496.756 325.9 496.287C326.026 496.177 326.128 496.043 326.201 495.893C326.274 495.743 326.316 495.579 326.325 495.412V493.675C325.374 493.3 324.36 493.109 323.338 493.112C322.487 493.073 321.645 493.296 320.925 493.75C320.639 493.917 320.402 494.156 320.237 494.443C320.072 494.731 319.986 495.056 319.988 495.387C319.986 495.705 320.05 496.02 320.175 496.312C320.302 496.592 320.485 496.843 320.713 497.05C320.956 497.264 321.235 497.433 321.538 497.55C321.847 497.661 322.172 497.72 322.5 497.725H322.55Z" fill="#37474F"/>
<path d="M337.5 499.212C336.62 499.222 335.755 498.988 335 498.537C334.275 498.107 333.665 497.507 333.225 496.787V498.987H331.475V482.562H333.45V489.588C333.916 488.845 334.539 488.213 335.275 487.737C335.979 487.311 336.78 487.071 337.602 487.04C338.425 487.01 339.241 487.189 339.975 487.562C340.611 487.895 341.173 488.355 341.625 488.912C342.094 489.498 342.454 490.162 342.688 490.875C342.937 491.612 343.064 492.385 343.063 493.162C343.065 493.962 342.916 494.755 342.625 495.5C342.36 496.208 341.966 496.861 341.463 497.425C340.964 497.955 340.365 498.38 339.7 498.675C339.016 499.017 338.264 499.2 337.5 499.212V499.212ZM337 497.5C337.563 497.509 338.12 497.385 338.625 497.137C339.1 496.901 339.525 496.574 339.875 496.175C340.235 495.769 340.515 495.298 340.7 494.787C340.9 494.269 341.002 493.718 341 493.162C340.999 492.596 340.902 492.034 340.713 491.5C340.536 490.99 340.269 490.516 339.925 490.1C339.581 489.692 339.155 489.359 338.675 489.125C338.193 488.874 337.656 488.745 337.113 488.75C336.685 488.741 336.26 488.817 335.863 488.975C335.49 489.126 335.141 489.328 334.825 489.575C334.501 489.824 334.211 490.114 333.963 490.437C333.712 490.767 333.498 491.124 333.325 491.5V494.887C333.401 495.268 333.569 495.624 333.812 495.925C334.063 496.24 334.358 496.518 334.687 496.75C335.023 496.975 335.384 497.16 335.762 497.3C336.162 497.446 336.587 497.514 337.012 497.5H337Z" fill="#37474F"/>
<path d="M345.55 482.562H347.5V495.95C347.488 496.135 347.513 496.321 347.573 496.497C347.633 496.673 347.727 496.836 347.85 496.975C347.976 497.104 348.128 497.205 348.296 497.269C348.465 497.334 348.645 497.362 348.825 497.35C349.024 497.347 349.221 497.318 349.413 497.262C349.626 497.217 349.835 497.154 350.038 497.075L350.363 498.675C349.983 498.826 349.589 498.939 349.188 499.012C348.797 499.095 348.399 499.141 348 499.15C347.669 499.165 347.338 499.114 347.027 499.001C346.716 498.887 346.431 498.713 346.188 498.487C345.956 498.249 345.778 497.964 345.664 497.652C345.55 497.339 345.502 497.007 345.525 496.675L345.55 482.562Z" fill="#37474F"/>
<path d="M357.137 499.213C356.3 499.223 355.469 499.057 354.7 498.725C353.987 498.422 353.345 497.975 352.812 497.413C352.269 496.853 351.844 496.19 351.562 495.463C351.267 494.715 351.118 493.917 351.125 493.113C351.117 492.312 351.265 491.518 351.562 490.775C351.843 490.052 352.265 489.392 352.803 488.833C353.342 488.275 353.987 487.831 354.7 487.525C355.465 487.195 356.291 487.029 357.125 487.038C357.96 487.024 358.788 487.195 359.55 487.538C360.251 487.842 360.881 488.289 361.4 488.85C361.917 489.404 362.32 490.054 362.587 490.763C362.861 491.485 363.001 492.252 363 493.025C363 493.188 363 493.338 363 493.475C363.009 493.579 363.009 493.684 363 493.788H353.25C353.291 494.341 353.43 494.883 353.662 495.388C353.875 495.854 354.172 496.278 354.537 496.638C354.9 496.984 355.324 497.259 355.787 497.45C356.247 497.641 356.74 497.739 357.237 497.738C357.596 497.736 357.953 497.689 358.3 497.6C358.634 497.501 358.956 497.367 359.262 497.2C359.56 497.04 359.83 496.833 360.062 496.588C360.289 496.359 360.468 496.087 360.587 495.788L362.3 496.25C362.105 496.708 361.834 497.131 361.5 497.5C361.157 497.869 360.761 498.185 360.325 498.438C359.867 498.706 359.375 498.912 358.862 499.05C358.298 499.182 357.717 499.237 357.137 499.213ZM361.162 492.325C361.119 491.79 360.975 491.269 360.737 490.788C360.531 490.317 360.233 489.893 359.862 489.538C359.498 489.2 359.074 488.933 358.612 488.75C358.137 488.569 357.633 488.476 357.125 488.475C356.621 488.476 356.121 488.569 355.65 488.75C355.191 488.939 354.769 489.206 354.4 489.538C354.043 489.899 353.755 490.322 353.55 490.788C353.329 491.268 353.198 491.785 353.162 492.313L361.162 492.325Z" fill="#37474F"/>
<path d="M106.8 116.25C115.335 116.179 123.811 117.683 131.8 120.687C139.245 123.456 146.049 127.708 151.8 133.187C157.427 138.663 161.869 145.236 164.85 152.5C171.314 169.077 171.121 187.511 164.312 203.95C160.923 211.699 155.915 218.633 149.625 224.287C143.1 230.096 135.51 234.584 127.275 237.5C118.286 240.702 108.804 242.297 99.2625 242.212C85.2542 242.212 72.725 239.25 61.675 233.325C51.1125 227.868 42.3623 219.461 36.4875 209.125L57.2375 187.575C62.1779 194.495 68.6228 200.204 76.0875 204.275C83.2407 208.319 91.3079 210.47 99.525 210.525C109.225 210.525 117.171 207.608 123.362 201.775C129.554 195.942 132.654 188.175 132.663 178.475C132.663 169.133 129.746 161.592 123.912 155.85C118.079 150.108 110.675 147.233 101.7 147.225C95.924 147.182 90.2266 148.565 85.1125 151.25C80.1467 153.818 75.9274 157.624 72.8625 162.3H41.3375C41.591 160.261 41.9541 158.237 42.425 156.237C43.1417 152.737 44.0375 148.25 45.1125 142.775C46.1875 137.3 47.3542 131.192 48.6125 124.45C49.8792 117.708 51.225 110.842 52.65 103.85C55.8833 87.325 59.475 68.825 63.425 48.35H157.712V81.2125H89.5625L81.75 124C84.4178 121.348 87.7042 119.402 91.3125 118.337C96.3277 116.807 101.558 116.102 106.8 116.25V116.25Z" fill="#455A64"/>
<path d="M113.75 64.2625C117.105 64.2625 119.825 61.5426 119.825 58.1875C119.825 54.8324 117.105 52.1125 113.75 52.1125C110.395 52.1125 107.675 54.8324 107.675 58.1875C107.675 61.5426 110.395 64.2625 113.75 64.2625Z" fill="#C7C7C7"/>
<path d="M119.187 56.975C119.187 58.1765 118.831 59.3511 118.164 60.3501C117.496 61.3491 116.547 62.1278 115.437 62.5876C114.327 63.0474 113.106 63.1677 111.927 62.9333C110.749 62.6989 109.666 62.1203 108.817 61.2707C107.967 60.4211 107.389 59.3386 107.154 58.1602C106.92 56.9817 107.04 55.7603 107.5 54.6502C107.96 53.5401 108.738 52.5913 109.737 51.9238C110.736 51.2563 111.911 50.9 113.112 50.9C114.724 50.9 116.269 51.54 117.408 52.6793C118.547 53.8186 119.187 55.3638 119.187 56.975Z" fill="#DBDBDB"/>
<path d="M483.75 166.25C483.362 165.675 482.962 165.113 482.5 164.538C482.037 163.963 481.737 163.5 481.337 162.987C480.412 161.825 479.462 160.725 478.462 159.688C478.4 159.625 478.35 159.563 478.275 159.5L478.087 159.312C478.048 159.261 478.002 159.214 477.95 159.175V159.175L477.812 159.037C477.776 159.007 477.743 158.974 477.712 158.937L477.625 158.85L477.525 158.75L477.4 158.625L477.312 158.538C477.298 158.511 477.277 158.489 477.25 158.475C477.236 158.448 477.214 158.427 477.187 158.412V158.412C477.167 158.408 477.146 158.408 477.125 158.412C477.125 158.412 477.125 158.412 477.125 158.412C477.129 158.392 477.129 158.371 477.125 158.35V158.35H477.062C477.048 158.323 477.027 158.302 477 158.288C477 158.288 477 158.288 477 158.288C476.986 158.261 476.964 158.239 476.937 158.225V158.225C476.917 158.221 476.896 158.221 476.875 158.225C476.879 158.204 476.879 158.183 476.875 158.162H476.812C476.798 158.136 476.777 158.114 476.75 158.1C476.736 158.073 476.714 158.052 476.687 158.037V158.037C476.667 158.033 476.646 158.033 476.625 158.037C476.629 158.017 476.629 157.996 476.625 157.975V157.975H476.562C476.548 157.948 476.527 157.927 476.5 157.913C476.486 157.886 476.464 157.864 476.437 157.85C476.417 157.846 476.396 157.846 476.375 157.85C476.375 157.85 476.375 157.85 476.375 157.85C476.379 157.829 476.379 157.808 476.375 157.787V157.787C476.375 157.787 476.375 157.787 476.312 157.787L476.237 157.712L476.162 157.638C476.139 157.595 476.105 157.561 476.062 157.537C476.044 157.507 476.018 157.481 475.987 157.463V157.463C475.923 157.386 475.852 157.314 475.775 157.25C475.736 157.198 475.689 157.152 475.637 157.113C475.187 156.675 474.725 156.25 474.262 155.863C473.8 155.475 473.012 154.825 472.425 154.338C471.837 153.85 470.887 153.175 470.1 152.625C469.712 152.363 469.337 152.075 468.937 151.825C471.055 150.974 473.089 149.928 475.012 148.7C479.204 146.027 482.897 142.642 485.925 138.7C488.989 134.728 491.356 130.265 492.925 125.5C494.562 120.545 495.381 115.356 495.35 110.138C495.447 103.369 493.926 96.6745 490.912 90.6125C489.93 88.6782 488.793 86.8263 487.512 85.075C487.48 85.0355 487.451 84.9937 487.425 84.95C486.9 84.2375 486.362 83.5375 485.787 82.8625C485.637 82.675 485.5 82.4875 485.337 82.3125C485.175 82.1375 484.85 81.75 484.612 81.475C484.375 81.2 484.075 80.8625 483.787 80.575L483.6 80.3875C483.537 80.3875 483.475 80.25 483.412 80.2C483.35 80.15 483.287 80.0625 483.225 80.0125L483.037 79.825L482.95 79.7375L482.862 79.65L482.787 79.575L482.7 79.4875H482.637H482.575H482.512H473.75H473.687H473.625H472.5H472.437H472.375H472.312H472.25H470H469.937H469.875C469.84 79.4398 469.798 79.3976 469.75 79.3625V79.3625C469.722 79.3092 469.678 79.2657 469.625 79.2375C469.625 79.2375 469.625 79.2375 469.625 79.2375C469.597 79.1842 469.553 79.1407 469.5 79.1125C469.5 79.1125 469.5 79.1125 469.5 79.1125C469.472 79.0592 469.428 79.0157 469.375 78.9875C469.375 78.9875 469.375 78.9875 469.312 78.9875C469.284 78.9342 469.241 78.8907 469.187 78.8625C469.187 78.8625 469.187 78.8625 469.125 78.8625C469.093 78.812 469.05 78.7693 469 78.7375C468.995 78.723 468.987 78.7098 468.976 78.699C468.965 78.6881 468.952 78.6799 468.937 78.675C468.902 78.6273 468.86 78.5851 468.812 78.55L468.687 78.425C468.4 78.1375 468.075 77.875 467.775 77.6C467.775 77.6 467.775 77.525 467.675 77.5125L467.537 77.3875C466.612 76.5625 465.65 75.7625 464.637 75C458.737 70.657 452.126 67.3746 445.1 65.3C436.989 62.8853 428.562 61.7055 420.1 61.8C413.225 61.7897 406.366 62.4639 399.625 63.8125C393.298 65.0668 387.116 66.9641 381.175 69.475C375.787 71.75 370.681 74.6445 365.962 78.1C361.73 81.1486 358.08 84.9339 355.187 89.275L355.275 89.3625L377.775 114.6L377.862 114.675L377.962 114.775L378.05 114.85L378.15 114.95L378.237 115.025L378.337 115.125L378.425 115.2L378.525 115.3L378.612 115.375L378.712 115.475L378.8 115.55L378.9 115.65L378.987 115.725L379.087 115.825L379.175 115.9L379.275 116L379.362 116.075L379.462 116.175L379.55 116.25L379.65 116.35L379.737 116.425L379.837 116.525L379.925 116.6L380.025 116.7L380.112 116.775L380.212 116.875L380.3 116.95L380.4 117.05L380.487 117.125L380.587 117.225L380.675 117.3L380.775 117.4L380.862 117.475L380.962 117.575L381.05 117.65L381.15 117.75L381.237 117.825L381.337 117.925L381.425 118L381.525 118.1L381.612 118.175L381.712 118.275L381.8 118.35L381.9 118.45L381.987 118.525L382.087 118.625L382.175 118.7L382.275 118.8L382.362 118.875L382.462 118.975L382.55 119.05L382.65 119.15L382.737 119.225L382.837 119.325L382.925 119.4L383.025 119.5L383.112 119.575L383.212 119.675L383.3 119.75L383.4 119.85L383.487 119.925L383.587 120.025L383.675 120.1L383.775 120.2L383.862 120.275L383.962 120.375L384.05 120.45L384.15 120.55L384.237 120.625L384.337 120.725L384.425 120.8L384.525 120.9L384.612 120.975L384.712 121.075L384.8 121.15L384.9 121.25L384.987 121.325L385.087 121.425L385.175 121.5L385.275 121.6L385.362 121.675L385.462 121.775L385.55 121.85L385.65 121.95L385.737 122.025L385.837 122.125L385.925 122.2L386.025 122.3L386.112 122.375L386.212 122.475C390.101 115.888 395.62 110.412 402.237 106.575C409.013 102.752 416.684 100.802 424.462 100.925C430.288 100.742 436.07 101.991 441.3 104.562C442.652 107.627 443.314 110.951 443.237 114.3C443.306 117.964 442.513 121.592 440.921 124.892C439.33 128.193 436.985 131.073 434.075 133.3C427.958 138.233 419.337 140.7 408.212 140.7H399.862V167.638H399.95V167.738H400.05V167.825H400.137V167.925H400.237V153.75H398.75V153.85H398.85V153.937H398.937V154.037H399.037V154.125H399.125V154.225H399.225V154.312H399.312V154.412H399.412V154.5H399.5V154.6H399.6V154.688H399.687V154.788H399.787V154.875H399.875V155H400V155.1H400.1V155.187H400.187V155.287H400.287V155.375H400.375V155.475H400.475V155.562H400.562V155.662H400.662V155.75H400.75V155.85H400.85V155.938H400.937V156.038H401.037V156.125H401.125V156.25H401.25V156.338H401.337V156.437H401.437V156.525H401.525V156.625H401.625V156.712H401.712V156.812H401.812V156.9H401.9V157H402V157.087H402.087V157.188H402.187V157.275H402.275V157.375H402.375V157.5H402.5V157.6H402.6V157.687H402.687V157.787H402.787V157.875H402.875V157.975H402.975V158.062H403.062V158.162H403.162V158.25H403.25V158.35H403.35V158.438H403.437V158.538H403.537V158.625H403.625V158.75H403.75V158.85H403.85V158.937H403.937V159.037H404.037V159.125H404.125V159.225H404.225V159.312H404.312V159.412H404.412V159.5H404.5V159.6H404.6V159.688H404.687V159.788H404.787V159.875H404.875V160H405V160.088H405.087V160.187H405.187V160.275H405.275V160.375H405.375V160.462H405.462V160.562H405.562V160.65H405.65V160.75H405.75V160.837H405.837V160.938H405.937V161.025H406.025V161.125H406.125V161.25H406.25V161.35H406.35V161.437H406.437V161.537H406.537V161.625H406.625V161.725H406.725V161.812H414.225C426.35 161.812 435.708 163.858 442.3 167.95C444.808 172.371 446.061 177.394 445.925 182.475C445.925 191.45 443.054 198.092 437.312 202.4C431.571 206.708 423.237 208.862 412.312 208.862C402.612 208.862 394.529 207.25 388.062 204.025C385.174 202.58 382.439 200.846 379.9 198.85L379.8 198.725L379.712 198.612L379.637 198.512L379.55 198.4L379.475 198.3L379.387 198.188L379.312 198.088L379.225 197.975L379.15 197.875L379.062 197.763L378.987 197.663L378.9 197.55L378.825 197.45L378.737 197.337L378.662 197.237L378.575 197.125L378.5 197.025L378.412 196.912L378.337 196.812L378.25 196.7L378.175 196.6L378.087 196.488L378.012 196.388L377.925 196.275L377.85 196.175L377.762 196.063L377.687 195.963L377.6 195.85L377.525 195.75L377.437 195.637L377.362 195.537L377.275 195.425L377.2 195.325L377.112 195.212L377.037 195.112L376.95 195L376.875 194.9L376.787 194.788L376.712 194.688L376.625 194.575L376.55 194.475L376.462 194.363L376.387 194.263L376.3 194.15L376.225 194.05L376.137 193.937L376.062 193.838L375.975 193.725L375.9 193.625L375.812 193.512L375.737 193.412L375.65 193.3L375.575 193.2L375.487 193.088L375.412 192.987L375.325 192.875L375.25 192.775L375.162 192.663L375.087 192.563L375 192.45L374.925 192.35L374.837 192.237L374.762 192.138L374.675 192.025L374.6 191.925L374.512 191.812L374.437 191.712L374.35 191.6L374.275 191.5L374.187 191.388L374.112 191.287L374.025 191.175L373.95 191.075L373.862 190.963L373.787 190.863L373.7 190.75L373.625 190.65L373.537 190.537L373.462 190.438L373.375 190.325L373.3 190.225L373.212 190.112L373.137 190.012L373.05 189.9L372.975 189.8L372.887 189.688L372.812 189.587L372.725 189.475L372.65 189.375L372.562 189.263L372.487 189.163L352.012 214.75C352.387 215.2 352.787 215.625 353.175 216.063C353.337 216.25 353.487 216.438 353.662 216.625C354 217.025 354.362 217.425 354.725 217.812C354.387 217.45 354.087 217.075 353.75 216.712L353.912 216.875C353.951 216.92 353.993 216.962 354.037 217H354.1C354.156 217.069 354.219 217.131 354.287 217.188C354.326 217.232 354.368 217.274 354.412 217.313V217.375L354.6 217.563L354.725 217.687C354.725 217.687 354.725 217.687 354.787 217.687C354.844 217.756 354.906 217.819 354.975 217.875L355.1 218C355.1 218 355.1 218 355.162 218.062L355.35 218.25C355.388 218.295 355.43 218.337 355.475 218.375L355.537 218.438C355.594 218.506 355.656 218.569 355.725 218.625C355.763 218.67 355.805 218.712 355.85 218.75H355.912C355.969 218.819 356.031 218.881 356.1 218.937C356.138 218.982 356.18 219.024 356.225 219.062V219.125L356.412 219.312L356.537 219.438C356.537 219.438 356.537 219.438 356.6 219.438C356.656 219.506 356.719 219.569 356.787 219.625L356.912 219.75C356.912 219.75 356.912 219.75 356.975 219.813L357.162 220C357.201 220.045 357.243 220.087 357.287 220.125L357.35 220.187C357.406 220.256 357.469 220.319 357.537 220.375C357.576 220.42 357.618 220.462 357.662 220.5H357.725C357.781 220.569 357.844 220.631 357.912 220.688C357.951 220.732 357.993 220.774 358.037 220.812V220.875L358.225 221.063L358.35 221.187C358.35 221.187 358.35 221.187 358.412 221.187C358.469 221.256 358.531 221.319 358.6 221.375L358.725 221.5C358.725 221.5 358.725 221.5 358.787 221.562L358.9 221.688H358.962C358.985 221.719 359.015 221.745 359.05 221.763V221.763L359.15 221.85C359.176 221.882 359.205 221.912 359.237 221.938V221.938C359.237 221.938 359.237 222.012 359.337 222.025L359.437 222.113H359.5L359.6 222.188L359.687 222.275L361.4 223.662C360.825 223.225 360.25 222.763 359.687 222.288C360.325 222.838 360.937 223.363 361.637 223.888C361.012 223.4 360.387 222.9 359.775 222.388C360.533 223.038 361.308 223.675 362.1 224.3C361.325 223.7 360.562 223.05 359.825 222.437C360.662 223.175 361.525 223.888 362.4 224.575C361.537 223.913 360.687 223.213 359.9 222.488C359.922 222.523 359.952 222.553 359.987 222.575V222.575C360.675 223.175 361.387 223.763 362.1 224.325L362.762 224.888C361.85 224.175 360.95 223.437 360.075 222.675C360.587 223.112 361.112 223.537 361.637 223.925C361.837 224.1 362.037 224.275 362.25 224.438L363.025 225.088C362.05 224.338 361.1 223.537 360.162 222.725L360.537 223.037L361.4 223.762C361.012 223.437 360.625 223.137 360.25 222.812L360.35 222.9C360.376 222.932 360.405 222.962 360.437 222.987L360.537 223.088C360.912 223.413 361.3 223.712 361.687 224.037L362.2 224.475C361.675 224.05 361.137 223.625 360.625 223.225C360.655 223.261 360.689 223.295 360.725 223.325C360.751 223.357 360.78 223.387 360.812 223.412L360.912 223.512L362.05 224.463L362.575 224.9C362.05 224.462 361.512 224.05 361 223.65C361.03 223.686 361.064 223.72 361.1 223.75C361.126 223.782 361.155 223.812 361.187 223.838L361.287 223.937L362.425 224.888L362.95 225.325C362.425 224.887 361.887 224.475 361.375 224.075C361.405 224.111 361.439 224.145 361.475 224.175C361.501 224.207 361.53 224.237 361.562 224.263L361.662 224.363L362.8 225.312L363.325 225.75C362.8 225.313 362.262 224.9 361.75 224.5L361.85 224.6L361.937 224.688L362.037 224.788C362.412 225.113 362.8 225.412 363.187 225.737L363.7 226.187C363.175 225.75 362.637 225.325 362.125 224.875L362.225 224.975C362.251 225.007 362.28 225.037 362.312 225.063L362.412 225.163C362.787 225.488 363.175 225.787 363.562 226.112L364.075 226.55C363.55 226.125 363.012 225.7 362.5 225.3C362.53 225.336 362.564 225.37 362.6 225.4C362.626 225.432 362.655 225.462 362.687 225.487L362.787 225.588L363.925 226.537L364.45 226.975C363.925 226.538 363.387 226.125 362.875 225.725C362.905 225.761 362.939 225.795 362.975 225.825C363.001 225.857 363.03 225.887 363.062 225.912L363.162 226.012L364.3 226.963L364.825 227.4C364.3 226.962 363.762 226.55 363.25 226.15C363.28 226.186 363.314 226.22 363.35 226.25C363.376 226.282 363.405 226.312 363.437 226.338L363.537 226.437L364.675 227.388L365.2 227.825C364.675 227.387 364.137 226.975 363.625 226.575L363.725 226.675L363.812 226.763L363.912 226.863C364.287 227.188 364.675 227.488 365.062 227.812L365.575 228.263C365.05 227.825 364.512 227.4 364 226.95L364.1 227.05C364.126 227.082 364.155 227.112 364.187 227.138L364.287 227.237C364.662 227.562 365.05 227.863 365.437 228.188L365.95 228.625C365.425 228.2 364.887 227.775 364.375 227.375C364.405 227.411 364.439 227.445 364.475 227.475C364.501 227.507 364.53 227.537 364.562 227.563L364.662 227.663L365.8 228.612L366.325 229.05C365.8 228.613 365.262 228.2 364.75 227.8C364.78 227.836 364.814 227.87 364.85 227.9C364.876 227.932 364.905 227.962 364.937 227.987L365.037 228.088L366.175 229.037L366.7 229.475C366.175 229.038 365.637 228.625 365.125 228.225C365.155 228.261 365.189 228.295 365.225 228.325C365.251 228.357 365.28 228.387 365.312 228.412L365.412 228.512L366.55 229.463L367.075 229.9C366.55 229.462 366.012 229.05 365.5 228.65L365.6 228.75C371.294 233.76 377.777 237.794 384.787 240.688C395.287 245.088 407.371 247.288 421.037 247.288C430.876 247.416 440.68 246.102 450.137 243.388C458.085 241.119 465.532 237.37 472.087 232.337C478.016 227.684 482.808 221.742 486.1 214.963C489.497 207.812 491.207 199.978 491.1 192.062C491.517 182.929 489.067 174.325 483.75 166.25ZM363.187 228.062L363.9 228.662L363.125 228.013L363.187 228.062ZM363.4 228.3C363.687 228.537 363.975 228.8 364.275 229.037L363.312 228.237L363.4 228.3ZM363.775 228.675C364.075 228.913 364.35 229.175 364.65 229.412L363.7 228.612L363.775 228.675ZM364.15 229.05C364.45 229.288 364.725 229.55 365.025 229.788L364.075 228.988L364.15 229.05ZM364.525 229.425C364.825 229.662 365.1 229.925 365.4 230.163L364.437 229.363L364.525 229.425ZM364.9 229.8C365.187 230.037 365.475 230.3 365.775 230.537L364.812 229.737L364.9 229.8ZM365.275 230.175C365.562 230.412 365.85 230.675 366.15 230.912L365.187 230.112L365.275 230.175ZM365.65 230.55C365.95 230.788 366.225 231.05 366.525 231.287L365.575 230.487L365.65 230.55ZM366.025 230.925C366.325 231.163 366.6 231.425 366.9 231.663L365.95 230.863L366.025 230.925ZM366.4 231.3C366.7 231.537 366.975 231.8 367.275 232.038L366.312 231.238L366.4 231.3ZM366.775 231.675C367.062 231.912 367.35 232.175 367.65 232.412L366.687 231.612L366.775 231.675ZM367.15 232.05C367.437 232.287 367.725 232.55 368.025 232.787L367.062 231.987L367.15 232.05ZM367.525 232.425C367.825 232.663 368.1 232.925 368.4 233.162L367.45 232.362L367.525 232.425ZM367.9 232.8C368.2 233.038 368.475 233.3 368.775 233.538L367.825 232.738L367.9 232.8ZM368.187 233.113L368.275 233.175C368.575 233.412 368.85 233.675 369.15 233.913L368.187 233.113Z" fill="#263238"/>
<path d="M445.937 138.55C456.663 140.278 466.337 146.004 473.012 154.575C479.921 163.292 483.379 173.929 483.387 186.487C483.5 194.403 481.79 202.239 478.387 209.387C475.1 216.167 470.312 222.108 464.387 226.762C457.85 231.787 450.425 235.535 442.5 237.812C433.047 240.528 423.247 241.842 413.412 241.712C399.762 241.712 387.679 239.512 377.162 235.112C366.967 230.938 357.953 224.324 350.912 215.85L371.387 190.262C375.857 196.036 381.564 200.734 388.087 204.012C394.546 207.246 402.629 208.862 412.337 208.862C423.287 208.862 431.621 206.708 437.337 202.4C443.054 198.092 445.921 191.458 445.937 182.5C445.937 173.158 442.604 165.975 435.937 160.95C429.271 155.925 419.212 153.425 405.762 153.45H398.262V126.425H406.612C417.746 126.425 426.367 123.954 432.475 119.012C435.388 116.785 437.735 113.904 439.327 110.6C440.919 107.297 441.71 103.666 441.637 100C441.637 92.6417 439.137 87.1625 434.137 83.5625C429.137 79.9625 422.583 78.1667 414.475 78.175C406.695 78.0525 399.023 80.0072 392.25 83.8375C385.63 87.6662 380.111 93.1385 376.225 99.725L353.6 74.4125C356.483 70.0425 360.133 66.2309 364.375 63.1625C369.097 59.7156 374.202 56.8256 379.587 54.55C385.529 52.0391 391.711 50.1418 398.037 48.8875C404.777 47.5286 411.637 46.8501 418.512 46.8625C426.975 46.772 435.403 47.9561 443.512 50.375C450.538 52.4453 457.149 55.7235 463.05 60.0625C468.368 64.0219 472.702 69.1551 475.712 75.0625C478.725 81.1293 480.246 87.8272 480.15 94.6C480.187 99.8312 479.368 105.033 477.725 110C476.156 114.765 473.789 119.228 470.725 123.2C467.696 127.142 464.003 130.526 459.812 133.2C455.583 135.877 450.869 137.695 445.937 138.55V138.55Z" fill="#455A64"/>
<path d="M423.512 58.1875C423.512 59.3917 423.154 60.5687 422.484 61.569C421.814 62.5693 420.861 63.3479 419.748 63.8058C418.634 64.2637 417.409 64.3803 416.229 64.1408C415.049 63.9013 413.967 63.3165 413.12 62.4606C412.273 61.6047 411.699 60.5164 411.472 59.3339C411.244 58.1514 411.374 56.928 411.843 55.8191C412.312 54.7102 413.101 53.7658 414.108 53.1058C415.115 52.4459 416.296 52.1001 417.5 52.1125C419.101 52.1257 420.632 52.772 421.759 53.9102C422.885 55.0484 423.516 56.5861 423.512 58.1875V58.1875Z" fill="#C7C7C7"/>
<path d="M422.875 56.975C422.875 58.1765 422.519 59.3511 421.851 60.3501C421.184 61.3491 420.235 62.1278 419.125 62.5876C418.015 63.0474 416.793 63.1677 415.615 62.9333C414.436 62.6989 413.354 62.1203 412.504 61.2707C411.655 60.4211 411.076 59.3386 410.842 58.1602C410.607 56.9817 410.728 55.7603 411.187 54.6502C411.647 53.5401 412.426 52.5913 413.425 51.9238C414.424 51.2563 415.598 50.9 416.8 50.9C418.411 50.9 419.956 51.54 421.096 52.6793C422.235 53.8186 422.875 55.3638 422.875 56.975Z" fill="#DBDBDB"/>
<path d="M166.25 303.488C166.25 303.488 173.75 259.738 176.85 251.1C179.025 245.138 187.925 230.1 194.287 218.95C195.537 216.7 203.763 211.25 207.7 209.163C213 206.363 222.988 210.875 223.713 222.4C224.013 227.188 215.862 232.65 213.587 237.688C210.387 244.763 210.175 253.938 209.912 255.438C209.462 257.938 227.125 277.513 226.35 284.963C225.575 292.413 205.1 317.975 200.662 319.45C196.225 320.925 166.387 310.7 166.25 303.488Z" fill="#FFC100"/>
<path d="M202.638 228.087C206.625 231.025 213 232.775 216.388 233.575C219.6 229.762 223.888 225.912 223.675 222.4C222.95 210.875 212.975 206.363 207.675 209.163C203.988 211.198 200.465 213.517 197.138 216.1C197.138 216.1 196.963 223.913 202.638 228.087Z" fill="#EBEBEB"/>
<path d="M219.188 211.912C219.263 211.912 219.35 211.987 219.288 212.05C217.513 213.712 215.8 215.462 214.188 217.3C212.587 218.825 211.53 220.831 211.175 223.013C211.167 223.035 211.153 223.054 211.134 223.067C211.115 223.081 211.092 223.088 211.069 223.088C211.045 223.088 211.023 223.081 211.004 223.067C210.985 223.054 210.97 223.035 210.963 223.013C210.893 220.74 211.554 218.505 212.85 216.637C214.438 214.425 216.863 213.187 219.188 211.912Z" fill="#263238"/>
<path d="M213.75 207.887C213.758 207.881 213.768 207.876 213.778 207.873C213.788 207.87 213.798 207.869 213.809 207.87C213.819 207.872 213.829 207.875 213.839 207.88C213.848 207.885 213.856 207.892 213.862 207.9C213.869 207.908 213.874 207.918 213.877 207.928C213.88 207.938 213.881 207.948 213.88 207.959C213.878 207.969 213.875 207.979 213.87 207.989C213.865 207.998 213.858 208.006 213.85 208.012C212.199 209.681 210.654 211.451 209.225 213.312C207.975 214.875 205.812 217.175 206.725 219.325C206.875 219.7 206.725 219.738 206.437 219.413C205.087 217.387 206.437 214.8 207.687 213.075C209.288 210.908 211.362 209.134 213.75 207.887V207.887Z" fill="#263238"/>
<path opacity="0.1" d="M200.7 319.45C205.138 317.975 225.6 292.413 226.375 284.963C226.963 279.275 216.813 266.55 212.175 259.713L173.763 263.463C170.363 279.413 166.263 303.463 166.263 303.463C166.388 310.7 196.25 320.913 200.7 319.45Z" fill="black"/>
<path d="M94.175 319.35C94.175 319.35 56.8875 316.012 55.5625 318.675C54.6875 320.412 62.9125 342.625 67.5875 349.987C72.2625 357.35 102.3 385.662 110.238 391.9L94.175 319.35Z" fill="#FFC100"/>
<path opacity="0.1" d="M78.975 349.7C82.15 354.7 96.85 368.675 107.038 377.425L95 323.112C85.675 321.862 66.5375 319.612 65.7375 321.437C65 323.012 74.4875 342.638 78.975 349.7Z" fill="black"/>
<path d="M130 278.675C130 277.75 121.763 250.775 133.963 233.987C136.213 230.875 177.263 268.913 177.263 268.913L130 278.675Z" fill="#FFC100"/>
<path opacity="0.1" d="M137.738 277.063L175.6 269.25C171.65 265.6 142.738 239.075 141.025 241.413C131.875 254.013 136.963 273.75 137.738 277.063Z" fill="black"/>
<path d="M243.637 319.113C243.637 319.113 230.35 283.775 207.387 266.712C204.525 264.6 149.212 266.487 138.212 269.212C135.087 269.987 98.9625 302.812 88.65 323.988C86.875 327.5 95.25 366.362 108.75 389.525C112.087 395.262 172.062 446.925 211.25 455.663C218.65 457.313 312.325 454.413 334.825 438.838C357.325 423.263 396.575 366.95 398.975 351.213C401.375 335.475 345.375 287.887 326.337 287.887C307.3 287.887 243.637 319.113 243.637 319.113Z" fill="#FFC100"/>
<path d="M158.638 276.925C163.15 270.138 172.187 271.225 180.112 276.488C186.512 280.75 190.388 289.125 186.063 295.638C181.738 302.15 171.363 301.062 165.338 297.062C159.313 293.062 153.75 284.288 158.638 276.925Z" fill="#263238"/>
<path d="M159.863 278.675C164.1 272.3 172.6 273.325 180.05 278.262C186.075 282.275 189.712 290.15 185.637 296.275C181.562 302.4 171.887 301.375 166.162 297.612C160.437 293.85 155.263 285.6 159.863 278.675Z" fill="white"/>
<path d="M165.975 281.25C169.288 276.25 175.975 277.062 181.775 280.937C186.488 284.075 189.338 290.237 186.15 295.025C182.963 299.812 175.338 299.025 170.9 296.075C166.463 293.125 162.363 286.637 165.975 281.25Z" fill="#263238"/>
<path d="M161.25 283C162.763 280.738 165.788 281.1 168.425 282.863C170.575 284.275 171.863 287.075 170.413 289.263C168.963 291.45 165.5 291.075 163.5 289.738C161.5 288.4 159.563 285.462 161.25 283Z" fill="white"/>
<path d="M128.337 324.313C120.55 331.513 122.162 341.1 128.625 348.062C130.089 349.579 131.839 350.789 133.774 351.623C135.709 352.457 137.791 352.899 139.898 352.922C142.005 352.945 144.096 352.55 146.049 351.759C148.002 350.967 149.778 349.796 151.275 348.312C158.775 341.4 157.087 330.338 152.175 325.038C150.669 323.405 148.853 322.09 146.833 321.168C144.812 320.246 142.628 319.737 140.408 319.669C138.189 319.602 135.978 319.978 133.905 320.775C131.833 321.572 129.94 322.775 128.337 324.313Z" fill="#263238"/>
<path d="M130.438 325.075C123.125 331.85 124.637 340.863 130.7 347.425C132.079 348.838 133.723 349.965 135.538 350.742C137.353 351.518 139.304 351.929 141.278 351.95C143.253 351.971 145.211 351.602 147.043 350.864C148.874 350.126 150.542 349.034 151.95 347.65C158.975 341.15 157.413 330.762 152.8 325.775C151.384 324.249 149.68 323.02 147.786 322.158C145.892 321.296 143.845 320.819 141.765 320.754C139.685 320.689 137.612 321.037 135.668 321.779C133.724 322.521 131.946 323.641 130.438 325.075V325.075Z" fill="white"/>
<path d="M136.25 327.912C130.512 333.212 131.7 340.262 136.45 345.412C137.527 346.53 138.816 347.422 140.241 348.036C141.666 348.651 143.199 348.976 144.751 348.992C146.303 349.008 147.842 348.716 149.28 348.131C150.718 347.547 152.025 346.682 153.125 345.588C158.612 340.5 157.4 332.375 153.787 328.463C152.68 327.262 151.344 326.295 149.858 325.616C148.373 324.937 146.767 324.562 145.134 324.51C143.502 324.459 141.875 324.734 140.35 325.318C138.824 325.902 137.431 326.784 136.25 327.912V327.912Z" fill="#263238"/>
<path d="M129.762 331.437C127.162 333.837 127.7 337.038 129.85 339.375C130.34 339.881 130.926 340.285 131.574 340.563C132.221 340.841 132.917 340.988 133.622 340.995C134.326 341.002 135.025 340.869 135.678 340.603C136.331 340.338 136.925 339.946 137.425 339.45C138.456 338.436 139.061 337.067 139.117 335.622C139.173 334.177 138.675 332.765 137.725 331.675C137.221 331.131 136.614 330.693 135.939 330.386C135.264 330.08 134.535 329.91 133.793 329.888C133.052 329.866 132.314 329.992 131.622 330.258C130.93 330.524 130.298 330.925 129.762 331.437V331.437Z" fill="white"/>
<path d="M159.912 313.15C160.687 313.6 166.475 311.3 166.837 310.812C167.2 310.325 167.812 304.05 167.187 303.4C166.562 302.75 163.35 306.537 162.6 307.55C161.85 308.562 159.15 312.725 159.912 313.15Z" fill="#263238"/>
<path d="M174.575 303.987C175.068 305.415 175.485 306.867 175.825 308.337C175.995 309.037 176.084 309.755 176.087 310.475C176.102 310.748 176.032 311.018 175.888 311.25C175.701 311.423 175.473 311.544 175.225 311.6C174.564 311.72 173.886 311.72 173.225 311.6C172.507 311.494 171.797 311.339 171.1 311.137C169.681 310.735 168.29 310.238 166.938 309.65L164.438 308.575L165.95 310.812C166.96 312.307 167.842 313.883 168.587 315.525C168.955 316.33 169.248 317.167 169.463 318.025C169.688 318.792 169.688 319.608 169.463 320.375L169.338 320.612L169.2 320.825C169.063 320.962 168.925 321.1 168.775 321.225C168.45 321.492 168.088 321.711 167.7 321.875C166.899 322.21 166.059 322.441 165.2 322.562C163.374 322.815 161.526 322.874 159.688 322.737C161.517 323.171 163.396 323.356 165.275 323.287C166.24 323.252 167.196 323.079 168.113 322.775C169.164 322.496 170.062 321.813 170.613 320.875C171.023 319.89 171.115 318.802 170.875 317.762C170.676 316.815 170.383 315.889 170 315C169.26 313.254 168.36 311.58 167.313 310L166.35 311.162C167.785 311.766 169.265 312.259 170.775 312.637C171.544 312.82 172.325 312.945 173.113 313.012C173.953 313.109 174.805 313.028 175.613 312.775C176.113 312.633 176.552 312.33 176.863 311.912C177.101 311.483 177.198 310.988 177.138 310.5C177.061 309.709 176.88 308.931 176.6 308.187C176.056 306.728 175.378 305.322 174.575 303.987Z" fill="#263238"/>
<path d="M187.213 278.213C189.713 274.513 192.304 270.888 194.988 267.338C197.675 263.8 200.4 260.275 203.288 256.888C204.688 255.163 206.15 253.488 207.6 251.8C209.05 250.113 210.563 248.475 212.075 246.8C215.063 243.5 218.225 240.363 221.363 237.175C219.675 238.65 217.975 240.1 216.363 241.625C214.75 243.15 213.138 244.713 211.588 246.325C208.45 249.5 205.5 252.863 202.613 256.325C199.725 259.788 197.025 263.3 194.438 266.95C193.154 268.775 191.904 270.621 190.688 272.488C189.475 274.363 188.288 276.25 187.213 278.213Z" fill="#263238"/>
<path d="M190.362 278.388C191.687 276.875 193 275.35 194.35 273.863C195.7 272.375 197.025 270.875 198.388 269.4C201.113 266.45 203.85 263.513 206.688 260.65C208.063 259.2 209.5 257.788 210.912 256.375L215.263 252.2L217.45 250.138L219.675 248.113C221.125 246.725 222.688 245.463 224.163 244.088C220.938 246.488 217.788 249.013 214.788 251.7C211.788 254.388 208.875 257.163 206.038 260.025C203.2 262.888 200.488 265.85 197.875 268.913C195.263 271.975 192.712 275.125 190.362 278.388Z" fill="#263238"/>
<path d="M191.638 280.85C192.888 279.725 194.138 278.6 195.388 277.5C196.638 276.4 197.888 275.275 199.138 274.2C201.638 272.025 204.225 269.85 206.825 267.75C209.425 265.65 212.013 263.525 214.638 261.5C217.263 259.475 219.938 257.4 222.575 255.325C221.15 256.213 219.738 257.125 218.338 258.05C216.938 258.975 215.575 259.95 214.225 260.938C211.488 262.888 208.85 264.975 206.25 267.088C203.65 269.2 201.125 271.425 198.688 273.725C196.25 276.025 193.863 278.338 191.638 280.85Z" fill="#263238"/>
<path d="M135.525 362.125C133.613 364.125 131.775 366.237 130.025 368.375C128.275 370.512 126.538 372.675 124.85 374.875C121.475 379.262 118.288 383.812 115.238 388.437C112.188 393.062 109.338 397.812 106.688 402.687C105.35 405.1 104.088 407.575 102.838 410.05C102.213 411.3 101.588 412.55 101.063 413.8L99.3375 417.55C101.925 412.65 104.475 407.75 107.3 403C108.675 400.6 110.1 398.237 111.525 395.875C112.95 393.512 114.45 391.187 115.988 388.9C118.963 384.25 122.15 379.725 125.4 375.262C128.65 370.8 132 366.387 135.525 362.125Z" fill="#263238"/>
<path d="M136.888 365.8C133.9 369.8 131.138 373.962 128.475 378.187C125.813 382.412 123.338 386.75 120.975 391.125C118.613 395.5 116.25 400 114.213 404.512C112.175 409.025 110.238 413.675 108.525 418.362C109.588 416.1 110.513 413.787 111.625 411.55L113.188 408.162L114.838 404.812C115.925 402.575 117.063 400.35 118.188 398.138C119.313 395.925 120.5 393.725 121.713 391.55C124.05 387.15 126.538 382.8 129.063 378.55C130.321 376.4 131.608 374.262 132.925 372.137C134.213 370 135.55 367.9 136.888 365.8Z" fill="#263238"/>
<path d="M140.263 366.413C138.125 370 136.25 373.75 134.413 377.5C132.575 381.25 130.938 385.062 129.325 388.9C127.713 392.737 126.25 396.637 124.913 400.575C124.225 402.537 123.6 404.525 122.95 406.5C122.3 408.475 121.775 410.487 121.213 412.5C122.675 408.6 124.063 404.687 125.563 400.812C127.063 396.937 128.55 393.075 130.15 389.238C131.75 385.4 133.375 381.588 135.038 377.788C135.871 375.888 136.729 373.996 137.613 372.113C138.463 370.163 139.363 368.288 140.263 366.413Z" fill="#263238"/>
<path opacity="0.1" d="M172.025 342.5C174.175 341.375 176.35 340.412 178.475 339.437C179.525 338.912 180.613 338.475 181.613 337.925C182.569 337.459 183.474 336.893 184.313 336.237C185.008 335.518 185.556 334.668 185.925 333.737C186.425 332.725 186.8 331.637 187.175 330.55C187.988 328.362 188.763 326.125 189.675 323.887C189.756 326.309 189.542 328.731 189.038 331.1C188.792 332.306 188.457 333.493 188.037 334.65C187.617 335.958 186.888 337.145 185.913 338.112C184.896 338.94 183.757 339.606 182.538 340.087C179.163 341.466 175.588 342.29 171.95 342.525L172.025 342.5Z" fill="black"/>
<path d="M397.4 356.55C409.062 332.7 422.075 297.175 410.662 269.95C399.25 242.725 337.6 197.5 328.075 170.387C318.55 143.275 328.325 129.45 319.75 127.887C315.362 127.062 305.875 150.263 310.513 173.075C316.85 204.2 380.337 261.075 388.012 278.875C395.687 296.675 387.587 311.813 377.35 327.388L397.4 356.55Z" fill="#FFC100"/>
<path d="M278.425 274.063C277.746 274.024 277.086 273.829 276.495 273.493C275.904 273.156 275.4 272.687 275.02 272.123C274.641 271.558 274.398 270.914 274.31 270.24C274.222 269.566 274.291 268.88 274.513 268.238V268.238C274.575 268.05 280.9 249.613 281.338 219.188C281.6 200.963 272.025 193.363 261.9 185.313C252.5 177.813 242.775 170.125 243.525 154.4C244.125 141.838 253.1 136.013 261.025 130.888C268.95 125.763 276.138 121.087 277.738 110.25C281.25 86.725 260.15 64.7 260 64.4875C259.246 63.6482 258.845 62.5501 258.882 61.4224C258.918 60.2948 259.389 59.2248 260.196 58.4359C261.002 57.647 262.082 57.2003 263.211 57.1889C264.339 57.1776 265.428 57.6025 266.25 58.375C267.238 59.4 290.563 83.6875 286.425 111.537C284.225 126.275 274.013 132.9 265.813 138.225C257.613 143.55 252.663 147.125 252.3 154.825C251.763 166.075 258.663 171.538 267.375 178.463C277.663 186.625 290.45 196.788 290.125 219.313C289.663 251.3 283.075 270.35 282.8 271.138C282.483 272.031 281.886 272.799 281.098 273.326C280.31 273.853 279.372 274.112 278.425 274.063V274.063Z" fill="#455A64"/>
<path d="M266.35 409C272.763 409 274.575 404.675 274.575 404.675C274.575 404.675 277.675 409.675 282.913 408.112C288.15 406.55 287.538 400.15 287.538 400.15C287.538 400.15 290.663 404.35 296.288 401.587C300.825 399.375 298.438 392.537 298.438 392.537C299.809 393.833 301.58 394.625 303.46 394.784C305.34 394.943 307.218 394.459 308.788 393.413C311.288 391.925 310.988 387.162 311.4 386.912C325.288 376.25 353.413 353.837 339.763 298.5C329.388 256.437 288.788 243.238 253.513 245C252.975 245 252.688 242.138 248.875 242.138C247.949 242.049 247.017 242.233 246.193 242.666C245.37 243.099 244.69 243.762 244.238 244.575C243.472 243.691 242.425 243.097 241.273 242.895C240.121 242.692 238.934 242.893 237.913 243.463C236.799 243.986 235.896 244.872 235.351 245.976C234.806 247.079 234.651 248.335 234.913 249.538C233.513 248.788 231.263 245.213 226.163 247.213C221.063 249.213 221.988 254.713 221.988 254.713C220.887 253.926 219.577 253.486 218.224 253.45C216.872 253.415 215.54 253.785 214.4 254.513C213.288 255.163 212.988 259.875 212.488 260.675C206.35 253.537 202.888 261.763 204.313 264.3C206.238 267.738 201.45 269.912 200.563 270.812C178.85 292.412 172.538 337.763 188.55 366.487C208.988 403.162 241.713 406.487 259.675 405.537C259.563 405.5 261.25 409 266.35 409Z" fill="#455A64"/>
<path d="M286.525 385.65C265.825 375.05 252.937 352.6 245.387 331.375C237.388 308.799 235.275 284.557 239.25 260.938C239.55 259.163 236.837 258.437 236.537 260.187C232.298 285.09 234.695 310.669 243.487 334.35C251.412 355.475 264.4 377.463 285.1 388.1C286.712 388.913 288.137 386.475 286.525 385.65Z" fill="#37474F"/>
<path d="M262.025 392.887C245.03 377.591 231.88 358.504 223.642 337.175C215.404 315.845 212.311 292.874 214.613 270.125C214.8 268.325 211.975 268.337 211.8 270.125C209.487 293.242 212.645 316.579 221.018 338.25C229.391 359.921 242.745 379.318 260 394.875C261.375 396.087 263.363 394.1 262.025 392.887Z" fill="#37474F"/>
<path d="M311.6 387.5C334.1 374.363 341.6 348.2 341.863 323.413C341.873 323.165 341.81 322.92 341.681 322.709C341.551 322.497 341.362 322.329 341.138 322.225C341.913 320.957 342.546 319.607 343.025 318.2C343.613 316.488 340.9 315.7 340.313 317.45C339.104 321.204 336.578 324.394 333.2 326.43C329.822 328.466 325.821 329.21 321.938 328.525C321.863 328.519 321.787 328.519 321.713 328.525C322.114 326.501 322.401 324.456 322.575 322.4C322.687 322.421 322.801 322.421 322.912 322.4C327.028 322.231 331.002 320.851 334.337 318.434C337.672 316.017 340.22 312.67 341.663 308.812C341.734 308.641 341.764 308.456 341.75 308.271C341.737 308.086 341.679 307.907 341.583 307.748C341.487 307.59 341.354 307.456 341.196 307.359C341.039 307.261 340.86 307.203 340.675 307.188C340.659 307.067 340.625 306.949 340.575 306.838C340.557 306.802 340.536 306.769 340.513 306.738C340.684 306.582 340.814 306.386 340.89 306.168C340.966 305.95 340.987 305.716 340.95 305.488C336.25 277.5 314.538 262.65 289.3 254.85L289.763 254.575C289.922 254.482 290.061 254.359 290.173 254.212C290.284 254.066 290.366 253.899 290.413 253.72C290.46 253.542 290.472 253.357 290.447 253.174C290.422 252.991 290.362 252.815 290.269 252.656C290.176 252.497 290.053 252.358 289.906 252.246C289.76 252.134 289.592 252.053 289.414 252.006C289.236 251.959 289.05 251.947 288.868 251.972C288.685 251.997 288.509 252.057 288.35 252.15C287.275 252.75 286.225 253.4 285.163 254.025L285.013 254.125C273.847 260.881 263.738 269.246 255.012 278.95C254.735 279.1 254.515 279.337 254.387 279.625C252.562 281.675 250.775 283.763 249.075 285.938C249 283.363 249 280.775 249.075 278.187C249.3 278.182 249.521 278.12 249.717 278.009C249.913 277.898 250.079 277.74 250.2 277.55C258.258 265.581 269.46 256.066 282.575 250.05C284.225 249.287 282.8 246.862 281.162 247.55C268.464 253.403 257.499 262.447 249.338 273.8C249.934 266.503 251.257 259.284 253.288 252.25C253.352 251.903 253.283 251.544 253.096 251.244C252.908 250.945 252.615 250.726 252.275 250.632C251.934 250.538 251.571 250.575 251.256 250.735C250.941 250.896 250.698 251.169 250.575 251.5C235.888 302.65 259.013 354.725 301.175 385.113C302.65 386.175 304.05 383.738 302.6 382.688L302.088 382.3C312.536 377.944 321.37 370.445 327.366 360.844C333.362 351.242 336.222 340.013 335.55 328.713C335.541 328.478 335.472 328.25 335.35 328.05C336.692 327.155 337.914 326.092 338.988 324.888C338.388 348.638 331.013 373.513 308.775 385.625C308.606 385.715 308.457 385.838 308.338 385.988L305.838 385.538C304.063 385.213 303.338 387.925 305.088 388.25L309.838 389.125C310.066 389.167 310.301 389.155 310.525 389.09C310.748 389.026 310.953 388.91 311.124 388.752C311.295 388.595 311.427 388.4 311.51 388.182C311.592 387.965 311.623 387.731 311.6 387.5V387.5ZM286.037 256.875C309.787 263.725 330.625 276.45 337.113 300.925C324.313 280.7 302.513 262.175 278.05 262.1C280.638 260.2 283.312 258.475 286.037 256.813V256.875ZM274.15 265C298.85 263.063 320.988 281.25 334.075 301.35C325.867 291.646 315.625 283.868 304.074 278.567C292.523 273.265 279.946 270.571 267.237 270.675C269.462 268.75 271.788 266.813 274.15 265ZM259.05 278.575C260.75 276.775 262.513 275.05 264.3 273.363C264.503 273.473 264.732 273.525 264.963 273.513C279.248 273.013 293.424 276.169 306.149 282.681C318.873 289.193 329.725 298.846 337.675 310.725C337.55 310.937 337.438 311.163 337.3 311.375C327.515 300.434 315.415 291.812 301.879 286.136C288.343 280.46 273.712 277.873 259.05 278.563V278.575ZM249.525 293.75L253.5 293.625C255.313 293.563 255.313 290.75 253.5 290.813L249.312 290.95C249.312 290.413 249.213 289.875 249.188 289.338C249.414 289.338 249.637 289.285 249.839 289.183C250.041 289.081 250.216 288.933 250.35 288.75C252.263 286.25 254.287 283.863 256.362 281.525C271.145 280.408 285.986 282.724 299.725 288.292C313.464 293.861 325.729 302.531 335.563 313.625C334.592 314.698 333.497 315.651 332.3 316.463C332.24 316.338 332.155 316.227 332.05 316.138C311.52 298.933 285.358 289.919 258.587 290.825C256.775 290.825 256.775 293.7 258.587 293.638C284.489 292.721 309.825 301.355 329.775 317.9C328.265 318.598 326.667 319.086 325.025 319.35C324.988 319.172 324.914 319.003 324.809 318.855C324.703 318.707 324.568 318.582 324.413 318.488C302.387 304.175 276.343 297.321 250.125 298.938C249.888 297.225 249.687 295.5 249.525 293.75ZM314.088 341.463C313.106 343.24 312.003 344.948 310.788 346.575C301.184 341.955 292.723 335.266 286.013 326.988C285.981 326.79 285.899 326.605 285.774 326.449C285.649 326.294 285.486 326.173 285.3 326.1C279.792 319.081 275.646 311.094 273.075 302.55C274.512 302.738 275.938 302.938 277.363 303.175C277.363 303.175 277.363 303.175 277.363 303.238C285.002 319.719 297.928 333.177 314.088 341.475V341.463ZM307.088 333.963C311.272 333.703 315.286 332.211 318.625 329.675C317.871 332.868 316.782 335.973 315.375 338.938C312.514 337.459 309.746 335.806 307.088 333.988V333.963ZM306.05 351.25C301.705 353.251 296.927 354.124 292.155 353.79C287.384 353.456 282.773 351.925 278.75 349.338C279.654 347.775 280.768 346.345 282.063 345.088C285.137 347.752 288.967 349.388 293.017 349.767C297.068 350.145 301.135 349.248 304.65 347.2C304.838 347.1 304.997 346.954 305.113 346.775C306.363 347.488 307.688 348.175 309 348.825C308.313 349.638 307.575 350.413 306.838 351.15C306.571 351.109 306.298 351.144 306.05 351.25V351.25ZM284.225 343.238C286.925 341.287 290.047 340.003 293.338 339.488C293.618 339.44 293.873 339.299 294.063 339.088C296.711 341.291 299.51 343.308 302.438 345.125C299.556 346.646 296.288 347.279 293.047 346.945C289.806 346.612 286.736 345.326 284.225 343.25V343.238ZM285.725 311.438C285.579 311.494 285.444 311.574 285.325 311.675C283.665 309.138 282.15 306.509 280.788 303.8C283.588 304.35 286.35 305.05 289.1 305.8C289.234 306.982 288.977 308.174 288.367 309.195C287.757 310.216 286.829 311.008 285.725 311.45V311.438ZM291.975 306.587C295.902 307.762 299.765 309.139 303.55 310.713C303.087 313.339 301.888 315.78 300.094 317.754C298.3 319.727 295.983 321.152 293.413 321.863C293.35 321.888 293.291 321.922 293.238 321.963C290.95 319.441 288.829 316.773 286.888 313.975C288.349 313.361 289.602 312.339 290.498 311.031C291.393 309.723 291.893 308.185 291.937 306.6L291.975 306.587ZM295.363 324.2C298.075 323.235 300.495 321.593 302.394 319.429C304.293 317.265 305.608 314.652 306.213 311.838C307.925 312.6 309.613 313.413 311.288 314.25C311.288 314.25 311.288 314.325 311.288 314.375C310.616 317.529 309.012 320.408 306.682 322.637C304.352 324.867 301.405 326.343 298.225 326.875C297.208 326.025 296.242 325.138 295.325 324.213L295.363 324.2ZM250.625 301.7C254.45 301.487 258.263 301.475 262.05 301.613C257.862 304.154 254.689 308.074 253.075 312.7C252.05 309.113 251.25 305.45 250.588 301.738L250.625 301.7ZM254.163 316.425C254.408 316.384 254.635 316.27 254.816 316.098C254.996 315.927 255.121 315.706 255.175 315.463C255.847 312.643 257.174 310.022 259.048 307.811C260.923 305.6 263.291 303.862 265.963 302.738C266.145 302.668 266.305 302.551 266.428 302.4C266.551 302.249 266.632 302.068 266.663 301.875C267.913 301.975 269.163 302.063 270.325 302.188C270.243 302.448 270.243 302.727 270.325 302.988C271.598 307.349 273.272 311.584 275.325 315.638C271.718 315.699 268.188 316.687 265.075 318.509C261.962 320.331 259.37 322.923 257.55 326.037C256.25 322.925 255.138 319.713 254.125 316.463L254.163 316.425ZM258.963 329.263C259.097 329.147 259.207 329.007 259.287 328.85C260.854 325.563 263.369 322.819 266.507 320.973C269.646 319.126 273.265 318.26 276.9 318.488C278.446 321.243 280.171 323.895 282.063 326.425C278.107 327.193 274.448 329.061 271.505 331.813C268.563 334.566 266.455 338.092 265.425 341.988C263.017 337.886 260.847 333.65 258.925 329.3L258.963 329.263ZM267.313 345.125C267.538 344.942 267.693 344.685 267.75 344.4C268.428 340.413 270.376 336.752 273.304 333.963C276.233 331.174 279.985 329.407 284 328.925C284.913 330.038 285.863 331.138 286.838 332.2C279.188 335.65 271.35 340.275 269.838 349.013C268.963 347.763 268.1 346.475 267.275 345.163L267.313 345.125ZM271.713 351.688C271.928 351.581 272.112 351.42 272.245 351.22C272.379 351.021 272.458 350.79 272.475 350.55C273.2 341.725 281.7 337.513 288.913 334.3C289.813 335.2 290.725 336.075 291.662 336.925C287.305 337.789 283.291 339.895 280.104 342.989C276.917 346.083 274.693 350.033 273.7 354.363C273 353.538 272.325 352.638 271.675 351.725L271.713 351.688ZM291.55 360.538C288.844 360.967 286.079 360.833 283.427 360.145C280.775 359.457 278.293 358.229 276.138 356.538C276.409 354.916 276.867 353.33 277.5 351.813C281.018 354.034 284.946 355.527 289.051 356.204C293.156 356.88 297.355 356.726 301.4 355.75C298.655 357.694 295.748 359.401 292.713 360.85C292.548 360.713 292.354 360.617 292.145 360.569C291.937 360.521 291.72 360.523 291.512 360.575L291.55 360.538ZM279.65 361.788C281.917 362.734 284.324 363.304 286.775 363.475C285.4 364.025 284.013 364.575 282.613 365.113C281.563 364.075 280.588 362.963 279.613 361.838L279.65 361.788ZM284.65 367.313C295.488 363.113 305.463 358.125 312.713 348.563C316.653 343.352 319.502 337.4 321.088 331.063C321.088 331.063 321.088 331.063 321.175 331.063C323.541 331.445 325.955 331.42 328.313 330.988C326.744 340.702 322.458 349.774 315.95 357.156C309.443 364.537 300.979 369.926 291.538 372.7C291.259 372.778 291.016 372.95 290.85 373.188C288.75 371.375 286.65 369.4 284.663 367.363L284.65 367.313ZM299.8 380.35C299.7 380.35 299.65 380.463 299.563 380.513C297.338 378.8 295.138 377.05 293.025 375.225C302.972 372.18 311.847 366.369 318.616 358.469C325.384 350.57 329.766 340.909 331.25 330.613C331.269 330.513 331.269 330.412 331.25 330.313C331.775 330.125 332.288 329.888 332.788 329.663C333.314 340.511 330.412 351.25 324.494 360.356C318.575 369.463 309.94 376.476 299.813 380.4L299.8 380.35ZM303.175 331.063C302.363 330.438 301.55 329.813 300.762 329.138C303.93 328.217 306.799 326.477 309.079 324.094C311.359 321.711 312.971 318.768 313.75 315.563C315.833 316.671 317.892 317.838 319.925 319.063C319.885 321.113 319.718 323.158 319.425 325.188C317.386 327.397 314.849 329.087 312.024 330.118C309.2 331.148 306.17 331.49 303.187 331.113L303.175 331.063Z" fill="#37474F"/>
<path d="M246.138 392.7C246.272 392.629 246.391 392.531 246.488 392.412C247.8 393.087 249.4 391.35 248.138 390.238C232.912 376.722 221.164 359.74 213.884 340.727C206.604 321.714 204.007 301.228 206.313 281C206.513 279.212 203.7 279.225 203.5 281C203.388 282.012 203.3 283.025 203.213 284.025C196.644 284.429 190.5 287.407 186.113 292.312C184.863 293.662 186.888 295.65 188.1 294.3C191.91 289.977 197.255 287.309 203 286.862C202.85 289.362 202.767 291.837 202.75 294.287C194.892 295.906 187.614 299.606 181.675 305C180.325 306.25 182.325 308.187 183.663 306.987C189.062 302.127 195.637 298.762 202.738 297.225C202.738 298.812 202.813 300.412 202.888 302C194.306 303.365 186.436 307.584 180.55 313.975C179.3 315.3 181.3 317.3 182.538 315.962C187.962 310.083 195.178 306.163 203.063 304.813C203.125 305.688 203.2 306.563 203.275 307.438C194.374 309.903 186.217 314.522 179.525 320.887C178.213 322.137 180.2 324.112 181.513 322.875C187.751 316.955 195.329 312.632 203.6 310.275C203.813 312.125 204.05 313.962 204.338 315.787C204.075 315.737 203.804 315.772 203.563 315.887C193.733 320.129 185.47 327.33 179.925 336.487C178.975 338.037 181.4 339.45 182.35 337.912C187.625 329.256 195.449 322.444 204.75 318.413C205.063 320.1 205.388 321.788 205.763 323.413C205.464 323.437 205.183 323.56 204.963 323.763C199.787 328.551 195.68 334.377 192.908 340.86C190.136 347.343 188.762 354.338 188.875 361.387C188.908 361.738 189.07 362.063 189.331 362.299C189.591 362.536 189.93 362.667 190.281 362.667C190.633 362.667 190.972 362.536 191.232 362.299C191.492 362.063 191.654 361.738 191.688 361.387C191.575 354.83 192.828 348.321 195.368 342.273C197.907 336.226 201.677 330.774 206.438 326.263C207.038 328.763 207.688 331.2 208.5 333.637C200.319 342.997 195.298 354.697 194.15 367.075C193.848 367.093 193.559 367.204 193.323 367.393C193.087 367.582 192.916 367.84 192.832 368.13C192.748 368.421 192.757 368.73 192.856 369.016C192.956 369.302 193.141 369.549 193.388 369.725C198.403 373.115 204.13 375.308 210.127 376.134C216.124 376.959 222.23 376.396 227.975 374.487C228.212 374.423 228.425 374.291 228.588 374.106C228.75 373.922 228.854 373.693 228.888 373.45C230.138 375.088 231.388 376.687 232.713 378.275C227.345 381.564 221.119 383.179 214.829 382.914C208.54 382.649 202.472 380.516 197.4 376.787C195.913 375.737 194.5 378.175 195.975 379.212C201.552 383.25 208.209 385.526 215.09 385.749C221.971 385.972 228.761 384.131 234.588 380.462C236.088 382.187 237.633 383.879 239.225 385.537C234.863 388.013 230.048 389.585 225.066 390.161C220.083 390.737 215.036 390.303 210.225 388.887C209.878 388.823 209.519 388.892 209.219 389.079C208.92 389.267 208.701 389.56 208.607 389.9C208.513 390.241 208.55 390.604 208.71 390.919C208.871 391.234 209.144 391.477 209.475 391.6C214.764 393.141 220.313 393.579 225.779 392.889C231.244 392.199 236.51 390.395 241.25 387.588C242.238 388.563 243.238 389.525 244.263 390.488C236.662 394.306 228.148 395.934 219.675 395.187C217.875 395.037 217.875 397.85 219.675 398C228.819 398.768 237.994 396.93 246.138 392.7V392.7ZM200.775 351.45C202.937 346.158 205.887 341.223 209.525 336.813C211.494 342.641 213.875 348.322 216.65 353.812C211.257 354.622 205.746 353.8 200.825 351.45H200.775ZM199.813 354.075C205.396 356.646 211.623 357.482 217.688 356.475C217.773 356.453 217.857 356.424 217.938 356.387C219.088 358.537 220.313 360.65 221.588 362.738C213.667 364.204 205.494 363.398 198.013 360.412C198.496 358.26 199.096 356.136 199.813 354.05V354.075ZM196.338 368.288C196.507 368.17 196.648 368.015 196.75 367.836C196.851 367.656 196.911 367.456 196.925 367.25C197.063 365.887 197.25 364.538 197.488 363.213C205.447 366.286 214.111 367.057 222.488 365.438C222.716 365.396 222.928 365.292 223.1 365.137C224.538 367.387 226.063 369.588 227.638 371.763C227.509 371.738 227.378 371.738 227.25 371.763C222.156 373.484 216.746 374.063 211.404 373.458C206.061 372.853 200.917 371.079 196.338 368.262V368.288Z" fill="#37474F"/>
<path d="M230.75 332.5C219.5 308.437 221.625 281.762 223.925 256.075C224.088 254.275 221.275 254.287 221.113 256.075C218.75 282.325 216.863 309.337 228.313 333.912C229.088 335.587 231.513 334.162 230.75 332.5Z" fill="#37474F"/>
<path d="M245.425 255.563C245.825 252 246.213 248.45 246.613 244.888C246.813 243.088 244 243.1 243.8 244.888C243.4 248.45 243 252 242.613 255.563C242.413 257.363 245.225 257.35 245.425 255.563Z" fill="#37474F"/>
<path d="M287.563 399.875C265.557 390.133 248.244 372.157 239.338 349.8C238.675 348.138 235.95 348.863 236.625 350.55C245.73 373.616 263.508 392.198 286.15 402.312C287.788 403.037 289.213 400.612 287.563 399.875Z" fill="#37474F"/>
<path d="M300.625 390.975C278.756 374.194 261.339 352.304 249.9 327.225C249.137 325.588 246.712 327.013 247.462 328.65C259.163 354.127 276.932 376.346 299.212 393.362C300.65 394.512 302.05 392.062 300.625 390.975Z" fill="#37474F"/>
<path d="M248.15 322.5C248.117 322.15 247.955 321.825 247.694 321.588C247.434 321.351 247.095 321.22 246.744 321.22C246.392 321.22 246.053 321.351 245.793 321.588C245.533 321.825 245.371 322.15 245.338 322.5C245.371 322.85 245.533 323.175 245.793 323.412C246.053 323.649 246.392 323.78 246.744 323.78C247.095 323.78 247.434 323.649 247.694 323.412C247.955 323.175 248.117 322.85 248.15 322.5Z" fill="#37474F"/>
<path d="M237.05 325.213C229.068 300.978 228.076 274.985 234.187 250.213C234.612 248.463 231.9 247.713 231.475 249.475C225.235 274.73 226.227 301.232 234.337 325.95C234.9 327.675 237.612 326.95 237.05 325.213Z" fill="#37474F"/>
<path d="M233.487 339.413C233.454 339.062 233.292 338.737 233.032 338.501C232.772 338.264 232.433 338.133 232.081 338.133C231.73 338.133 231.391 338.264 231.131 338.501C230.87 338.737 230.708 339.062 230.675 339.413C230.708 339.763 230.87 340.088 231.131 340.324C231.391 340.561 231.73 340.692 232.081 340.692C232.433 340.692 232.772 340.561 233.032 340.324C233.292 340.088 233.454 339.763 233.487 339.413V339.413Z" fill="#37474F"/>
<path d="M257.813 403.162C258.735 403.639 259.687 404.057 260.663 404.412C262.375 405.037 263.163 402.312 261.413 401.7C257.511 400.285 254.143 397.696 251.775 394.287C250.738 392.825 248.3 394.225 249.338 395.712C249.55 396.012 249.775 396.287 250 396.575C244.265 399.192 237.929 400.211 231.663 399.525C229.863 399.337 229.875 402.162 231.663 402.337C238.607 403.061 245.616 401.832 251.9 398.787C252.816 399.698 253.802 400.534 254.85 401.287C252.594 402.052 250.25 402.527 247.875 402.7C246.075 402.837 246.063 405.65 247.875 405.512C251.291 405.26 254.645 404.467 257.813 403.162Z" fill="#37474F"/>
<path d="M206.913 275.9C207.271 273.475 207.625 271.058 207.975 268.65C208.006 268.423 207.984 268.192 207.91 267.975C207.836 267.758 207.713 267.561 207.55 267.4C208.897 266.925 210.117 266.147 211.116 265.126C212.115 264.105 212.866 262.869 213.313 261.512C213.9 259.8 211.188 259.012 210.6 260.762C210.202 261.936 209.478 262.971 208.513 263.748C207.548 264.525 206.381 265.012 205.15 265.15C203.363 265.325 203.35 268.137 205.15 267.962H205.263C204.913 270.375 204.55 272.775 204.2 275.187C203.938 276.912 206.65 277.688 206.913 275.9Z" fill="#37474F"/>
<path d="M261.575 64.2625C264.93 64.2625 267.65 61.5426 267.65 58.1875C267.65 54.8324 264.93 52.1125 261.575 52.1125C258.22 52.1125 255.5 54.8324 255.5 58.1875C255.5 61.5426 258.22 64.2625 261.575 64.2625Z" fill="#C7C7C7"/>
<path d="M267 56.975C267 58.1765 266.644 59.3511 265.976 60.3501C265.309 61.3491 264.36 62.1278 263.25 62.5876C262.14 63.0474 260.918 63.1677 259.74 62.9333C258.561 62.6989 257.479 62.1203 256.629 61.2707C255.78 60.4211 255.201 59.3386 254.967 58.1602C254.732 56.9817 254.853 55.7603 255.312 54.6502C255.772 53.5401 256.551 52.5914 257.55 51.9238C258.549 51.2563 259.724 50.9 260.925 50.9C261.723 50.8984 262.514 51.0544 263.252 51.3591C263.99 51.6638 264.66 52.1112 265.224 52.6757C265.789 53.2401 266.236 53.9105 266.541 54.6483C266.846 55.386 267.002 56.1768 267 56.975Z" fill="#DBDBDB"/>
<path d="M189.238 372.5C189.238 372.5 211.8 334.288 217.825 327.35C221.987 322.55 237.388 314.063 247.3 305.913C249.3 304.263 252.588 297.1 257.013 296.563C262.963 295.838 271.888 308.2 268.463 319.225C265.038 330.25 248.463 340.987 247.213 343.187C245.963 345.387 255.425 369.95 252.05 376.637C248.675 383.325 220.425 399.9 215.8 399.687C211.175 399.475 186.775 379.237 189.238 372.5Z" fill="#FFC100"/>
<path d="M255.35 321.163C258.373 323.496 262.154 324.627 265.963 324.338C267.025 322.733 267.866 320.992 268.463 319.162C271.888 308.15 262.962 295.787 257.012 296.512C252.587 297.05 249.287 304.213 247.3 305.863C247.3 305.863 248.075 315.188 255.35 321.163Z" fill="#EBEBEB"/>
<path d="M264.488 300.3C264.504 300.29 264.523 300.285 264.541 300.287C264.56 300.289 264.578 300.297 264.592 300.309C264.606 300.322 264.616 300.339 264.62 300.357C264.623 300.376 264.621 300.395 264.613 300.412C263.2 302.4 261.875 304.45 260.663 306.562C259.389 308.39 258.752 310.587 258.85 312.812C258.842 312.835 258.828 312.854 258.809 312.867C258.79 312.881 258.767 312.888 258.744 312.888C258.72 312.888 258.698 312.881 258.679 312.867C258.66 312.854 258.645 312.835 258.638 312.812C258.123 310.599 258.325 308.279 259.213 306.188C260.338 303.75 262.5 302 264.488 300.3Z" fill="#263238"/>
<path d="M259.3 296.4C259.375 296.4 259.475 296.4 259.425 296.512C258.136 298.473 256.975 300.515 255.95 302.625C255.05 304.4 253.375 307.1 254.7 309.025C254.925 309.363 254.7 309.45 254.437 309.162C252.725 307.45 253.562 304.638 254.375 302.713C255.525 300.267 257.208 298.11 259.3 296.4V296.4Z" fill="#263238"/>
<path d="M200.325 354.038C199.718 355.672 199 357.264 198.175 358.8C197.4 360.35 196.525 361.838 195.675 363.312C194.825 364.787 193.863 366.237 192.875 367.65C191.888 369.062 190.875 370.462 189.763 371.837C190.204 370.141 190.82 368.495 191.6 366.925C192.356 365.359 193.191 363.832 194.1 362.35C195.013 360.875 195.95 359.425 196.988 358.038C197.997 356.621 199.112 355.284 200.325 354.038V354.038Z" fill="#263238"/>
<path d="M250.975 378.087C248.181 381.409 245.019 384.403 241.55 387.012C238.124 389.67 234.534 392.108 230.8 394.313C227.045 396.495 223.144 398.416 219.125 400.062C215.111 401.703 210.951 402.959 206.7 403.812C210.625 401.962 214.525 400.213 218.325 398.275C222.125 396.338 225.825 394.312 229.575 392.137C233.325 389.962 236.863 387.737 240.45 385.412C244.038 383.087 247.563 380.725 250.975 378.087Z" fill="#263238"/>
<path d="M225.663 395.75C225.049 396.861 224.32 397.904 223.488 398.863C222.673 399.831 221.792 400.742 220.85 401.587C218.99 403.327 216.819 404.701 214.45 405.638C215.388 404.763 216.325 403.963 217.25 403.138C218.175 402.313 219.113 401.5 220.013 400.638C221.875 399.013 223.675 397.338 225.663 395.75Z" fill="#263238"/>
<path d="M311.562 399.725C311.562 399.725 269.938 340.138 282.262 315.463C291.35 297.288 335.375 271.55 335.375 271.55C335.375 271.55 314.6 244.638 314.325 239.175C314.05 233.713 327.787 233.475 335.175 235.263C342.562 237.05 372.675 273.688 373.087 278.288C373.5 282.888 363.387 299.538 364.775 306.688C366.162 313.838 376.7 322.1 377.425 323.325C378.15 324.55 385.087 354.575 378.887 364.475C372.687 374.375 320.487 404.388 311.562 399.725Z" fill="#FFC100"/>
<path d="M325.612 258.425C337.175 259.763 343.512 247.025 345.262 242.85C341.05 238.763 337.325 235.775 335.163 235.25C327.8 233.475 314.05 233.713 314.325 239.175C314.5 242.563 320.825 251.85 325.612 258.425Z" fill="#EBEBEB"/>
<path d="M323.325 233.962C323.332 233.946 323.343 233.932 323.357 233.923C323.372 233.913 323.389 233.907 323.406 233.907C323.424 233.907 323.441 233.913 323.455 233.923C323.47 233.932 323.481 233.946 323.488 233.962C323.863 236.462 324.338 239.025 324.938 241.462C325.284 243.759 326.373 245.88 328.038 247.5C328.056 247.52 328.067 247.545 328.068 247.572C328.069 247.599 328.061 247.626 328.044 247.647C328.028 247.668 328.004 247.683 327.977 247.688C327.951 247.693 327.923 247.688 327.9 247.675C325.909 246.365 324.386 244.457 323.55 242.225C322.625 239.562 323.025 236.725 323.325 233.962Z" fill="#263238"/>
<path d="M316.563 234.75C316.563 234.727 316.572 234.705 316.588 234.688C316.605 234.672 316.627 234.663 316.65 234.663C316.673 234.663 316.695 234.672 316.712 234.688C316.728 234.705 316.738 234.727 316.738 234.75C317.169 237.174 317.762 239.567 318.512 241.913C319.1 243.913 319.762 247.175 322.15 247.713C322.562 247.8 322.475 248.013 322.05 248C319.55 247.938 318.112 245.2 317.337 243.138C316.45 240.436 316.185 237.569 316.563 234.75V234.75Z" fill="#263238"/>
<path d="M284.588 349.8C287.375 354.962 290.075 360.15 292.775 365.337C295.475 370.525 298.163 375.7 300.937 380.825C303.712 385.95 306.5 391.075 309.375 396.15C312.25 401.225 315.275 406.15 318.4 411.15C314.489 406.756 310.916 402.071 307.713 397.137C304.475 392.225 301.537 387.137 298.737 381.975C295.937 376.812 293.388 371.513 291.025 366.15C288.663 360.788 286.425 355.375 284.588 349.8Z" fill="#263238"/>
<path d="M365.75 309.538C368.906 313.373 372.269 317.033 375.825 320.5C376.275 320.912 376.725 321.325 377.187 321.75C377.717 322.166 378.214 322.621 378.675 323.112C379.538 324.24 380.148 325.54 380.462 326.925C381.067 329.43 381.432 331.988 381.55 334.562C381.759 339.595 381.617 344.637 381.125 349.65C380.681 354.645 379.933 359.608 378.887 364.512C378.887 359.512 379.075 354.512 379.175 349.512C379.275 344.512 379.337 339.512 379.05 334.675C378.979 332.257 378.686 329.852 378.175 327.487C377.991 326.414 377.592 325.389 377 324.475C376.606 324.036 376.189 323.619 375.75 323.225C375.3 322.775 374.85 322.313 374.425 321.85C371.049 318.109 368.137 313.975 365.75 309.538Z" fill="#263238"/>
<path d="M305.438 391.475C306.579 393.773 307.565 396.145 308.387 398.575C309.213 400.987 309.988 403.4 310.6 405.925C309.153 403.78 308.009 401.445 307.2 398.988C306.336 396.556 305.744 394.037 305.438 391.475V391.475Z" fill="#263238"/>
<path d="M380.312 345.938C381.52 347.51 382.477 349.26 383.15 351.125C383.496 352.056 383.768 353.013 383.963 353.988C384.194 354.97 384.245 355.987 384.113 356.988C383.763 356.038 383.388 355.163 383.025 354.263C382.663 353.363 382.325 352.463 381.975 351.563C381.269 349.736 380.713 347.854 380.312 345.938Z" fill="#263238"/>
</svg>
